<svg width="122" height="123" viewBox="0 0 122 123" fill="none" xmlns="http://www.w3.org/2000/svg">
<path d="M61 122.5C94.6894 122.5 122 95.1896 122 61.5002C122 27.8109 94.6894 0.500244 61 0.500244C27.3106 0.500244 0 27.8109 0 61.5002C0 95.1896 27.3106 122.5 61 122.5Z" fill="url(#paint0_radial_206_1433)"/>
<path opacity="0.5" d="M61 122.5C94.6894 122.5 122 95.1896 122 61.5002C122 27.8109 94.6894 0.500244 61 0.500244C27.3106 0.500244 0 27.8109 0 61.5002C0 95.1896 27.3106 122.5 61 122.5Z" fill="url(#paint1_radial_206_1433)"/>
<path d="M48.0758 34.3926C48.3427 31.457 45.9027 29.3983 41.3658 28.9789C37.5152 28.5976 28.8227 30.3514 22.1508 38.777C20.9308 40.3401 22.4939 41.4076 23.6377 40.4164C27.5645 37.0995 37.5914 33.3251 44.9877 35.0026C47.9614 35.6889 48.0758 34.3926 48.0758 34.3926Z" fill="url(#paint2_linear_206_1433)"/>
<path d="M41.0981 64.0923C44.3407 64.0923 46.9693 60.1152 46.9693 55.2092C46.9693 50.3032 44.3407 46.326 41.0981 46.326C37.8555 46.326 35.2268 50.3032 35.2268 55.2092C35.2268 60.1152 37.8555 64.0923 41.0981 64.0923Z" fill="url(#paint3_radial_206_1433)"/>
<path d="M41.0981 49.338C43.6143 49.338 45.8256 51.5492 46.9693 54.7899C46.8931 49.9861 44.3006 46.1355 41.0981 46.1355C37.8956 46.1355 35.3031 49.9861 35.2268 54.7899C36.3706 51.5492 38.5437 49.338 41.0981 49.338Z" fill="url(#paint4_linear_206_1433)"/>
<path d="M80.9015 64.0923C84.1441 64.0923 86.7728 60.1152 86.7728 55.2092C86.7728 50.3032 84.1441 46.326 80.9015 46.326C77.6589 46.326 75.0303 50.3032 75.0303 55.2092C75.0303 60.1152 77.6589 64.0923 80.9015 64.0923Z" fill="url(#paint5_radial_206_1433)"/>
<path d="M80.9015 49.5677C78.3853 49.5677 76.174 51.779 75.0303 55.0196C75.1065 50.2159 77.699 46.3652 80.9015 46.3652C84.104 46.3652 86.6965 50.2159 86.7728 55.0196C85.629 51.779 83.4559 49.5677 80.9015 49.5677Z" fill="url(#paint6_linear_206_1433)"/>
<path d="M60.7333 101.608C70.8745 101.608 80.4439 103.743 85.3239 103.743C90.2039 103.743 94.512 100.922 97.6764 90.7424C101.946 77.0555 84.4089 75.6449 60.6951 75.6449C36.9814 75.6449 19.4438 77.0555 23.7139 90.7424C26.8782 100.922 31.1864 103.743 36.0664 103.743C41.0226 103.705 50.592 101.608 60.7333 101.608Z" fill="url(#paint7_radial_206_1433)"/>
<path d="M60.7337 75.6068C37.0199 75.6068 19.4824 77.0174 23.7524 90.7043C26.9168 100.884 31.2249 103.705 36.1049 103.705C36.1049 103.705 25.9637 100.045 29.3187 92.6487C32.6737 85.2524 60.7337 78.6187 60.7337 78.6187C60.7337 78.6187 88.7556 85.2524 92.1487 92.6487C95.5418 100.045 85.3625 103.705 85.3625 103.705C90.2425 103.705 94.5506 100.884 97.715 90.7043C101.985 77.0174 84.4475 75.6068 60.7337 75.6068Z" fill="url(#paint8_linear_206_1433)"/>
<path d="M60.7325 98.5582C66.9088 98.5582 72.8563 99.3207 77.6219 99.9307C80.7863 100.35 83.5313 100.693 85.3231 100.693C85.59 100.693 85.8569 100.731 86.1619 100.731C91.7281 100.731 93.0625 91.6957 91.5756 91.6957C91.5756 91.6957 95.2356 86.6632 92.2619 82.3551C85.7044 78.657 69.8063 78.657 60.7325 78.657C51.6587 78.657 35.7606 78.657 29.2031 82.3551C26.2294 86.7014 29.8894 91.6957 29.8894 91.6957C28.4025 91.6957 29.7369 100.731 35.3031 100.731C35.6081 100.693 35.875 100.693 36.1419 100.693C37.9719 100.693 40.6787 100.35 43.8431 99.9307C48.6087 99.2826 54.5562 98.5582 60.7325 98.5582Z" fill="url(#paint9_radial_206_1433)"/>
<path d="M29.813 92.5722C50.3243 87.921 71.6361 87.9972 92.1093 92.7628C92.0711 92.2291 91.9186 91.8478 91.6899 91.7335L91.5374 91.6953C91.5374 91.6953 81.2818 88.0735 60.9611 88.0735C40.6405 88.0735 29.8511 91.6953 29.8511 91.6953C29.5461 91.6953 29.3555 92.0766 29.3174 92.6866L29.813 92.5722Z" fill="#99AFB3"/>
<path d="M73.9251 34.1649C73.6582 31.2292 76.0982 29.1705 80.6351 28.7511C84.4857 28.3698 93.1782 30.1236 99.8501 38.5492C101.07 40.1124 99.507 41.1799 98.3632 40.1886C94.4363 36.8717 84.4095 33.0974 77.0132 34.7749C74.0395 35.4611 73.9251 34.1649 73.9251 34.1649Z" fill="url(#paint10_linear_206_1433)"/>
<defs>
<radialGradient id="paint0_radial_206_1433" cx="0" cy="0" r="1" gradientUnits="userSpaceOnUse" gradientTransform="translate(48.9981 36.779) scale(73.5886)">
<stop stop-color="#FFE030"/>
<stop offset="1" stop-color="#FFB92E"/>
</radialGradient>
<radialGradient id="paint1_radial_206_1433" cx="0" cy="0" r="1" gradientUnits="userSpaceOnUse" gradientTransform="translate(48.9981 36.779) scale(57.8954)">
<stop stop-color="#FFEA5F"/>
<stop offset="1" stop-color="#FFBC47" stop-opacity="0"/>
</radialGradient>
<linearGradient id="paint2_linear_206_1433" x1="34.7953" y1="38.0488" x2="35.5219" y2="30.3715" gradientUnits="userSpaceOnUse">
<stop offset="0.00132565" stop-color="#3C2200"/>
<stop offset="1" stop-color="#7A4400"/>
</linearGradient>
<radialGradient id="paint3_radial_206_1433" cx="0" cy="0" r="1" gradientUnits="userSpaceOnUse" gradientTransform="translate(39.3018 55.4434) rotate(73.8539) scale(8.61886 5.57627)">
<stop offset="0.00132565" stop-color="#7A4400"/>
<stop offset="1" stop-color="#643800"/>
</radialGradient>
<linearGradient id="paint4_linear_206_1433" x1="41.0836" y1="46.2917" x2="41.0836" y2="54.5703" gradientUnits="userSpaceOnUse">
<stop offset="0.00132565" stop-color="#3C2200"/>
<stop offset="1" stop-color="#512D00"/>
</linearGradient>
<radialGradient id="paint5_radial_206_1433" cx="0" cy="0" r="1" gradientUnits="userSpaceOnUse" gradientTransform="translate(79.136 55.4448) rotate(73.8539) scale(8.61886 5.57627)">
<stop offset="0.00132565" stop-color="#7A4400"/>
<stop offset="1" stop-color="#643800"/>
</radialGradient>
<linearGradient id="paint6_linear_206_1433" x1="80.916" y1="46.5106" x2="80.916" y2="54.7892" gradientUnits="userSpaceOnUse">
<stop offset="0.00132565" stop-color="#3C2200"/>
<stop offset="1" stop-color="#512D00"/>
</linearGradient>
<radialGradient id="paint7_radial_206_1433" cx="0" cy="0" r="1" gradientUnits="userSpaceOnUse" gradientTransform="translate(60.7296 89.6496) scale(28.397)">
<stop offset="0.00132565" stop-color="#7A4400"/>
<stop offset="1" stop-color="#643800"/>
</radialGradient>
<linearGradient id="paint8_linear_206_1433" x1="23.1125" y1="89.6497" x2="98.3477" y2="89.6497" gradientUnits="userSpaceOnUse">
<stop offset="0.00132565" stop-color="#3C2200"/>
<stop offset="1" stop-color="#512D00"/>
</linearGradient>
<radialGradient id="paint9_radial_206_1433" cx="0" cy="0" r="1" gradientUnits="userSpaceOnUse" gradientTransform="translate(60.7291 89.6779) rotate(180) scale(51.5685)">
<stop offset="0.00132565" stop-color="white"/>
<stop offset="1" stop-color="#A9BCBE"/>
</radialGradient>
<linearGradient id="paint10_linear_206_1433" x1="87.2135" y1="37.8338" x2="86.4869" y2="30.1564" gradientUnits="userSpaceOnUse">
<stop offset="0.00132565" stop-color="#3C2200"/>
<stop offset="1" stop-color="#7A4400"/>
</linearGradient>
</defs>
</svg>
