<svg width="119" height="119" viewBox="0 0 119 119" fill="none" xmlns="http://www.w3.org/2000/svg">
<path d="M59.5 119C92.3609 119 119 92.3612 119 59.5002C119 26.6393 92.3609 0.000244141 59.5 0.000244141C26.6391 0.000244141 0 26.6393 0 59.5002C0 92.3612 26.6391 119 59.5 119Z" fill="url(#paint0_radial_206_1432)"/>
<path opacity="0.5" d="M59.5 119C92.3609 119 119 92.3612 119 59.5002C119 26.6393 92.3609 0.000244141 59.5 0.000244141C26.6391 0.000244141 0 26.6393 0 59.5002C0 92.3612 26.6391 119 59.5 119Z" fill="url(#paint1_radial_206_1432)"/>
<path d="M99.6831 69.5734C99.2404 69.4073 98.7422 69.3797 98.2994 69.518C85.7352 73.1157 72.7006 74.9146 59.5276 74.9146C46.3545 74.9146 33.2922 73.088 20.7557 69.518C20.2852 69.3797 19.8148 69.4073 19.372 69.5734C18.0159 70.1269 15.8573 72.1748 18.7078 80.0066V80.0343C22.9143 90.0525 34.0671 107.653 59.4999 107.653C84.8773 107.653 96.0301 90.0248 100.347 80.0343C103.17 72.1748 101.039 70.1269 99.6831 69.5734Z" fill="url(#paint2_linear_206_1432)"/>
<path d="M43.7813 31.4386C43.1448 29.1417 40.2667 28.3944 35.9771 29.5844C32.3518 30.6084 24.935 34.8149 21.4204 43.4217C20.7839 44.9991 22.5274 45.2759 23.2746 44.1689C25.8483 40.3498 33.8462 34.1507 41.1246 32.9331C44.0857 32.4349 43.7813 31.4386 43.7813 31.4386Z" fill="url(#paint3_linear_206_1432)"/>
<path d="M43.3935 49.925C39.27 47.3789 33.9565 47.6557 30.0821 50.5615C28.1172 52.0559 26.18 54.3252 25.0453 57.8675C24.8516 58.4487 24.7132 59.0852 24.6855 59.7217C24.6025 60.9948 25.4881 62.1294 26.9272 60.801C37.9139 50.4231 45.6074 61.1055 45.6074 61.1055C47.1018 62.1848 48.6239 59.9431 48.3195 57.8675C48.2365 57.2587 48.1535 56.6222 48.0151 56.0687C47.1295 53.0245 45.3307 51.115 43.3935 49.925Z" fill="url(#paint4_radial_206_1432)"/>
<path d="M98.8805 69.4075C98.7975 69.4075 98.7144 69.4075 98.6037 69.4351C85.9289 73.0882 72.7835 74.9424 59.4721 74.9424C46.1607 74.9424 33.0153 73.0882 20.3405 69.4351C20.2574 69.4075 20.1744 69.4075 20.0637 69.4075C19.2058 69.4905 15.11 70.3484 18.6246 80.0345V80.0621C20.3405 84.1026 23.1909 89.3884 27.6465 94.2315C23.4677 89.2777 28.6151 86.538 37.7754 87.6449C46.9356 88.7519 59.4721 88.7796 59.4721 88.7796C59.4721 88.7796 71.9809 88.7519 81.1688 87.6449C90.3291 86.538 95.4765 89.2777 91.2977 94.2315C95.7533 89.3884 98.6037 84.1026 100.32 80.0621V80.0345C103.834 70.3207 99.7384 69.4628 98.8805 69.4075Z" fill="url(#paint5_linear_206_1432)"/>
<path d="M91.8237 83.0232C95.3106 82.276 97.9397 79.3702 98.2718 75.8002L98.6039 72.3132C85.929 75.8832 72.7837 77.7097 59.4999 77.7097C46.2162 77.7097 33.0709 75.8832 20.396 72.3132L20.7281 75.8002C21.0602 79.3425 23.6893 82.2484 27.1762 83.0232C37.7479 85.3202 48.5962 86.4549 59.4999 86.4549C70.4037 86.4549 81.252 85.2925 91.8237 83.0232Z" fill="url(#paint6_radial_206_1432)"/>
<path d="M47.9873 56.041C47.5999 54.7957 47.0741 53.7164 46.4929 52.8308C45.6073 51.5578 44.528 50.6168 43.3934 49.925C39.2699 47.3789 33.9564 47.6557 30.082 50.5615C28.1171 52.0559 26.1799 54.3252 25.0452 57.8675C24.9345 58.1996 24.8515 58.5594 24.7961 58.9191V58.9468C29.6392 51.3917 36.6131 50.8659 36.6131 50.8659C36.6131 50.8659 43.5317 50.2847 48.2087 57.0373C48.1534 56.7052 48.0703 56.3731 47.9873 56.041Z" fill="url(#paint7_linear_206_1432)"/>
<path d="M75.2191 31.4386C75.8556 29.1417 78.7337 28.3944 83.0232 29.5844C86.6486 30.6084 94.0653 34.8149 97.58 43.4217C98.2165 44.9991 96.473 45.2759 95.7258 44.1689C93.1521 40.3498 85.1542 34.1507 77.8758 32.9331C74.9146 32.4349 75.2191 31.4386 75.2191 31.4386Z" fill="url(#paint8_linear_206_1432)"/>
<path d="M75.6069 49.925C79.7303 47.3789 85.0438 47.6557 88.9182 50.5615C90.8831 52.0559 92.8203 54.3252 93.955 57.8675C94.1487 58.4487 94.2871 59.0852 94.3147 59.7217C94.3978 60.9948 93.5122 62.1294 92.0731 60.801C81.0864 50.4231 73.3929 61.1055 73.3929 61.1055C71.8985 62.1848 70.3764 59.9431 70.6808 57.8675C70.7638 57.2587 70.8468 56.6222 70.9852 56.0687C71.8708 53.0245 73.6696 51.115 75.6069 49.925Z" fill="url(#paint9_radial_206_1432)"/>
<path d="M71.0122 56.041C71.3996 54.7957 71.9254 53.7164 72.5066 52.8308C73.3922 51.5578 74.4715 50.6168 75.6061 49.925C79.7296 47.3789 85.0431 47.6557 88.9175 50.5615C90.8824 52.0559 92.8196 54.3252 93.9543 57.8675C94.065 58.1996 94.148 58.5594 94.2033 58.9191V58.9468C89.3603 51.3917 82.3864 50.8659 82.3864 50.8659C82.3864 50.8659 75.4677 50.2847 70.7908 57.0373C70.8461 56.7052 70.9291 56.3731 71.0122 56.041Z" fill="url(#paint10_linear_206_1432)"/>
<path d="M93.4013 87.3405C93.8164 86.7316 93.1522 85.9567 92.488 86.2612C88.2262 88.1153 78.0973 91.3256 59.5001 91.3256C40.2941 91.3256 30.6357 88.226 26.5399 86.3442C25.8757 86.0398 25.2115 86.8146 25.6266 87.4235C31.4659 96.0302 41.8162 105.052 59.5001 105.052C77.1841 105.024 87.5343 95.9749 93.4013 87.3405Z" fill="url(#paint11_radial_206_1432)"/>
<defs>
<radialGradient id="paint0_radial_206_1432" cx="0" cy="0" r="1" gradientUnits="userSpaceOnUse" gradientTransform="translate(47.7932 35.3869) scale(71.779)">
<stop stop-color="#FFDF30"/>
<stop offset="1" stop-color="#FFB82E"/>
</radialGradient>
<radialGradient id="paint1_radial_206_1432" cx="0" cy="0" r="1" gradientUnits="userSpaceOnUse" gradientTransform="translate(47.7933 35.3869) scale(56.4718)">
<stop stop-color="#FFE95F"/>
<stop offset="1" stop-color="#FFBB47" stop-opacity="0"/>
</radialGradient>
<linearGradient id="paint2_linear_206_1432" x1="17.2632" y1="88.5407" x2="101.737" y2="88.5407" gradientUnits="userSpaceOnUse">
<stop offset="0.00132565" stop-color="#3C2200"/>
<stop offset="0.5" stop-color="#512D00"/>
<stop offset="1" stop-color="#3C2200"/>
</linearGradient>
<linearGradient id="paint3_linear_206_1432" x1="32.7595" y1="38.6518" x2="31.0685" y2="32.6142" gradientUnits="userSpaceOnUse">
<stop offset="0.00132565" stop-color="#3C2200"/>
<stop offset="1" stop-color="#7A4400"/>
</linearGradient>
<radialGradient id="paint4_radial_206_1432" cx="0" cy="0" r="1" gradientUnits="userSpaceOnUse" gradientTransform="translate(36.561 55.1724) rotate(175.474) scale(9.1795 6.50904)">
<stop offset="0.00132565" stop-color="#7A4400"/>
<stop offset="1" stop-color="#643800"/>
</radialGradient>
<linearGradient id="paint5_linear_206_1432" x1="101.264" y1="81.803" x2="18.2436" y2="81.803" gradientUnits="userSpaceOnUse">
<stop offset="0.00132565" stop-color="#3C2200"/>
<stop offset="0.5" stop-color="#512D00"/>
<stop offset="1" stop-color="#3C2200"/>
</linearGradient>
<radialGradient id="paint6_radial_206_1432" cx="0" cy="0" r="1" gradientUnits="userSpaceOnUse" gradientTransform="translate(59.4999 79.397) scale(71.8817)">
<stop offset="0.00132565" stop-color="white"/>
<stop offset="1" stop-color="#A8BBBD"/>
</radialGradient>
<linearGradient id="paint7_linear_206_1432" x1="37.5263" y1="43.6146" x2="36.7976" y2="53.6058" gradientUnits="userSpaceOnUse">
<stop offset="0.00132565" stop-color="#3C2200"/>
<stop offset="1" stop-color="#512D00"/>
</linearGradient>
<linearGradient id="paint8_linear_206_1432" x1="86.2962" y1="38.6617" x2="87.9871" y2="32.624" gradientUnits="userSpaceOnUse">
<stop offset="0.00132565" stop-color="#3C2200"/>
<stop offset="1" stop-color="#7A4400"/>
</linearGradient>
<radialGradient id="paint9_radial_206_1432" cx="0" cy="0" r="1" gradientUnits="userSpaceOnUse" gradientTransform="translate(82.3735 55.1712) rotate(4.52559) scale(9.17948 6.50904)">
<stop offset="0.00132565" stop-color="#7A4400"/>
<stop offset="1" stop-color="#643800"/>
</radialGradient>
<linearGradient id="paint10_linear_206_1432" x1="81.4225" y1="43.6173" x2="82.1512" y2="53.6085" gradientUnits="userSpaceOnUse">
<stop offset="0.00132565" stop-color="#3C2200"/>
<stop offset="1" stop-color="#512D00"/>
</linearGradient>
<radialGradient id="paint11_radial_206_1432" cx="0" cy="0" r="1" gradientUnits="userSpaceOnUse" gradientTransform="translate(59.5128 95.6084) scale(70.827 70.8269)">
<stop offset="0.00132565" stop-color="white"/>
<stop offset="1" stop-color="#A8BBBD"/>
</radialGradient>
</defs>
</svg>
