<svg width="121" height="95" viewBox="0 0 121 95" fill="none" xmlns="http://www.w3.org/2000/svg">
<path d="M58.1782 75.2206C58.1782 75.2206 60.0482 83.1806 70.4082 89.1006C76.9382 92.8306 90.6682 96.7006 97.6782 91.5206C105.658 85.6206 107.378 79.7806 107.758 77.6306C108.138 75.4806 106.998 69.5506 106.998 69.5506L93.8682 64.8806C93.8682 64.8806 72.1582 70.1806 71.7782 70.1806C71.4082 70.1906 58.1782 75.2206 58.1782 75.2206Z" fill="#E06767"/>
<path d="M107.038 80.1906C107.328 79.4406 107.508 78.8006 107.638 78.2706C105.318 77.6506 102.628 76.6506 100.188 75.6106C100.388 75.5206 100.588 75.4306 100.778 75.3306C101.978 74.7206 103.158 74.0106 104.008 72.9706C104.928 71.8506 105.348 70.4006 105.298 68.9506L93.8681 64.8806C93.8681 64.8806 72.1581 70.1806 71.7781 70.1806C71.3981 70.1806 58.1781 75.2106 58.1681 75.2206C57.9981 75.2806 59.3981 78.2206 59.4881 78.3706C60.7581 80.7406 63.6781 84.0406 65.6781 85.8306C65.6781 85.8306 64.7581 83.7106 66.4981 82.9206C67.2681 82.5706 68.1981 82.7406 68.9881 83.0506C70.9681 83.8406 73.4481 86.8806 79.6481 90.1406C83.8581 92.3606 88.1881 94.0606 89.5881 94.0006C91.4581 93.9206 94.8481 93.0106 94.8481 93.0106C94.8481 93.0106 90.5281 92.6006 83.5881 89.3706C81.4881 88.3906 73.7181 84.5706 72.9781 82.4406C72.7681 81.8406 72.0181 80.7806 73.3781 80.1806C75.4581 79.2506 81.1281 84.1406 85.9981 86.3806C91.7981 89.0406 98.1181 91.1706 98.1181 91.1706C98.7981 90.6506 99.4381 90.1306 100.038 89.6106C96.8081 88.7806 93.6481 87.6406 90.5981 86.3106C87.5581 84.9906 84.5781 83.2806 81.8281 81.4006C80.0781 80.2006 78.8681 78.1806 80.7481 77.9206C83.8281 77.4906 87.8081 80.4206 91.7981 82.4906C95.3981 84.3606 99.7181 85.2206 103.768 85.7306C104.288 85.0806 105.138 83.8406 105.138 83.8406C105.138 83.8406 103.608 83.5806 99.0881 82.5806C97.1081 82.1406 95.1881 81.5706 93.4281 80.5806C92.9681 80.3206 91.3581 78.6706 93.5581 77.9106C95.7581 77.1506 97.8481 78.6606 101.168 79.4306C104.498 80.2206 107.008 80.2606 107.038 80.1906Z" fill="#B05353"/>
<path d="M114.648 38.8206C114.648 38.8206 114.398 30.7206 110.048 23.5506C106.298 17.3706 100.948 16.7406 100.948 16.7406C100.948 16.7406 99.8882 12.8506 96.1682 9.87056C92.4482 6.89056 84.7982 4.40056 84.7982 4.40056C69.4782 -2.49944 59.9282 3.15056 59.9282 3.15056C59.9282 3.15056 37.2082 -2.24944 19.0182 13.1806C19.0182 13.1806 9.83824 17.5006 6.08824 25.6606C4.01824 30.1806 4.90825 37.5506 4.90825 37.5506C-1.46175 44.9506 0.288245 56.6706 7.43824 62.5406C10.8482 65.3306 15.0582 67.1806 19.4482 67.6506C21.1682 67.8306 22.0382 67.4206 22.7582 69.1706C23.8182 71.7506 24.6482 74.4006 26.7782 76.2506C28.9482 78.1306 31.4782 79.5906 34.1682 80.5906C39.3882 82.5206 45.2882 82.7306 50.5582 80.8406C52.3082 80.2106 57.9182 80.1506 57.9182 80.1506C57.9182 80.1506 60.8882 82.6006 71.4282 82.2106C81.9682 81.8206 86.4182 77.2706 88.8282 76.4206C90.6782 75.7706 92.9482 74.3406 94.9682 74.7106C96.1182 74.9206 97.1482 75.5106 98.1982 76.0106C101.138 77.4206 104.438 78.1906 107.678 77.8906C119.928 76.7606 121.218 62.6506 120.008 52.9506C118.788 43.1606 114.648 38.8206 114.648 38.8206Z" fill="#FFB3B3"/>
<path d="M24.1684 57.9705C23.9184 58.5405 21.4184 64.0005 19.3184 64.8805C15.6884 66.4105 10.0684 62.7705 7.91844 61.7705C7.49844 61.5705 7.21844 62.0705 7.21844 62.0705C6.86844 62.5205 7.77844 63.4505 8.23844 63.7805C10.0184 65.0605 14.2884 67.9605 17.4584 68.7505C21.5484 69.7705 24.6184 68.7505 24.6184 68.7505C24.6184 68.7505 25.7384 60.5605 25.8284 60.1905C25.9184 59.8205 25.8284 56.5605 25.8284 56.5605L24.1684 57.9705Z" fill="#EA6363"/>
<path d="M59.8984 81.0806C59.8984 81.0806 57.8384 80.7606 54.6784 80.8106C51.5184 80.8606 47.0684 81.7706 47.0684 81.7706C47.0684 81.7706 50.2084 80.3406 51.6084 79.0906C53.0084 77.8306 53.2884 74.7706 53.0584 72.9506C52.8184 71.0906 52.1884 70.1506 47.4284 69.1606L61.6884 68.3706C56.9084 71.5506 56.0384 78.1006 59.8984 81.0806Z" fill="#F07371"/>
<path d="M103.068 50.9905C100.588 51.3205 98.1784 50.8505 96.0384 49.5805C95.1084 49.0205 95.0084 47.7005 95.8284 46.9905C96.3784 46.5205 97.1684 46.4905 97.7784 46.8905C101.238 49.1605 104.758 47.6705 106.638 46.5005C111.438 43.5105 113.818 38.2105 113.498 32.6505C114.458 34.3505 115.158 36.2305 115.328 38.1705C115.758 42.8805 112.368 46.5505 108.578 48.9205C106.768 50.0605 104.898 50.7505 103.068 50.9905Z" fill="#F07371"/>
<path d="M113.788 55.6805C112.708 55.6805 111.538 55.4505 110.428 54.7705C109.288 54.0705 108.648 53.1305 108.078 51.9705C107.608 51.0205 106.948 50.4305 105.738 50.5205C104.888 50.5905 104.068 51.0705 103.218 50.9505C104.348 48.9505 106.158 47.3505 108.288 46.4805C109.268 46.0805 110.368 45.8305 111.368 46.1405C111.478 46.8405 111.008 47.4905 110.738 48.1505C110.268 49.3205 110.458 50.7205 111.218 51.7205C111.738 52.4005 112.728 53.1305 113.638 53.0705C114.238 53.0305 114.658 52.5205 115.248 52.4705C117.078 52.3405 117.538 55.0205 115.738 55.4405C115.158 55.5805 114.498 55.6805 113.788 55.6805Z" fill="#F07371"/>
<path d="M96.1884 18.6006C95.4584 18.6906 94.7184 18.6106 94.3384 17.9706C93.8484 17.1406 94.2584 16.1006 95.1684 15.7806C97.6784 14.9006 100.498 15.0606 102.948 16.0406C105.088 16.9006 106.378 18.3606 107.228 19.3506C108.078 20.3406 108.658 22.3006 108.658 22.3006C106.528 20.4506 105.318 17.5406 96.1884 18.6006Z" fill="#F07371"/>
<path d="M86.6085 16.6705C84.4485 16.5805 86.5485 16.6705 86.5285 16.6705C83.1085 16.6705 79.0185 15.4905 78.4685 11.5905C77.4785 4.49051 87.9585 7.25051 91.7985 7.78051C91.7985 7.78051 88.7685 4.67051 84.7985 4.40051C82.9485 4.28051 81.0385 4.33051 79.2385 4.81051C77.2585 5.34051 76.2585 6.83051 74.4585 7.57051C73.0985 8.12051 71.5485 7.91051 70.1485 7.49051C68.8585 7.10051 64.6685 4.85051 64.5485 7.65051C64.5185 8.42051 65.0685 9.08051 65.8185 9.19051C68.8585 9.62051 73.0585 10.9805 74.6185 13.8805C75.3385 15.2105 75.5085 16.8205 75.0885 18.2705C74.8885 18.9805 74.5985 19.8905 75.1885 20.3405C75.6385 20.6905 76.3285 20.4605 76.7385 20.0605C77.1485 19.6605 77.4085 19.1205 77.8185 18.7205C79.0985 17.4605 80.2585 18.3605 81.6185 18.8405C83.1885 19.4005 84.8485 19.6705 86.5185 19.6705C86.5585 19.6705 83.5885 19.3805 86.6285 19.6705C89.6585 19.9505 88.7585 16.7605 86.6085 16.6705Z" fill="#F07371"/>
<path d="M38.5381 13.4105C36.8781 11.9105 36.0881 6.07055 40.8581 3.06055C40.8581 3.06055 38.2581 3.15055 36.0881 4.85055C34.2381 6.30055 33.8681 8.81055 34.3081 11.4605C34.4181 12.1405 33.8881 12.7605 33.1981 12.7205C30.7181 12.5905 28.2481 13.0405 26.1181 14.0205C25.3081 14.4005 25.0281 15.4205 25.5081 16.1805C25.9181 16.8205 26.7281 17.0405 27.4181 16.7205C29.8081 15.6205 33.2881 15.0305 36.0781 15.7305C38.9081 16.4405 40.8981 17.2605 43.1181 21.1105C43.4981 21.7605 44.3181 21.9905 44.9381 21.5705C45.4181 21.2405 45.6181 20.6205 45.4181 20.0805C43.5181 14.8405 40.7781 15.4305 38.5381 13.4105Z" fill="#F07371"/>
<path d="M44.7283 31.4206C44.4883 30.6006 43.6483 30.1506 42.8583 30.3906C40.4583 31.1106 36.9883 30.9006 35.4383 29.3406C33.3683 24.5506 31.7983 23.7006 29.2883 22.8506C28.2883 22.5106 27.2883 23.3706 27.3883 24.4106C27.4483 25.0006 27.8383 25.5006 28.4083 25.6706C30.1883 26.2006 31.9783 28.5906 32.8983 31.0306C33.7383 33.2406 33.8383 36.1506 31.9383 38.2306C31.4483 38.7706 31.3483 39.5506 31.7783 40.1406L31.7983 40.1706C32.3483 40.9306 33.4483 40.9906 34.0883 40.3006C34.7683 39.5606 35.4783 38.6006 35.7783 37.6306C36.0883 36.6006 35.9983 35.6806 36.8883 34.8606C37.8783 33.9406 38.8183 34.1306 40.0083 34.1306C41.2283 34.1306 42.5383 33.6906 43.6883 33.2806C44.4683 33.0306 44.9683 32.2006 44.7283 31.4206Z" fill="#F07371"/>
<path d="M14.0683 44.9806C13.7283 44.9806 13.3983 44.9706 13.0483 44.9406C8.41829 44.5406 5.98829 41.2106 4.88829 37.5606C3.78829 33.9106 4.71829 29.9406 4.71829 29.9406C6.11829 40.7406 11.7483 41.8106 13.3083 41.9506C16.2583 42.2106 19.0783 40.9306 19.8483 38.9806C21.0683 35.9006 17.3283 32.8806 15.4983 31.0106C14.2883 29.7706 13.8383 27.6606 14.1583 25.9906C14.3183 25.1306 14.6983 24.2906 15.4083 23.7406C16.1083 23.2006 17.8683 22.7106 17.6283 24.2506C17.5583 24.7306 17.2483 25.1306 17.0583 25.5706C15.6883 28.6906 20.5583 31.5806 21.8883 33.8906C22.9783 35.7606 23.4583 38.0206 22.6383 40.0806C21.4783 43.0206 17.9683 44.9806 14.0683 44.9806Z" fill="#F07371"/>
<path d="M12.9984 44.1806C13.8084 44.2806 14.6384 44.1406 15.3684 43.7806C16.0684 43.4406 16.6984 42.9006 17.4684 42.8406C17.8384 42.8206 18.2984 43.0406 18.2384 43.4006C18.2184 43.5306 19.0684 43.7706 18.9584 43.8406C16.9684 45.0806 11.9284 46.3106 15.4084 55.2406C15.6884 55.9506 15.4684 56.7506 14.8184 57.1406C14.0584 57.6006 13.0484 57.3006 12.6884 56.4906C11.7384 54.4006 11.2784 52.0906 11.3084 49.7906C11.3384 47.5506 11.5684 45.5906 10.0684 43.7206C9.90836 43.5306 9.73836 43.2606 9.86836 43.0506C9.94836 42.9206 10.1084 42.8706 10.2584 42.8306C10.8784 42.6706 11.5384 42.5006 12.1684 42.6306C12.4484 42.6906 15.5784 44.4206 15.6084 44.3606" fill="#F07371"/>
<path d="M102.208 58.6206C100.138 58.3706 98.0083 58.5206 96.0483 59.2606C94.3883 59.8906 93.1483 61.1606 91.2383 60.7406C90.0983 60.4906 89.0883 59.7606 88.3783 58.8306C86.8783 56.8806 87.0783 54.8306 87.6383 52.6106C88.1983 50.4106 88.1383 47.8606 87.1483 45.7906C86.8883 45.2406 86.4483 44.7506 85.8783 44.5506C85.2983 44.3506 84.5883 44.5206 84.2483 45.0306C83.9083 45.5506 84.0383 46.2406 84.1583 46.8506C84.5483 48.7206 85.0483 50.7406 84.4883 52.5706C83.9583 54.3106 83.2283 55.8706 81.9783 57.2106C79.6083 59.7606 76.1683 60.9306 73.1983 60.1806C71.0083 59.6306 69.2383 58.1006 68.0483 55.7606C67.6283 53.9306 67.1883 51.5506 64.9183 51.2906C64.4583 51.2406 63.9583 51.3106 63.6083 51.6006C63.2583 51.9006 63.0983 52.3806 63.0983 52.8406C63.0983 53.9906 64.1983 54.8506 64.3983 55.9806C65.0283 59.4406 62.7283 63.4006 59.2383 65.3206C56.5383 66.8106 49.1283 67.6506 42.4883 62.0806C42.2083 61.8406 42.2083 61.3806 41.9383 61.1306C41.7583 60.9706 41.5283 60.8706 41.2983 60.8306C40.3083 60.6406 39.2783 61.5806 39.3683 62.5806C39.4483 63.4906 40.1983 64.1906 40.8683 64.8106C42.6083 66.4306 41.8283 67.0806 41.5283 67.9506C41.4583 68.1706 41.3283 68.3706 41.3083 68.6006C41.2483 69.2406 42.2283 69.0306 42.8683 68.9806C43.5083 68.9306 44.0883 68.5806 44.7083 68.4006C45.4883 68.1806 49.0583 69.4906 49.7583 69.6406C51.7883 70.0806 52.4883 70.2806 54.2383 70.2806C56.4283 70.2806 58.2883 71.4106 59.8883 69.9106C62.1683 67.7806 63.9383 66.3906 65.9583 65.7006C66.9583 65.3606 68.1583 65.1906 68.9983 65.8406C69.5983 66.3006 69.8683 67.0706 70.0783 67.7906C70.5083 69.2706 70.8283 70.7806 71.4583 72.1906C72.0883 73.5906 73.0883 74.9006 74.4883 75.5306C74.9283 75.7306 75.4283 75.8606 75.9083 75.7506C76.3883 75.6406 76.8083 75.2306 76.8183 74.7506C76.8283 74.4206 76.6583 74.1206 76.4783 73.8506C75.7883 72.7506 74.9683 71.7306 74.3583 70.5906C73.7483 69.4506 73.3483 68.1206 73.5983 66.8506C74.0583 64.5006 76.7783 63.8406 78.7283 63.2506C80.5983 62.6806 82.4683 61.6106 84.4783 61.7206C85.7383 61.7906 88.4083 63.2606 89.2083 64.2406C89.3683 64.4406 89.4383 64.6906 89.4783 64.9506C89.8183 67.0606 88.2683 68.9606 86.7983 70.5006C86.5383 70.7706 86.2683 71.1806 86.4883 71.4906C86.5683 71.6006 86.6883 71.6606 86.8083 71.7006C87.8683 72.1106 89.1083 71.7506 90.0083 71.0606C91.9883 69.5606 92.6783 66.9906 94.3683 65.2106C95.7583 63.7606 97.6283 62.8106 99.5183 62.1906C106.278 59.9706 106.628 65.2906 107.838 68.2706C109.048 71.2506 110.838 69.1906 110.858 68.3706C110.928 64.4806 108.438 59.3606 102.208 58.6206Z" fill="#F07371"/>
<path d="M38.8985 74.4105C37.8685 74.3505 37.1885 73.2805 37.6085 72.3305C38.2785 70.8105 39.5385 69.3005 41.1685 68.1405C43.6485 66.3805 46.1285 66.0605 48.6185 66.7705L49.1285 69.3105C47.5185 68.8505 44.6385 69.3605 42.9085 70.5905C41.6585 71.4805 40.7985 72.5705 40.3785 73.4805C40.1085 74.0705 39.5385 74.4505 38.8985 74.4105Z" fill="#F07371"/>
<path d="M103.658 28.3206C103.468 27.0506 102.478 25.8706 101.198 25.8306C100.568 25.8106 99.8684 26.1406 99.6984 26.7506C99.6184 27.0206 99.6584 27.3206 99.6684 27.6006C99.7484 29.6806 98.0784 31.6906 96.0184 31.9806C93.6884 32.3106 91.9684 30.8706 90.2084 29.6706C88.5284 28.5306 86.4284 27.7606 84.4884 27.2106C79.3184 25.7606 74.8684 26.7306 71.4784 31.0006C70.2184 32.5906 69.0184 34.3306 67.2484 35.3106C64.4684 36.8506 58.5984 36.9606 56.8684 33.9406C54.5984 29.9906 54.5184 17.8506 61.7984 19.2306C64.0484 19.6606 65.7184 21.6106 65.8784 23.0606C65.9784 23.9806 65.4084 24.7806 64.6784 25.4006C64.1184 25.8806 63.9984 26.6906 64.3784 27.3106C64.8584 28.1006 65.9384 28.2706 66.6384 27.6806C68.6884 25.9206 69.0084 24.0706 68.8584 22.7306C68.3884 18.4606 63.5784 16.0506 59.7584 15.9406C58.9184 15.9106 57.9484 15.6406 57.6284 14.8506C57.4884 14.5106 57.5084 14.1406 57.4784 13.7806C57.2784 11.2306 54.6684 8.46062 52.6284 7.14062C51.8784 6.65062 50.8684 6.97061 50.4784 7.77061C50.1484 8.46061 50.4084 9.27061 51.0484 9.69061C52.9884 10.9706 54.1684 12.8306 54.5584 15.2306C54.9984 17.9906 54.3984 20.8106 53.2384 23.3206C52.6584 24.5806 51.9484 25.8006 51.1184 26.9206C50.4084 27.8906 49.3984 28.5406 48.9384 29.7006C48.8884 29.8306 48.8384 29.9706 48.8784 30.1006C48.9484 30.3506 49.2584 30.4206 49.5184 30.4306C50.2584 30.4606 50.9984 30.3006 51.6584 29.9906C51.2784 31.4606 52.2584 32.8906 53.0684 34.1706C53.8784 35.4506 54.5284 37.1906 53.6084 38.4006C53.5684 38.4506 53.5184 38.5006 53.4784 38.5606C51.5084 39.3906 49.6084 40.5206 48.1284 42.0806C45.5784 44.7806 43.6884 47.2106 39.9584 48.4106C36.6584 49.4806 32.9884 49.3506 29.7784 48.0606C29.1584 47.8106 28.5284 47.5206 27.8584 47.5406C27.1884 47.5606 26.4784 48.0306 26.4584 48.7006C26.4484 49.0406 26.6184 49.3506 26.7684 49.6606C28.4684 53.1106 25.3484 55.3506 24.0184 58.3506C22.7684 61.1506 22.1284 64.2206 22.1284 67.2906C22.1284 70.6406 23.2784 73.0806 27.4284 77.3406C29.3084 79.2606 31.7684 80.4006 33.8384 81.0706C34.4884 81.2806 34.8984 80.3906 34.3184 80.0206C30.0484 77.3006 29.3784 74.8906 28.0784 72.4106C24.9584 66.4406 28.3684 57.3406 34.2384 52.7206C36.5084 50.9406 39.7284 51.0806 42.4684 52.0206C45.4084 53.0306 47.1484 55.1906 49.3584 57.2006C49.9584 57.7506 50.7284 58.3406 51.4984 58.1006C52.1984 57.8906 52.5484 57.0606 52.4684 56.3406C52.3884 55.6206 51.9784 54.9806 51.5884 54.3706C51.1584 53.7006 50.7284 53.0306 50.2884 52.3606C49.7184 51.4806 49.1284 50.5606 48.9484 49.5206C48.7484 48.3906 49.7484 44.4806 59.2484 42.0606C60.8584 41.6506 62.4984 41.8306 64.1184 42.2906C66.2984 42.9106 67.8584 44.5106 69.6884 45.7606C70.1984 46.1106 70.7584 46.4806 71.3784 46.5006C72.1584 46.5306 72.9184 45.9406 73.0784 45.1706C73.2984 44.1106 72.4984 43.1606 71.9684 42.2206C70.2084 39.1206 72.2584 34.9806 74.8484 33.0006C77.1684 31.2406 80.2184 30.5906 83.1084 30.8906C87.5084 31.3406 91.8484 34.2806 92.8584 38.5806C93.0884 39.5506 93.3684 40.8006 94.3584 40.9306C95.4584 41.0806 96.0484 39.6106 95.9384 38.5006C95.8284 37.3906 95.4684 36.1406 96.1584 35.2606C96.4784 34.8606 96.9584 34.6306 97.4284 34.4206C98.7784 33.8306 100.188 33.3406 101.398 32.4906C102.608 31.6506 103.618 30.3606 103.708 28.8906C103.698 28.7206 103.688 28.5206 103.658 28.3206Z" fill="#EA6363"/>
<path d="M49.5081 30.4207C50.2481 30.4507 50.9881 30.2907 51.6481 29.9807C51.2681 31.4507 52.2481 32.8807 53.0581 34.1607C53.6481 35.1007 54.4681 36.7707 53.5781 38.4807C53.5781 38.4807 54.918 37.7307 57.088 37.1007C59.258 36.4707 61.3781 36.3307 61.3781 36.3307C59.8381 36.0107 57.558 35.1407 56.858 33.9307C54.588 29.9807 54.508 17.8407 61.788 19.2207C64.038 19.6507 65.7081 21.6007 65.8681 23.0507C65.9681 23.9707 65.398 24.7707 64.668 25.3907C64.108 25.8707 63.9881 26.6807 64.3681 27.3007C64.8481 28.0907 65.9281 28.2607 66.6281 27.6707C68.6781 25.9107 68.998 24.0607 68.848 22.7207C68.378 18.4507 63.568 16.0407 59.748 15.9307C58.908 15.9007 57.9381 15.6307 57.6181 14.8407C57.4781 14.5007 57.4981 14.1307 57.4681 13.7707C57.2681 11.2207 54.6581 8.45073 52.6181 7.13073C51.8681 6.64073 50.8581 6.96073 50.4681 7.76073C50.1381 8.45073 50.398 9.26073 51.038 9.68073C52.978 10.9607 54.1581 12.8207 54.5481 15.2207C54.9881 17.9807 54.3881 20.8007 53.2281 23.3107C52.6481 24.5707 51.938 25.7907 51.108 26.9107C50.398 27.8807 49.388 28.5307 48.928 29.6907C48.878 29.8207 48.8281 29.9607 48.8681 30.0907C48.9381 30.3407 49.2481 30.4107 49.5081 30.4207Z" fill="#F07371"/>
</svg>
