<?xml version="1.0" encoding="utf-8"?>
<!-- Generator: Adobe Illustrator 25.0.0, SVG Export Plug-In . SVG Version: 6.00 Build 0)  -->
<svg version="1.1" id="Layer_1" xmlns="http://www.w3.org/2000/svg" xmlns:xlink="http://www.w3.org/1999/xlink" x="0px" y="0px"
	 viewBox="0 0 157 122" style="enable-background:new 0 0 157 122;" xml:space="preserve">
<style type="text/css">
	.st0{fill:#E06767;}
	.st1{fill:#B05353;}
	.st2{fill:#FFB3B3;}
	.st3{fill:#EA6363;}
	.st4{fill:#F07371;}
</style>
<path class="st0" d="M75.2,97.6c0,0,2.5,10.5,16.1,18.3c8.6,4.9,26.6,10,35.9,3.2c10.5-7.8,12.8-15.4,13.3-18.3
	c0.5-2.8-1-10.6-1-10.6L122.2,84c0,0-28.6,7-29.1,7C92.6,91,75.2,97.6,75.2,97.6z"/>
<path class="st1" d="M139.5,104.2c0.4-1,0.6-1.8,0.8-2.5c-3.1-0.8-6.6-2.1-9.8-3.5c0.3-0.1,0.5-0.2,0.8-0.4c1.6-0.8,3.1-1.7,4.2-3.1
	c1.2-1.5,1.8-3.4,1.7-5.3l-15-5.4c0,0-28.6,7-29.1,7c-0.5,0-17.9,6.6-17.9,6.6c-0.2,0.1,1.6,3.9,1.7,4.1c1.7,3.1,5.5,7.5,8.1,9.8
	c0,0-1.2-2.8,1.1-3.8c1-0.5,2.2-0.2,3.3,0.2c2.6,1,5.9,5,14,9.3c5.5,2.9,11.2,5.2,13.1,5.1c2.5-0.1,6.9-1.3,6.9-1.3
	s-5.7-0.5-14.8-4.8c-2.8-1.3-13-6.3-14-9.1c-0.3-0.8-1.3-2.2,0.5-3c2.7-1.2,10.2,5.2,16.6,8.2c7.6,3.5,15.9,6.3,15.9,6.3
	c0.9-0.7,1.7-1.4,2.5-2.1c-4.2-1.1-8.4-2.6-12.4-4.3c-4-1.7-7.9-4-11.5-6.5c-2.3-1.6-3.9-4.2-1.4-4.6c4.1-0.6,9.3,3.3,14.5,6
	c4.7,2.5,10.4,3.6,15.7,4.3c0.7-0.9,1.8-2.5,1.8-2.5s-2-0.3-8-1.7c-2.6-0.6-5.1-1.3-7.4-2.6c-0.6-0.3-2.7-2.5,0.2-3.5
	c2.9-1,5.6,1,10,2C136.1,104.2,139.4,104.3,139.5,104.2z"/>
<path class="st2" d="M149.5,49.8c0,0-0.3-10.7-6-20.1c-4.9-8.1-12-9-12-9s-1.4-5.1-6.3-9c-4.9-3.9-15-7.2-15-7.2
	C90.1-4.6,77.5,2.9,77.5,2.9S47.6-4.2,23.7,16.1c0,0-12.1,5.7-17,16.4C4,38.4,5.2,48.1,5.2,48.1C-3.2,57.8-0.9,73.2,8.5,81
	c4.5,3.7,10,6.1,15.8,6.7c2.3,0.2,3.4-0.3,4.4,2c1.4,3.4,2.5,6.9,5.3,9.3c2.9,2.5,6.2,4.4,9.7,5.7c6.9,2.5,14.6,2.8,21.6,0.3
	c2.3-0.8,9.7-0.9,9.7-0.9s3.9,3.2,17.8,2.7c13.9-0.5,19.7-6.5,22.9-7.6c2.4-0.9,5.4-2.7,8.1-2.2c1.5,0.3,2.9,1.1,4.2,1.7
	c3.9,1.9,8.2,2.9,12.5,2.5c16.1-1.5,17.8-20,16.2-32.8C154.9,55.5,149.5,49.8,149.5,49.8z"/>
<path class="st3" d="M30.5,75c-0.3,0.7-3.6,7.9-6.4,9.1c-4.8,2-12.2-2.8-15-4.1c-0.6-0.3-0.9,0.4-0.9,0.4c-0.5,0.6,0.7,1.8,1.3,2.2
	c2.3,1.7,8,5.5,12.1,6.5c5.4,1.3,9.4,0,9.4,0s1.5-10.8,1.6-11.3c0.1-0.5,0-4.8,0-4.8L30.5,75z"/>
<path class="st4" d="M77.5,105.4c0,0-2.7-0.4-6.9-0.4c-4.2,0.1-10,1.3-10,1.3s4.1-1.9,6-3.5c1.8-1.7,2.2-5.7,1.9-8.1
	c-0.3-2.4-1.1-3.7-7.4-5l18.8-1C73.6,92.8,72.4,101.4,77.5,105.4z"/>
<path class="st4" d="M134.3,65.8c-3.3,0.4-6.4-0.2-9.2-1.9c-1.2-0.7-1.4-2.5-0.3-3.4c0.7-0.6,1.8-0.7,2.6-0.1c4.5,3,9.2,1,11.7-0.5
	c6.3-3.9,9.4-10.9,9-18.2c1.3,2.2,2.2,4.7,2.4,7.3c0.6,6.2-3.9,11-8.9,14.1C139.1,64.6,136.7,65.5,134.3,65.8z"/>
<path class="st4" d="M148.4,71.9c-1.4,0-3-0.3-4.4-1.2c-1.5-0.9-2.3-2.2-3.1-3.7c-0.6-1.2-1.5-2-3.1-1.9c-1.1,0.1-2.2,0.7-3.3,0.6
	c1.5-2.6,3.9-4.7,6.7-5.9c1.3-0.5,2.7-0.9,4.1-0.4c0.1,0.9-0.5,1.8-0.8,2.6c-0.6,1.5-0.4,3.4,0.6,4.7c0.7,0.9,2,1.9,3.2,1.8
	c0.8-0.1,1.3-0.7,2.1-0.8c2.4-0.2,3,3.4,0.6,3.9C150.2,71.8,149.3,71.9,148.4,71.9z"/>
<path class="st4" d="M125.2,23.2c-1,0.1-1.9,0-2.4-0.8c-0.6-1.1-0.1-2.5,1.1-2.9c3.3-1.2,7-0.9,10.2,0.3c2.8,1.1,4.5,3.1,5.6,4.4
	c1.1,1.3,1.9,3.9,1.9,3.9C138.8,25.6,137.2,21.8,125.2,23.2z"/>
<path class="st4" d="M112.6,20.6c-2.8-0.1-0.1,0-0.1,0c-4.5,0-9.9-1.6-10.6-6.7c-1.3-9.3,12.5-5.7,17.5-5c0,0-4-4.1-9.2-4.4
	c-2.4-0.2-4.9-0.1-7.3,0.5c-2.6,0.7-3.9,2.7-6.3,3.6c-1.8,0.7-3.8,0.4-5.7-0.1c-1.7-0.5-7.2-3.5-7.4,0.2c0,1,0.7,1.9,1.7,2
	c4,0.6,9.5,2.4,11.6,6.2c0.9,1.7,1.2,3.9,0.6,5.8c-0.3,0.9-0.6,2.1,0.1,2.7c0.6,0.5,1.5,0.2,2-0.4c0.5-0.5,0.9-1.2,1.4-1.8
	c1.7-1.7,3.2-0.5,5,0.2c2.1,0.7,4.2,1.1,6.4,1.1c0.1,0-3.9-0.4,0.1,0C116.6,25,115.4,20.8,112.6,20.6z"/>
<path class="st4" d="M49.4,16.4c-2.2-2-3.2-9.7,3.1-13.6c0,0-3.4,0.1-6.3,2.4c-2.4,1.9-2.9,5.2-2.3,8.7c0.1,0.9-0.6,1.7-1.5,1.7
	c-3.3-0.2-6.5,0.4-9.3,1.7C32,17.7,31.6,19,32.3,20c0.5,0.8,1.6,1.1,2.5,0.7c3.1-1.4,7.7-2.2,11.4-1.3c3.7,0.9,6.3,2,9.3,7.1
	c0.5,0.9,1.6,1.2,2.4,0.6c0.6-0.4,0.9-1.2,0.6-2C55.9,18.2,52.3,19,49.4,16.4z"/>
<path class="st4" d="M57.5,40c-0.3-1.1-1.4-1.7-2.5-1.4c-3.2,0.9-7.7,0.7-9.8-1.4c-2.7-6.3-4.8-7.4-8.1-8.5
	c-1.3-0.4-2.6,0.7-2.5,2.1c0.1,0.8,0.6,1.4,1.3,1.7c2.3,0.7,4.7,3.8,5.9,7c1.1,2.9,1.2,6.7-1.3,9.5c-0.6,0.7-0.8,1.7-0.2,2.5l0,0
	c0.7,1,2.2,1.1,3,0.2c0.9-1,1.8-2.2,2.2-3.5c0.4-1.4,0.3-2.6,1.5-3.6c1.3-1.2,2.5-1,4.1-1c1.6,0,3.3-0.6,4.8-1.1
	C57.2,42.2,57.9,41.1,57.5,40z"/>
<path class="st4" d="M17.2,57.9c-0.4,0-0.9,0-1.3-0.1c-6.1-0.5-9.3-4.9-10.7-9.7s-0.2-10-0.2-10c1.8,14.2,9.2,15.6,11.3,15.8
	c3.9,0.3,7.6-1.3,8.6-3.9c1.6-4.1-3.3-8-5.7-10.5c-1.6-1.6-2.2-4.4-1.8-6.6c0.2-1.1,0.7-2.2,1.6-3c0.9-0.7,3.2-1.4,2.9,0.7
	c-0.1,0.6-0.5,1.2-0.7,1.7c-1.8,4.1,4.6,7.9,6.4,10.9c1.4,2.5,2.1,5.4,1,8.1C27,55.3,22.3,57.9,17.2,57.9z"/>
<path class="st4" d="M15.8,56.8c1.1,0.1,2.2-0.1,3.1-0.5c0.9-0.4,1.7-1.2,2.8-1.2c0.5,0,1.1,0.3,1,0.7c0,0.2,1.1,0.5,0.9,0.6
	c-2.6,1.6-9.2,3.2-4.7,15c0.4,0.9,0.1,2-0.8,2.5c-1,0.6-2.3,0.2-2.8-0.9c-1.2-2.7-1.9-5.8-1.8-8.8c0-2.9,0.3-5.5-1.6-8
	c-0.2-0.2-0.4-0.6-0.3-0.9c0.1-0.2,0.3-0.2,0.5-0.3c0.8-0.2,1.7-0.4,2.5-0.3c0.4,0.1,4.5,2.4,4.5,2.3"/>
<path class="st4" d="M133.1,75.8c-2.7-0.3-5.5-0.1-8.1,0.8c-2.2,0.8-3.8,2.5-6.3,1.9c-1.5-0.3-2.8-1.3-3.8-2.5c-2-2.6-1.7-5.3-1-8.2
	c0.7-2.9,0.7-6.2-0.6-9c-0.3-0.7-0.9-1.4-1.7-1.6c-0.8-0.3-1.7,0-2.1,0.6c-0.4,0.7-0.3,1.6-0.1,2.4c0.5,2.5,1.2,5.1,0.4,7.5
	c-0.7,2.3-1.7,4.3-3.3,6.1c-3.1,3.4-7.6,4.9-11.5,3.9c-2.9-0.7-5.2-2.7-6.8-5.8c-0.6-2.4-1.1-5.5-4.1-5.9c-0.6-0.1-1.3,0-1.7,0.4
	c-0.5,0.4-0.7,1-0.7,1.6c0,1.5,1.4,2.6,1.7,4.1c0.8,4.6-2.2,9.8-6.8,12.3c-3.6,2-13.3,3.1-22-4.3c-0.4-0.3-0.4-0.9-0.7-1.2
	c-0.2-0.2-0.5-0.3-0.8-0.4c-1.3-0.2-2.7,1-2.5,2.3c0.1,1.2,1.1,2.1,2,2.9c2.3,2.1,1.3,3,0.9,4.1c-0.1,0.3-0.3,0.6-0.3,0.9
	c-0.1,0.8,1.2,0.6,2.1,0.5c0.8-0.1,1.6-0.5,2.4-0.8c1-0.3,5.7,1.4,6.6,1.6c2.7,0.6,3.6,0.8,5.9,0.8c2.9,0,5.3,1.5,7.4-0.5
	c3-2.8,5.3-4.6,8-5.5c1.3-0.4,2.9-0.7,4,0.2c0.8,0.6,1.1,1.6,1.4,2.6c0.6,1.9,1,3.9,1.8,5.8c0.8,1.8,2.1,3.6,4,4.4
	c0.6,0.3,1.2,0.4,1.9,0.3s1.2-0.7,1.2-1.3c0-0.4-0.2-0.8-0.4-1.2c-0.9-1.4-2-2.8-2.8-4.3c-0.8-1.5-1.3-3.2-1-4.9
	c0.6-3.1,4.2-4,6.7-4.7c2.5-0.7,4.9-2.2,7.6-2c1.7,0.1,5.2,2,6.2,3.3c0.2,0.3,0.3,0.6,0.4,0.9c0.4,2.8-1.6,5.3-3.5,7.3
	c-0.3,0.4-0.7,0.9-0.4,1.3c0.1,0.1,0.3,0.2,0.4,0.3c1.4,0.5,3,0.1,4.2-0.8c2.6-2,3.5-5.4,5.7-7.7c1.8-1.9,4.3-3.2,6.8-4
	c8.9-2.9,9.3,4.1,10.9,8c1.6,3.9,3.9,1.2,4,0.1C144.6,83.5,141.3,76.8,133.1,75.8z"/>
<path class="st4" d="M49.9,96.6c-1.4-0.1-2.2-1.5-1.7-2.7c0.9-2,2.5-4,4.7-5.5c3.3-2.3,6.5-2.7,9.8-1.8l0.7,3.3
	c-2.1-0.6-5.9,0.1-8.2,1.7c-1.6,1.2-2.8,2.6-3.3,3.8C51.5,96.1,50.7,96.6,49.9,96.6z"/>
<path class="st3" d="M135,36c-0.2-1.7-1.6-3.2-3.2-3.3c-0.8,0-1.7,0.4-2,1.2c-0.1,0.4-0.1,0.7,0,1.1c0.1,2.7-2.1,5.4-4.8,5.8
	c-3.1,0.4-5.3-1.5-7.6-3c-2.2-1.5-5-2.5-7.5-3.2c-6.8-1.9-12.7-0.6-17.1,5c-1.7,2.1-3.2,4.4-5.6,5.7c-3.7,2-11.4,2.2-13.7-1.8
	c-3-5.2-3.1-21.2,6.5-19.3c3,0.6,5.2,3.1,5.4,5c0.1,1.2-0.6,2.3-1.6,3.1c-0.7,0.6-0.9,1.7-0.4,2.5c0.6,1,2.1,1.3,3,0.5
	c2.7-2.3,3.1-4.7,2.9-6.5c-0.6-5.6-6.9-8.8-12-8.9c-1.1,0-2.4-0.4-2.8-1.4c-0.2-0.4-0.2-0.9-0.2-1.4c-0.3-3.4-3.7-7-6.4-8.7
	c-1-0.6-2.3-0.2-2.8,0.8c-0.4,0.9-0.1,2,0.7,2.5c2.6,1.7,4.1,4.1,4.6,7.3c0.6,3.6-0.2,7.3-1.7,10.6C68,31,67,32.7,65.9,34.1
	c-0.9,1.3-2.3,2.1-2.9,3.7C63,38,62.9,38.1,63,38.3c0.1,0.3,0.5,0.4,0.8,0.4c1,0,1.9-0.2,2.8-0.6c-0.5,1.9,0.8,3.8,1.9,5.5
	c1.1,1.7,1.9,4,0.7,5.6c-0.1,0.1-0.1,0.1-0.2,0.2c-2.6,1.1-5.1,2.6-7,4.6c-3.4,3.6-5.8,6.7-10.7,8.3c-4.3,1.4-9.2,1.2-13.4-0.5
	c-0.8-0.3-1.6-0.7-2.5-0.7s-1.8,0.6-1.8,1.5c0,0.4,0.2,0.9,0.4,1.3c2.2,4.5-1.9,7.5-3.6,11.4c-1.6,3.7-2.5,7.7-2.5,11.8
	c0,4.4,1.5,7.6,7,13.2c2.5,2.5,5.7,4,8.4,4.9c0.9,0.3,1.4-0.9,0.6-1.4c-5.6-3.6-6.5-6.7-8.2-10c-4.1-7.9,0.4-19.8,8.1-25.9
	c3-2.3,7.2-2.2,10.8-0.9c3.9,1.3,6.2,4.2,9.1,6.8c0.8,0.7,1.8,1.5,2.8,1.2c0.9-0.3,1.4-1.4,1.3-2.3c-0.1-0.9-0.6-1.8-1.2-2.6
	c-0.6-0.9-1.1-1.8-1.7-2.6c-0.7-1.2-1.5-2.4-1.8-3.7c-0.3-1.5,1.1-6.6,13.5-9.8c2.1-0.5,4.3-0.3,6.4,0.3c2.9,0.8,4.9,2.9,7.3,4.6
	c0.7,0.5,1.4,0.9,2.2,1c1,0,2-0.7,2.2-1.7c0.3-1.4-0.8-2.6-1.5-3.9c-2.3-4.1,0.4-9.5,3.8-12.1c3.1-2.3,7.1-3.2,10.9-2.8
	c5.8,0.6,11.5,4.5,12.8,10.1c0.3,1.3,0.7,2.9,2,3.1c1.4,0.2,2.2-1.7,2.1-3.2c-0.1-1.5-0.6-3.1,0.3-4.3c0.4-0.5,1.1-0.8,1.7-1.1
	c1.8-0.8,3.6-1.4,5.2-2.5c1.6-1.1,2.9-2.8,3-4.7C135.1,36.5,135.1,36.2,135,36z"/>
<path class="st4" d="M63.8,38.7c1,0,1.9-0.2,2.8-0.6c-0.5,1.9,0.8,3.8,1.9,5.5c0.8,1.2,1.9,3.4,0.7,5.7c0,0,1.8-1,4.6-1.8
	c2.9-0.8,5.6-1,5.6-1c-2-0.4-5-1.6-5.9-3.2c-3-5.2-3.1-21.2,6.5-19.3c3,0.6,5.2,3.1,5.4,5c0.1,1.2-0.6,2.3-1.6,3.1
	c-0.7,0.6-0.9,1.7-0.4,2.5c0.6,1,2.1,1.3,3,0.5c2.7-2.3,3.1-4.7,2.9-6.5c-0.6-5.6-6.9-8.8-12-8.9c-1.1,0-2.4-0.4-2.8-1.4
	c-0.2-0.4-0.2-0.9-0.2-1.4c-0.3-3.4-3.7-7-6.4-8.7c-1-0.6-2.3-0.2-2.8,0.8c-0.4,0.9-0.1,2,0.7,2.5c2.6,1.7,4.1,4.1,4.6,7.3
	c0.6,3.6-0.2,7.3-1.7,10.6C68,31,67,32.6,65.9,34.1c-0.9,1.3-2.3,2.1-2.9,3.7c-0.1,0.2-0.1,0.4-0.1,0.5
	C63.1,38.6,63.5,38.7,63.8,38.7z"/>
</svg>
