<svg width="97" height="97" viewBox="0 0 97 97" fill="none" xmlns="http://www.w3.org/2000/svg">
<path d="M48.444 96.575C74.995 96.575 96.5188 75.0511 96.5188 48.5001C96.5188 21.9491 74.995 0.425293 48.444 0.425293C21.893 0.425293 0.369141 21.9491 0.369141 48.5001C0.369141 75.0511 21.893 96.575 48.444 96.575Z" fill="url(#paint0_radial_227_703)"/>
<path opacity="0.5" d="M48.444 96.575C74.995 96.575 96.5188 75.0511 96.5188 48.5001C96.5188 21.9491 74.995 0.425293 48.444 0.425293C21.893 0.425293 0.369141 21.9491 0.369141 48.5001C0.369141 75.0511 21.893 96.575 48.444 96.575Z" fill="url(#paint1_radial_227_703)"/>
<path d="M37.867 23.5912C37.867 21.6682 35.7938 20.4663 32.1882 20.4663C29.1535 20.4663 22.4531 22.1489 17.8559 28.0681C17.0146 29.1498 18.3066 29.7508 19.1479 29.0597C21.9723 26.6559 29.5741 23.5611 35.4934 24.2222C37.867 24.4625 37.867 23.5912 37.867 23.5912Z" fill="url(#paint2_linear_227_703)"/>
<path d="M59.02 23.5912C59.02 21.6682 61.0933 20.4663 64.6989 20.4663C67.7336 20.4663 74.434 22.1489 79.0312 28.0681C79.8725 29.1498 78.5805 29.7508 77.7392 29.0597C74.9148 26.6559 67.3129 23.5611 61.3937 24.2222C59.02 24.4625 59.02 23.5912 59.02 23.5912Z" fill="url(#paint3_linear_227_703)"/>
<path opacity="0.5" d="M9.47359 58.0251C9.47359 58.0251 5.29709 53.3078 3.94498 40.1473C3.85484 39.1558 2.53279 38.2844 1.57129 37.8037C2.14218 35.3098 2.89335 32.906 3.8248 30.5624C4.84639 30.3821 6.28863 30.1417 8.24167 29.9314C15.3928 29.1201 27.1711 29.0901 32.6397 30.7427C40.2415 33.0262 42.9757 36.2112 47.6029 36.2112V38.7051C42.1945 38.7051 46.7015 48.0496 39.2499 56.3425C33.3007 62.9828 13.2294 63.103 9.47359 58.0251Z" fill="url(#paint4_radial_227_703)"/>
<path opacity="0.5" d="M87.415 58.0251C87.415 58.0251 91.5915 53.3078 92.9436 40.1473C93.0338 39.1558 94.3558 38.2844 95.3173 37.8037C94.7464 35.3098 93.9953 32.906 93.0638 30.5624C92.0422 30.3821 90.6 30.1417 88.6469 29.9314C81.4958 29.1201 69.7175 29.0901 64.2489 30.7427C56.6471 33.0262 53.9128 36.2112 49.2856 36.2112V38.7051C54.6941 38.7051 50.187 48.0496 57.6387 56.3425C63.5879 62.9828 83.6592 63.103 87.415 58.0251Z" fill="url(#paint5_radial_227_703)"/>
<path d="M68.9963 37.1723C68.9963 37.1723 77.3794 38.0136 79.723 44.3535C79.8733 44.7441 79.9634 45.1648 79.9334 45.5854C79.9334 46.4267 79.1522 47.3281 77.6498 46.5169C68.4555 41.439 63.1372 43.8427 59.171 45.4953C57.6386 46.1563 56.2565 44.5939 56.7372 43.2117C56.8574 42.8211 56.9776 42.4005 57.1879 42.0399C60.6133 36.2709 68.9963 37.1723 68.9963 37.1723Z" fill="url(#paint6_radial_227_703)"/>
<path d="M68.8153 39.1554C68.8153 39.1554 75.6359 39.8465 79.9026 45.0746C79.8725 44.8343 79.8124 44.5939 79.7223 44.3535C77.3786 38.0136 68.9956 37.1723 68.9956 37.1723C68.9956 37.1723 60.6125 36.2709 57.1872 42.0399C57.067 42.2502 56.9468 42.4906 56.8867 42.731C61.9646 38.4343 68.8153 39.1554 68.8153 39.1554Z" fill="url(#paint7_linear_227_703)"/>
<path d="M27.892 37.1723C27.892 37.1723 19.509 38.0136 17.1653 44.3535C17.0151 44.7441 16.9249 45.1648 16.955 45.5854C16.955 46.4267 17.7362 47.3281 19.2385 46.5169C28.4328 41.439 33.7511 43.8427 37.7173 45.4953C39.2497 46.1563 40.6318 44.5939 40.1511 43.2117C40.0309 42.8211 39.9107 42.4005 39.7004 42.0399C36.275 36.2709 27.892 37.1723 27.892 37.1723Z" fill="url(#paint8_radial_227_703)"/>
<path d="M28.0721 39.1554C28.0721 39.1554 21.2515 39.8465 16.9849 45.0746C17.0149 44.8343 17.075 44.5939 17.1651 44.3535C19.5088 38.0136 27.8918 37.1723 27.8918 37.1723C27.8918 37.1723 36.2749 36.2709 39.7002 42.0399C39.8204 42.2502 39.9406 42.4906 40.0007 42.731C34.9228 38.4343 28.0721 39.1554 28.0721 39.1554Z" fill="url(#paint9_linear_227_703)"/>
<path d="M69.6871 64.966C69.2965 64.9059 68.8758 65.0261 68.6054 65.2965C63.4374 70.134 55.4749 72.7481 49.4656 72.7481H48.444H47.4224C41.4131 72.7481 33.4507 70.134 28.2826 65.2965C27.9821 65.0261 27.5915 64.9059 27.2009 64.966C26.7803 65.0561 26.5699 65.5068 26.7803 65.8674C31.1971 73.4993 39.3398 78.2166 48.2036 78.2166H48.474H48.7445C57.6083 78.2166 65.751 73.4993 70.1678 65.8674C70.3181 65.5068 70.1077 65.0561 69.6871 64.966Z" fill="#643800"/>
<path d="M69.6871 64.966C69.2965 64.9059 68.8758 65.0261 68.6054 65.2965C63.4374 70.134 55.4749 72.7481 49.4656 72.7481H48.444H47.4224C41.4131 72.7481 33.4507 70.134 28.2826 65.2965C27.9821 65.0261 27.5915 64.9059 27.2009 64.966C26.7803 65.0561 26.5699 65.5068 26.7803 65.8674C26.8103 65.9575 26.8704 66.0176 26.9305 66.0777C27.3512 65.8373 27.8019 65.597 28.2526 66.1077C33.1502 71.6063 40.4215 74.9114 48.2036 74.9114H48.474H48.7445C56.5867 74.9114 63.8881 71.5762 68.7857 65.9876C69.2364 65.4768 69.657 65.7171 70.0476 65.9876C70.0777 65.9275 70.1077 65.8974 70.1378 65.8373C70.3181 65.5068 70.1077 65.0561 69.6871 64.966Z" fill="url(#paint10_linear_227_703)"/>
<path d="M25.2176 29.9016C19.088 29.4509 11.9068 28.88 10.4947 33.6575C9.08245 38.4349 10.0139 45.6461 13.289 51.0245C16.5641 56.4029 29.5443 56.1024 34.2316 53.248C40.4813 49.4621 41.0222 43.0621 41.2025 39.1861C41.4128 34.0481 34.6523 30.5626 25.2176 29.9016Z" fill="url(#paint11_linear_227_703)"/>
<path d="M71.5497 29.9016C77.6793 29.4509 84.8604 28.88 86.2726 33.6575C87.6848 38.4349 86.7534 45.6461 83.4783 51.0245C80.2032 56.4029 67.223 56.1024 62.5357 53.248C56.286 49.4621 55.7451 43.0621 55.5648 39.1861C55.3545 34.0481 62.115 30.5626 71.5497 29.9016Z" fill="url(#paint12_linear_227_703)"/>
<path d="M94.5359 28.1888C94.5359 28.1888 93.0035 27.5879 87.7453 26.987C80.5942 26.1757 68.8159 26.1457 63.3473 27.7982C55.7455 30.0818 53.0112 33.2667 48.384 33.2667C43.7568 33.2667 41.0226 30.0818 33.3907 27.7682C27.9522 26.1156 16.1739 26.1457 8.99272 26.9569C3.76458 27.5579 2.20215 28.1588 2.20215 28.1588C2.20215 28.6696 2.20215 29.2705 2.2322 29.9315C2.2322 29.9315 5.47725 30.4724 5.50729 30.7729C5.50729 30.9231 2.32234 31.2236 2.32234 31.2236C2.38243 31.7644 2.47257 32.3353 2.59276 32.9362L3.85472 33.5372C4.84626 33.9879 5.50729 34.9494 5.59743 36.031C6.94954 49.1915 11.126 54.5098 11.126 54.5098C14.8819 59.5576 32.5494 61.2703 38.4987 54.63C45.9503 46.307 42.9456 38.7953 48.354 38.7953C53.7624 38.7953 50.7577 46.3371 58.2093 54.63C64.1586 61.2703 81.8261 59.5576 85.582 54.5098C85.582 54.5098 89.7585 49.1915 91.1106 36.031C91.2307 34.9494 91.8918 33.9879 92.8533 33.5372L94.1152 32.9362C94.2354 32.3353 94.3256 31.7644 94.3857 31.2236C94.3857 31.2236 91.411 30.9231 91.4411 30.7729C91.4711 30.4724 94.5058 29.9315 94.5058 29.9315C94.5659 29.2705 94.5659 28.6696 94.5359 28.1888ZM34.232 53.2178C29.5447 56.0722 16.5946 56.3727 13.2894 50.9943C10.0143 45.646 9.08286 38.4047 10.4951 33.6273C11.9073 28.8499 19.0884 29.4508 25.218 29.8715C34.6527 30.5625 41.4132 34.0479 41.2029 39.1559C41.0226 43.0319 40.4817 49.4319 34.232 53.2178ZM83.4486 50.9943C80.1735 56.3426 67.1933 56.0722 62.506 53.2178C56.2563 49.4319 55.7155 43.0319 55.5352 39.1559C55.3248 34.0479 62.0854 30.5625 71.5201 29.8715C77.6496 29.4207 84.8308 28.8499 86.243 33.6273C87.6552 38.4348 86.7538 45.646 83.4486 50.9943Z" fill="url(#paint13_linear_227_703)"/>
<path d="M25.2176 29.9016C19.088 29.4509 11.9068 28.88 10.4947 33.6575C9.08245 38.4349 10.0139 45.6461 13.289 51.0245C16.5641 56.4029 29.5443 56.1024 34.2316 53.248C40.4813 49.4621 41.0222 43.0621 41.2025 39.1861C41.4128 34.0481 34.6523 30.5626 25.2176 29.9016Z" fill="url(#paint14_linear_227_703)"/>
<path d="M34.2327 53.2183C29.5454 56.0728 16.5953 56.3733 13.2901 50.9949C10.5258 46.4879 9.44413 40.6588 10.015 36.0917C10.015 36.1217 9.98497 36.1217 9.98497 36.1518C9.47418 41.0794 10.3756 46.8785 13.0798 51.6559C16.415 57.5451 29.6055 57.2146 34.383 54.0897C39.2806 50.8747 40.5425 46.3076 40.9332 42.2813C40.4524 45.947 38.9801 50.3339 34.2327 53.2183Z" fill="url(#paint15_linear_227_703)"/>
<path opacity="0.75" d="M51.3589 38.7953C51.4491 37.2329 51.8096 35.6705 52.4406 34.2583L53.4321 32.0048C51.7796 32.7559 50.2171 33.2667 48.3843 33.2667C46.5514 33.2667 44.989 32.7559 43.3364 32.0048L44.328 34.2583C44.959 35.7005 45.3195 37.2329 45.4097 38.7953L45.4998 40.2376C46.1007 39.3061 46.942 38.7653 48.3843 38.7653C49.8265 38.7653 50.6678 39.3061 51.2688 40.2376L51.3589 38.7953Z" fill="url(#paint16_radial_227_703)"/>
<path opacity="0.75" d="M10.4951 34.2885C11.9073 29.511 19.0885 30.112 25.218 30.5326C34.3222 31.1936 40.9325 34.4387 41.2029 39.2762C41.2029 39.2462 41.2029 39.1861 41.2029 39.156C41.4133 34.0481 34.6527 30.5627 25.218 29.8716C19.0885 29.4209 11.9073 28.85 10.4951 33.6274C10.0444 35.1899 9.8341 36.9927 9.86415 38.9157C9.89419 37.233 10.1045 35.6706 10.4951 34.2885Z" fill="black"/>
<path d="M2.23242 29.9319C2.26247 30.3225 2.29252 30.7732 2.35261 31.2239H7.13004C7.85116 31.2239 8.42205 30.653 8.42205 29.9319H2.23242Z" fill="url(#paint17_linear_227_703)"/>
<path d="M71.5497 29.9016C77.6793 29.4509 84.8604 28.88 86.2726 33.6575C87.6848 38.4349 86.7534 45.6461 83.4783 51.0245C80.2032 56.4029 67.223 56.1024 62.5357 53.248C56.286 49.4621 55.7451 43.0621 55.5648 39.1861C55.3545 34.0481 62.115 30.5626 71.5497 29.9016Z" fill="url(#paint18_linear_227_703)"/>
<path d="M62.5056 53.2183C67.1929 56.0728 80.143 56.3733 83.4482 50.9949C86.2125 46.4879 87.2942 40.6588 86.7233 36.0917C86.7233 36.1217 86.7533 36.1217 86.7533 36.1518C87.2641 41.0794 86.3627 46.8785 83.6585 51.6559C80.3233 57.5451 67.1328 57.2146 62.3554 54.0897C57.4577 50.8747 56.1958 46.3076 55.8052 42.2813C56.316 45.947 57.7582 50.3339 62.5056 53.2183Z" fill="url(#paint19_linear_227_703)"/>
<path opacity="0.75" d="M86.2433 34.2885C84.8311 29.511 77.65 30.112 71.5204 30.5326C62.4162 31.1936 55.806 34.4387 55.5355 39.2762C55.5355 39.2462 55.5355 39.1861 55.5355 39.156C55.3252 34.0481 62.0857 30.5627 71.5204 29.8716C77.65 29.4209 84.8311 28.85 86.2433 33.6274C86.694 35.1899 86.9044 36.9927 86.8743 38.9157C86.8743 37.233 86.664 35.6706 86.2433 34.2885Z" fill="black"/>
<path d="M94.5358 29.932C94.5058 30.3226 94.4757 30.7733 94.4156 31.224H89.6382C88.9171 31.224 88.3462 30.6531 88.3462 29.932H94.5358Z" fill="url(#paint20_linear_227_703)"/>
<path opacity="0.5" d="M71.5507 29.9014C77.6802 29.4507 84.8614 28.8798 86.2736 33.6572C87.6858 38.4347 86.7544 45.6459 83.4793 51.0243C80.2042 56.4026 67.224 56.1022 62.5367 53.2477C56.2869 49.4618 55.7461 43.0619 55.5658 39.1858C55.3555 34.0478 62.116 30.5624 71.5507 29.9014Z" fill="url(#paint21_radial_227_703)"/>
<path opacity="0.5" d="M25.248 30.9825C19.3588 30.5619 12.4781 29.991 11.126 34.5881C9.77392 39.1853 10.6753 46.096 13.8302 51.2641C16.9851 56.4321 29.4245 56.1316 33.9315 53.3974C39.9108 49.7617 40.4517 43.6021 40.6019 39.9064C40.7822 34.9787 34.2621 31.6435 25.248 30.9825Z" fill="url(#paint22_radial_227_703)"/>
<path d="M44.4478 34.2583L43.4563 32.0048C40.9324 30.863 38.108 29.1503 33.5108 27.7682C28.0723 26.1156 16.294 26.1457 9.11284 26.9569C3.8847 27.5579 2.32227 28.1588 2.32227 28.1588C2.32227 28.6696 2.32227 29.2705 2.35231 29.9315C13.5297 28.9701 27.0508 26.7466 42.9755 34.078C43.3962 34.2883 43.937 34.3484 44.4779 34.3184C44.4779 34.2883 44.4478 34.2583 44.4478 34.2583Z" fill="url(#paint23_radial_227_703)"/>
<path d="M52.5605 34.2583L53.5521 32.0048C56.076 30.863 58.9004 29.1503 63.4976 27.7682C68.936 26.1156 80.7144 26.1457 87.8955 26.9569C93.1237 27.5578 94.6861 28.1588 94.6861 28.1588C94.7162 28.6696 94.7462 29.2405 94.7162 29.9015C83.5388 28.94 70.0177 26.7165 54.0929 34.0479C53.6723 34.2583 53.1314 34.3184 52.5906 34.2883C52.5605 34.2883 52.5605 34.2583 52.5605 34.2583Z" fill="url(#paint24_radial_227_703)"/>
<defs>
<radialGradient id="paint0_radial_227_703" cx="0" cy="0" r="1" gradientUnits="userSpaceOnUse" gradientTransform="translate(38.9852 29.017) scale(57.996)">
<stop stop-color="#FFE030"/>
<stop offset="1" stop-color="#FFB92E"/>
</radialGradient>
<radialGradient id="paint1_radial_227_703" cx="0" cy="0" r="1" gradientUnits="userSpaceOnUse" gradientTransform="translate(38.9852 29.017) scale(45.6281)">
<stop stop-color="#FFEA5F"/>
<stop offset="1" stop-color="#FFBC47" stop-opacity="0"/>
</radialGradient>
<linearGradient id="paint2_linear_227_703" x1="27.7295" y1="26.8134" x2="27.7295" y2="21.7477" gradientUnits="userSpaceOnUse">
<stop offset="0.00132565" stop-color="#3C2200"/>
<stop offset="1" stop-color="#7A4400"/>
</linearGradient>
<linearGradient id="paint3_linear_227_703" x1="69.1575" y1="26.8134" x2="69.1575" y2="21.7477" gradientUnits="userSpaceOnUse">
<stop offset="0.00132565" stop-color="#3C2200"/>
<stop offset="1" stop-color="#7A4400"/>
</linearGradient>
<radialGradient id="paint4_radial_227_703" cx="0" cy="0" r="1" gradientUnits="userSpaceOnUse" gradientTransform="translate(6.40092 38.7172) rotate(180) scale(48.5265)">
<stop stop-color="#7A4400" stop-opacity="0.5"/>
<stop offset="0.5833" stop-color="#894D00" stop-opacity="0.2069"/>
<stop offset="0.995" stop-color="#975500" stop-opacity="0"/>
</radialGradient>
<radialGradient id="paint5_radial_227_703" cx="0" cy="0" r="1" gradientUnits="userSpaceOnUse" gradientTransform="translate(90.4877 38.7172) scale(48.5265)">
<stop stop-color="#7A4400" stop-opacity="0.5"/>
<stop offset="0.5833" stop-color="#894D00" stop-opacity="0.2069"/>
<stop offset="0.995" stop-color="#975500" stop-opacity="0"/>
</radialGradient>
<radialGradient id="paint6_radial_227_703" cx="0" cy="0" r="1" gradientUnits="userSpaceOnUse" gradientTransform="translate(68.5419 41.9057) rotate(5.86799) scale(9.06114 4.3717)">
<stop offset="0.00132565" stop-color="#7A4400"/>
<stop offset="1" stop-color="#643800"/>
</radialGradient>
<linearGradient id="paint7_linear_227_703" x1="69.288" y1="34.5255" x2="68.7228" y2="40.3525" gradientUnits="userSpaceOnUse">
<stop offset="0.00132565" stop-color="#3C2200"/>
<stop offset="1" stop-color="#512D00"/>
</linearGradient>
<radialGradient id="paint8_radial_227_703" cx="0" cy="0" r="1" gradientUnits="userSpaceOnUse" gradientTransform="translate(28.4134 41.9046) rotate(174.132) scale(9.06112 4.3717)">
<stop offset="0.00132565" stop-color="#7A4400"/>
<stop offset="1" stop-color="#643800"/>
</radialGradient>
<linearGradient id="paint9_linear_227_703" x1="27.635" y1="34.529" x2="28.2002" y2="40.356" gradientUnits="userSpaceOnUse">
<stop offset="0.00132565" stop-color="#3C2200"/>
<stop offset="1" stop-color="#512D00"/>
</linearGradient>
<linearGradient id="paint10_linear_227_703" x1="48.444" y1="68.3642" x2="48.444" y2="75.5411" gradientUnits="userSpaceOnUse">
<stop offset="0.00132565" stop-color="#3C2200"/>
<stop offset="1" stop-color="#512D00"/>
</linearGradient>
<linearGradient id="paint11_linear_227_703" x1="25.534" y1="82.8632" x2="25.534" y2="38.3917" gradientUnits="userSpaceOnUse">
<stop stop-color="#8800C7"/>
<stop offset="1" stop-color="#7000A3" stop-opacity="0"/>
</linearGradient>
<linearGradient id="paint12_linear_227_703" x1="71.224" y1="82.8632" x2="71.224" y2="38.3917" gradientUnits="userSpaceOnUse">
<stop stop-color="#8800C7"/>
<stop offset="1" stop-color="#7000A3" stop-opacity="0"/>
</linearGradient>
<linearGradient id="paint13_linear_227_703" x1="48.3794" y1="43.7779" x2="48.3794" y2="10.4347" gradientUnits="userSpaceOnUse">
<stop stop-color="#242424"/>
<stop offset="1" stop-color="#8EA5A8"/>
</linearGradient>
<linearGradient id="paint14_linear_227_703" x1="8.7599" y1="13.9423" x2="42.4457" y2="69.0645" gradientUnits="userSpaceOnUse">
<stop/>
<stop offset="1" stop-opacity="0.5"/>
</linearGradient>
<linearGradient id="paint15_linear_227_703" x1="25.3953" y1="42.9725" x2="25.3953" y2="68.4568" gradientUnits="userSpaceOnUse">
<stop/>
<stop offset="1" stop-color="#8EA5A8"/>
</linearGradient>
<radialGradient id="paint16_radial_227_703" cx="0" cy="0" r="1" gradientUnits="userSpaceOnUse" gradientTransform="translate(48.323 35.1597) scale(5.67799 3.46988)">
<stop offset="0.0158651" stop-color="#8EA5A8" stop-opacity="0.25"/>
<stop offset="1" stop-color="#8EA5A8" stop-opacity="0"/>
</radialGradient>
<linearGradient id="paint17_linear_227_703" x1="8.68607" y1="30.5618" x2="2.78937" y2="30.5618" gradientUnits="userSpaceOnUse">
<stop stop-color="white"/>
<stop offset="1" stop-color="#FFBF00"/>
</linearGradient>
<linearGradient id="paint18_linear_227_703" x1="53.4452" y1="12.4512" x2="91.4828" y2="70.6358" gradientUnits="userSpaceOnUse">
<stop/>
<stop offset="1" stop-opacity="0.5"/>
</linearGradient>
<linearGradient id="paint19_linear_227_703" x1="71.3637" y1="42.9725" x2="71.3637" y2="68.4568" gradientUnits="userSpaceOnUse">
<stop/>
<stop offset="1" stop-color="#8EA5A8"/>
</linearGradient>
<linearGradient id="paint20_linear_227_703" x1="88.0728" y1="30.5619" x2="93.9696" y2="30.5619" gradientUnits="userSpaceOnUse">
<stop stop-color="white"/>
<stop offset="1" stop-color="#FFBF00"/>
</linearGradient>
<radialGradient id="paint21_radial_227_703" cx="0" cy="0" r="1" gradientUnits="userSpaceOnUse" gradientTransform="translate(71.7532 37.3704) rotate(180) scale(16.5954 5.77774)">
<stop stop-color="white" stop-opacity="0.24"/>
<stop offset="1" stop-color="white" stop-opacity="0"/>
</radialGradient>
<radialGradient id="paint22_radial_227_703" cx="0" cy="0" r="1" gradientUnits="userSpaceOnUse" gradientTransform="translate(25.9976 38.1743) scale(15.9144 5.5402)">
<stop stop-color="white" stop-opacity="0.24"/>
<stop offset="1" stop-color="white" stop-opacity="0"/>
</radialGradient>
<radialGradient id="paint23_radial_227_703" cx="0" cy="0" r="1" gradientUnits="userSpaceOnUse" gradientTransform="translate(19.9809 82.0149) scale(94.8562 56.4016)">
<stop offset="0.9647" stop-color="#8EA5A8" stop-opacity="0"/>
<stop offset="1" stop-color="#8EA5A8"/>
</radialGradient>
<radialGradient id="paint24_radial_227_703" cx="0" cy="0" r="1" gradientUnits="userSpaceOnUse" gradientTransform="translate(77.0339 82.015) rotate(180) scale(94.8562 56.4014)">
<stop offset="0.9647" stop-color="#8EA5A8" stop-opacity="0"/>
<stop offset="1" stop-color="#8EA5A8"/>
</radialGradient>
</defs>
</svg>
