<svg width="119" height="133" viewBox="0 0 119 133" fill="none" xmlns="http://www.w3.org/2000/svg">
<path d="M114.648 68.7806C111.498 66.062 99.9233 63.1224 90.7408 73.7663C87.1677 77.9067 84.2477 76.5042 82.3363 74.5925C81.0684 73.3244 77.6586 61.3068 79.6373 54.5054L62.7898 53.6985C62.4824 56.494 60.1868 59.9523 59.1783 60.0291C58.1697 60.106 57.3436 57.6756 57.1708 55.2835C56.9979 52.9012 42.2059 63.8621 41.3127 64.2944C40.7267 64.5826 34.8676 64.8804 30.0554 66.7825C19.0959 64.3712 10.0959 62.767 7.12791 62.5268C4.81307 70.1735 4.5249 80.6638 4.5249 85.9857C5.46621 113.652 15.542 130.723 44.8858 131.972C45.779 132.02 46.6724 132.068 47.556 132.068C47.8346 132.068 48.0843 132.097 48.3725 132.097C51.888 132.097 55.096 131.664 58.0448 130.925C65.7578 129.244 72.5102 125.795 76.5924 121.049C87.1389 108.83 87.5519 101.097 96.6288 91.0483C104.313 82.5466 114.187 83.8531 117.933 79.511C121.083 75.8798 116.425 70.308 114.648 68.7806Z" fill="url(#paint0_linear_206_1434)"/>
<path d="M117.933 79.5207C119.643 77.5418 119.047 74.9865 117.866 72.825C113.966 81.5861 103.055 75.438 82.6055 99.1467C62.1561 122.846 42.4079 117.841 35.6747 114.094C28.9414 110.348 24.2733 97.6193 21.1421 81.8935C20.1815 77.0615 18.395 71.4321 16.0898 65.7739C12.7856 67.7721 7.01287 77.782 8.78021 81.2403C12.6223 88.7237 7.13773 111.501 20.9307 123.413C36.8945 137.188 66.0462 133.288 76.5926 121.069C87.1391 108.849 87.5521 101.116 96.629 91.0677C104.313 82.5564 114.197 83.8629 117.933 79.5207Z" fill="url(#paint1_linear_206_1434)"/>
<path d="M60.936 56.6096C60.9745 55.8603 61.0129 55.0533 61.0417 54.1887C61.5796 40.048 61.5027 11.5457 62.1463 7.7992C62.8283 3.82213 65.0086 0.882544 70.7237 0.872938C76.4292 0.863331 79.2243 6.22373 78.5519 13.4478C77.8795 20.6718 79.3299 47.6564 79.7622 56.7441C80.4345 70.8175 82.711 92.6338 82.711 92.6338L61.522 78.1376L60.936 56.6096Z" fill="url(#paint2_linear_206_1434)"/>
<path d="M64.1058 32.7278C63.7023 18.174 63.2029 8.13529 65.2007 2.36182C63.443 3.60105 62.5305 5.52235 62.1463 7.79907C61.5028 11.5456 61.5892 40.0383 61.0417 54.1886C61.0129 55.0532 60.9745 55.8601 60.936 56.6094L61.1378 64.1409L62.1559 66.4752C62.1559 66.4752 64.6532 52.3345 64.1058 32.7278Z" fill="url(#paint3_linear_206_1434)"/>
<path d="M6.34061 20.5951C-1.70856 22.1802 -0.383043 30.24 1.173 37.9059C2.84431 46.1194 7.43559 77.2923 7.43559 77.2923L26.2522 78.4643C26.2522 78.4643 26.7421 75.6592 26.0313 71.6437C23.9181 59.7702 18.7985 35.5139 16.8871 28.0017C14.3897 18.1743 6.34061 20.5951 6.34061 20.5951Z" fill="url(#paint4_linear_206_1434)"/>
<path d="M26.0406 71.6536C23.9274 59.7801 18.808 35.5238 16.8966 28.0115C15.523 22.6127 12.4783 20.9124 10.0098 20.4801C16.2722 25.2833 18.9424 49.847 22.3522 60.3276C25.2241 69.1656 26.0982 72.816 26.3383 73.9976C26.2711 73.2675 26.1846 72.4894 26.0406 71.6536Z" fill="url(#paint5_linear_206_1434)"/>
<path d="M4.53467 85.9857C4.53467 90.5391 6.74384 92.5853 7.83883 93.325C8.20383 93.5748 8.45358 93.6708 8.45358 93.6708L29.0278 108.734L66.6896 100.924L62.6554 66.6672C57.0076 65.9371 51.8401 65.4279 46.8646 65.0341C46.6245 65.0148 43.7525 56.7341 43.5124 56.7149C43.2627 56.6957 42.1196 64.3808 41.8699 64.3616C29.5369 63.4394 21.7663 63.7468 7.12806 62.5364C4.81322 70.1735 4.53467 80.6733 4.53467 85.9857Z" fill="url(#paint6_linear_206_1434)"/>
<path opacity="0.5" d="M3.9297 30.8928C2.05668 30.4893 2.74826 26.7428 4.34273 24.8696C5.93719 22.9867 8.75151 21.7955 10.6245 22.1893C12.4976 22.5928 11.7772 24.8888 11.1624 26.9157C10.1059 30.4125 5.81232 31.2867 3.9297 30.8928Z" fill="url(#paint7_radial_206_1434)"/>
<path opacity="0.5" d="M67.4771 3.32238C68.0823 1.49715 71.7322 2.6019 73.4227 4.39831C75.1132 6.1851 75.9969 9.11507 75.4014 10.9403C74.7963 12.7655 72.5871 11.7953 70.6468 10.9595C67.285 9.51854 66.8816 5.1476 67.4771 3.32238Z" fill="url(#paint8_radial_206_1434)"/>
<g opacity="0.5">
<path opacity="0.75" d="M10.442 86.9659C7.49317 90.5587 16.4548 111.232 25.3011 116.438C34.1379 121.645 45.2222 120.05 47.3834 115.91C49.5445 111.77 40.3524 105.343 32.8316 98.215C19.855 85.9284 13.3907 83.3827 10.442 86.9659Z" fill="url(#paint9_radial_206_1434)"/>
</g>
<path d="M9.48142 98.2536C3.6991 88.0708 8.58813 70.4814 7.50274 67.0327C6.41736 63.5839 6.77274 50.5192 3.87198 38.7225C2.10463 31.5561 1.4803 26.5127 2.75779 22.1226C-1.19954 25.1774 -0.0853541 31.681 1.18253 37.9155C2.2487 43.1415 4.48671 57.628 5.98512 67.5034C4.73645 74.2567 4.54434 81.7593 4.54434 85.9958C5.42802 111.885 14.3032 128.485 39.4688 131.55C24.0141 128.879 14.8891 107.783 9.48142 98.2536Z" fill="url(#paint10_linear_206_1434)"/>
<path d="M45.2412 131.992C44.5304 131.887 43.7044 131.819 42.6959 131.819C41.7066 131.819 40.7557 131.723 39.8145 131.579C41.5433 131.781 43.3586 131.915 45.2412 131.992Z" fill="url(#paint11_linear_206_1434)"/>
<path d="M117.866 72.835C116.867 71.0194 115.465 69.4824 114.658 68.7811C111.507 66.0625 99.9331 63.1229 90.7506 73.7668C87.1775 77.9072 81.28 77.6575 80.5692 69.1077C80.233 64.804 79.9353 60.5003 79.7624 56.7346C79.3301 47.6469 77.8797 20.6624 78.5521 13.4384C78.9843 8.74085 77.9374 4.86946 75.5938 2.70801C77.5916 8.99062 76.7752 18.3185 77.3611 43.0743C77.6973 57.532 77.8317 62.6906 78.5233 69.1846C80.5788 87.2159 88.2629 82.2397 93.7378 77.6767C99.2127 73.1232 104.015 64.9481 114.225 70.981C117.693 73.0368 117.923 73.8437 117.866 72.835Z" fill="url(#paint12_linear_206_1434)"/>
<path d="M54.8847 81.8548C63.6157 81.6339 64.8548 73.0553 63.0682 55.2258L62.684 51.3832L44.0502 65.9177L25.9157 68.6556L23.3704 58.8858C23.3031 58.8858 23.4376 58.8858 23.3704 58.8858C23.3704 58.8858 19.73 86.8406 36.8175 85.121C36.8175 85.121 36.0011 85.2747 36.8175 85.121C44.7033 83.632 44.6168 72.7959 44.6168 72.7959C44.6168 72.7959 47.3351 82.047 54.8847 81.8548Z" fill="url(#paint13_linear_206_1434)"/>
<path d="M35.6935 84.1694C29.0084 84.1694 25.6754 80.9993 24.7437 71.9692C23.812 62.9392 19.797 46.7331 32.0628 45.8012C43.0799 44.9655 44.05 52.8236 44.05 65.9171C44.05 79.0107 41.447 84.1694 35.6935 84.1694Z" fill="url(#paint14_linear_206_1434)"/>
<path d="M34.8097 70.2307C29.7093 73.3912 26.2707 73.4488 24.0903 69.1452C24.1384 69.6351 24.196 70.1154 24.2344 70.5765C25.1661 80.8458 28.4991 84.4482 35.1843 84.4482C39.8812 84.4482 42.4746 80.5288 43.2718 70.98C41.9559 68.2037 37.8257 68.367 34.8097 70.2307Z" fill="url(#paint15_linear_206_1434)"/>
<path d="M34.7622 74.0925C29.2776 74.0925 26.8091 70.5478 25.887 63.2757C25.4067 59.5388 22.2946 46.4933 32.3609 45.792C42.0141 45.1195 42.0141 53.7749 42.2158 61.1239C42.4944 71.7005 39.4879 74.0925 34.7622 74.0925Z" fill="url(#paint16_linear_206_1434)"/>
<path d="M31.707 83.6319C32.8789 83.9873 34.1948 84.1699 35.6932 84.1699C41.4468 84.1699 44.0402 79.0112 44.0402 65.9176C44.0402 53.2947 43.2718 45.5135 33.2535 45.7729C37.403 48.4435 40.784 54.5244 40.784 65.5237C40.7936 81.163 37.5374 83.6031 31.707 83.6319Z" fill="url(#paint17_linear_206_1434)"/>
<path d="M37.5951 46.2915C39.1223 46.7622 40.4862 47.7517 41.3987 49.0774C42.3208 50.3934 42.8971 51.9305 43.2621 53.4867C43.9729 56.6184 44.117 59.8269 44.213 63.0067C44.2514 66.196 44.4147 69.3757 44.1554 72.5843C43.8384 75.7448 43.2141 79.059 41.2162 81.7296C39.2664 84.5634 35.3571 85.2551 32.2738 84.4194C30.6794 84.0351 29.1617 83.2282 28.0091 82.037C26.8373 80.865 26.0593 79.3856 25.483 77.8774C24.3592 74.8322 24.0422 71.5948 23.8597 68.4247C23.6484 65.245 23.341 62.0748 23.3602 58.8759C23.8501 62.0364 24.023 65.2161 24.2919 68.3863C24.5128 71.5564 24.8778 74.7361 26.0017 77.6757C27.0678 80.596 29.325 83.1609 32.4083 83.7949C35.3763 84.5634 38.863 83.9102 40.6591 81.3165C42.5609 78.8669 43.2429 75.6487 43.5983 72.5458C43.8961 69.4045 43.7808 66.2056 43.7904 63.0259C43.7424 59.8461 43.6367 56.6568 42.9836 53.554C42.6666 52.0073 42.1479 50.4799 41.2835 49.1638C40.4286 47.8381 39.1127 46.8103 37.5951 46.2915Z" fill="#975500"/>
<path d="M55.0864 80.4424C48.7086 80.1926 44.6649 76.033 44.5496 67.1374C44.4536 59.6348 40.8517 43.179 52.5795 42.7851C63.8366 42.4009 63.8462 50.0956 63.5196 62.901C63.193 75.7064 60.5805 80.6537 55.0864 80.4424Z" fill="url(#paint18_linear_206_1434)"/>
<path d="M54.5965 66.6088C49.6402 69.4811 46.3649 69.4235 44.3862 65.1582C44.4247 65.6289 44.463 66.1092 44.4918 66.5511C45.1258 76.5515 48.2187 80.1731 54.6061 80.4229C59.0917 80.5958 62.2614 76.9934 63.2507 67.7519C62.0597 65.0045 57.5164 64.9181 54.5965 66.6088Z" fill="url(#paint19_linear_206_1434)"/>
<path d="M54.1356 67.339C48.9008 67.1373 46.9509 66.6185 46.2402 59.529C45.8752 55.8786 43.2241 43.102 52.8581 42.785C62.0887 42.4872 61.8774 50.8928 61.887 58.04C61.8966 68.3189 58.6501 67.5215 54.1356 67.339Z" fill="url(#paint20_linear_206_1434)"/>
<path d="M51.2925 79.7699C52.4067 80.1542 53.6554 80.3848 55.0866 80.4424C60.5808 80.6537 63.1934 75.7064 63.52 62.901C63.837 50.5568 63.7986 42.9869 53.7226 42.7948C57.6127 45.5615 60.6961 51.6327 60.4175 62.3919C60.0237 77.695 56.8635 79.9525 51.2925 79.7699Z" fill="url(#paint21_linear_206_1434)"/>
<path d="M57.8531 43.4674C59.2843 43.9765 60.6386 44.8219 61.5703 46.0611C62.5117 47.2908 63.0207 48.799 63.3281 50.2976C63.8852 53.3332 63.8276 56.4073 63.818 59.4525C63.7795 62.4978 63.7411 65.5622 63.4434 68.6171C63.1072 71.6431 62.6653 74.7748 61.0805 77.5319C60.2832 78.896 58.9769 80.0392 57.4208 80.4714C55.8552 80.9229 54.2607 80.7308 52.7431 80.4618C51.2159 80.1544 49.7271 79.53 48.5168 78.5117C47.2969 77.503 46.4132 76.1581 45.8273 74.7268C44.6747 71.8352 44.4153 68.7131 44.3193 65.6775L43.9639 56.5322L44.6362 65.6583C44.7995 68.6939 45.0781 71.7584 46.2403 74.5539C47.3449 77.3782 49.8807 79.4435 52.8583 79.9046C54.3183 80.1544 55.8744 80.2985 57.248 79.8662C58.6407 79.4628 59.7741 78.4445 60.5041 77.1668C62.0218 74.6211 62.5212 71.5374 62.8862 68.5498C63.232 65.5334 63.2993 62.4882 63.3761 59.4429C63.4337 56.4073 63.501 53.3428 63.0111 50.3552C62.771 48.8662 62.3291 47.3868 61.4454 46.1572C60.5714 44.918 59.2747 44.0246 57.8531 43.4674Z" fill="#975500"/>
<path d="M63.7216 61.3447C63.7216 61.3447 63.6255 61.3255 63.5775 61.3159C64.442 75.0147 62.5594 81.6624 54.8848 81.8545C47.3352 82.0466 44.6073 72.786 44.6073 72.786C44.6073 72.786 44.6938 83.6221 36.808 85.1111C36.808 85.1111 36.6831 85.1399 36.5774 85.1591C36.4333 85.1879 36.4718 85.1783 36.5774 85.1591C36.635 85.1495 36.6735 85.1399 36.808 85.1111C30.5454 85.7451 27.0875 82.3732 25.1953 77.8678C27.0779 83.1417 30.5262 86.0717 35.2135 86.0717C42.3021 86.0717 44.0118 79.8948 45.4622 79.8948C46.9126 79.8948 52.6373 84.1696 55.6245 84.1696C65.537 84.1696 64.0866 68.0789 63.7216 61.3447Z" fill="url(#paint22_linear_206_1434)"/>
<defs>
<linearGradient id="paint0_linear_206_1434" x1="-5.60369" y1="108.612" x2="68.5459" y2="85.7206" gradientUnits="userSpaceOnUse">
<stop offset="0.00132565" stop-color="#D2A374"/>
<stop offset="1" stop-color="#DEBA94"/>
</linearGradient>
<linearGradient id="paint1_linear_206_1434" x1="63.7234" y1="91.356" x2="63.7234" y2="208.094" gradientUnits="userSpaceOnUse">
<stop stop-color="#D2A374" stop-opacity="0"/>
<stop offset="1" stop-color="#B88653"/>
</linearGradient>
<linearGradient id="paint2_linear_206_1434" x1="77.7316" y1="-69.4206" x2="71.5794" y2="67.9593" gradientUnits="userSpaceOnUse">
<stop offset="0.00132565" stop-color="#D2A374"/>
<stop offset="1" stop-color="#DEBA94"/>
</linearGradient>
<linearGradient id="paint3_linear_206_1434" x1="63.0698" y1="-12.875" x2="63.0698" y2="107.397" gradientUnits="userSpaceOnUse">
<stop stop-color="#D2A374" stop-opacity="0"/>
<stop offset="1" stop-color="#B88653"/>
</linearGradient>
<linearGradient id="paint4_linear_206_1434" x1="-20.358" y1="60.8188" x2="53.7919" y2="37.9275" gradientUnits="userSpaceOnUse">
<stop offset="0.00132565" stop-color="#D2A374"/>
<stop offset="1" stop-color="#DEBA94"/>
</linearGradient>
<linearGradient id="paint5_linear_206_1434" x1="15.8496" y1="18.3318" x2="22.5145" y2="101.375" gradientUnits="userSpaceOnUse">
<stop stop-color="#D2A374" stop-opacity="0"/>
<stop offset="1" stop-color="#B88653"/>
</linearGradient>
<linearGradient id="paint6_linear_206_1434" x1="-9.48048" y1="96.0532" x2="64.6691" y2="73.1622" gradientUnits="userSpaceOnUse">
<stop offset="0.00132565" stop-color="#D2A374"/>
<stop offset="1" stop-color="#DEBA94"/>
</linearGradient>
<radialGradient id="paint7_radial_206_1434" cx="0" cy="0" r="1" gradientUnits="userSpaceOnUse" gradientTransform="translate(7.4135 26.6327) rotate(130.278) scale(5.59057 2.95972)">
<stop stop-color="#E9CDB1"/>
<stop offset="1" stop-color="#E9CDB1" stop-opacity="0"/>
</radialGradient>
<radialGradient id="paint8_radial_206_1434" cx="0" cy="0" r="1" gradientUnits="userSpaceOnUse" gradientTransform="translate(71.4284 7.31752) rotate(-133.441) scale(5.59111 2.95979)">
<stop stop-color="#E9CDB1"/>
<stop offset="1" stop-color="#E9CDB1" stop-opacity="0"/>
</radialGradient>
<radialGradient id="paint9_radial_206_1434" cx="0" cy="0" r="1" gradientUnits="userSpaceOnUse" gradientTransform="translate(27.9782 104.797) rotate(-138.626) scale(25.8795 11.827)">
<stop stop-color="#E9CDB1"/>
<stop offset="1" stop-color="#E9CDB1" stop-opacity="0"/>
</radialGradient>
<linearGradient id="paint10_linear_206_1434" x1="65.9023" y1="76.2282" x2="-195.874" y2="79.7283" gradientUnits="userSpaceOnUse">
<stop stop-color="#D2A374" stop-opacity="0"/>
<stop offset="1" stop-color="#B88653"/>
</linearGradient>
<linearGradient id="paint11_linear_206_1434" x1="72.6843" y1="14.477" x2="-9.18104" y2="332.799" gradientUnits="userSpaceOnUse">
<stop stop-color="#FFBC47" stop-opacity="0"/>
<stop offset="1" stop-color="#C86F34"/>
</linearGradient>
<linearGradient id="paint12_linear_206_1434" x1="98.1304" y1="31.113" x2="70.3319" y2="166.213" gradientUnits="userSpaceOnUse">
<stop stop-color="#D2A374" stop-opacity="0"/>
<stop offset="1" stop-color="#B88653"/>
</linearGradient>
<linearGradient id="paint13_linear_206_1434" x1="54.5341" y1="115.166" x2="49.2364" y2="90.3901" gradientUnits="userSpaceOnUse">
<stop stop-color="#D2A374" stop-opacity="0"/>
<stop offset="1" stop-color="#B88653"/>
</linearGradient>
<linearGradient id="paint14_linear_206_1434" x1="33.7076" y1="63.933" x2="33.7076" y2="100.686" gradientUnits="userSpaceOnUse">
<stop offset="0.00132565" stop-color="#D2A374"/>
<stop offset="1" stop-color="#DEBA94"/>
</linearGradient>
<linearGradient id="paint15_linear_206_1434" x1="33.6837" y1="60.3944" x2="33.6837" y2="115.765" gradientUnits="userSpaceOnUse">
<stop stop-color="#D2A374" stop-opacity="0"/>
<stop offset="1" stop-color="#B88653"/>
</linearGradient>
<linearGradient id="paint16_linear_206_1434" x1="33.6422" y1="72.5134" x2="33.6422" y2="40.436" gradientUnits="userSpaceOnUse">
<stop offset="0.00132565" stop-color="#D2A374"/>
<stop offset="1" stop-color="#DEBA94"/>
</linearGradient>
<linearGradient id="paint17_linear_206_1434" x1="19.5952" y1="56.332" x2="108.09" y2="106.598" gradientUnits="userSpaceOnUse">
<stop stop-color="#D2A374" stop-opacity="0"/>
<stop offset="1" stop-color="#B88653"/>
</linearGradient>
<linearGradient id="paint18_linear_206_1434" x1="53.6814" y1="60.5849" x2="52.5371" y2="96.5376" gradientUnits="userSpaceOnUse">
<stop offset="0.00132565" stop-color="#D2A374"/>
<stop offset="1" stop-color="#DEBA94"/>
</linearGradient>
<linearGradient id="paint19_linear_206_1434" x1="54.1122" y1="57.1353" x2="52.4083" y2="110.669" gradientUnits="userSpaceOnUse">
<stop stop-color="#D2A374" stop-opacity="0"/>
<stop offset="1" stop-color="#B88653"/>
</linearGradient>
<linearGradient id="paint20_linear_206_1434" x1="53.4273" y1="65.9716" x2="54.3115" y2="38.1916" gradientUnits="userSpaceOnUse">
<stop offset="0.00132565" stop-color="#D2A374"/>
<stop offset="1" stop-color="#DEBA94"/>
</linearGradient>
<linearGradient id="paint21_linear_206_1434" x1="39.6193" y1="52.6911" x2="125.316" y2="106.836" gradientUnits="userSpaceOnUse">
<stop stop-color="#D2A374" stop-opacity="0"/>
<stop offset="1" stop-color="#B88653"/>
</linearGradient>
<linearGradient id="paint22_linear_206_1434" x1="44.6005" y1="107.18" x2="44.6005" y2="64.431" gradientUnits="userSpaceOnUse">
<stop stop-color="#D2A374" stop-opacity="0"/>
<stop offset="1" stop-color="#B88653"/>
</linearGradient>
</defs>
</svg>
