<svg width="129" height="129" viewBox="0 0 129 129" fill="none" xmlns="http://www.w3.org/2000/svg">
<path d="M113.634 29.0902C98.6536 8.13025 74.2336 6.05025 64.4036 5.90025C54.9036 5.76025 34.7036 8.92025 19.9436 24.0902C8.9936 35.3402 3.6736 49.3502 3.8736 65.5402C4.0536 80.2102 9.0836 92.3003 18.2736 103.32C31.8436 119.59 51.1236 123.81 64.6036 123.81C64.9836 123.81 65.3636 123.81 65.7436 123.8C78.8836 123.45 101.614 119.68 115.184 97.4703C121.184 87.6503 124.574 76.2102 124.714 65.2603C124.944 47.6003 117.874 35.0102 113.634 29.0902ZM117.534 60.3602L106.034 60.3302C105.674 52.0903 104.264 45.0402 102.254 39.0302L111.024 39.0602C113.884 44.2002 116.824 51.3902 117.534 60.3602ZM11.1736 68.1002L23.1636 68.1302C23.6436 74.8602 24.7436 82.3403 27.1136 89.6803H17.3636C13.7036 83.1703 11.6436 76.0002 11.1736 68.1002ZM68.2136 12.2402C71.7536 13.5702 82.0336 18.2802 89.5736 31.0002L68.1636 30.9402L68.2136 12.2402ZM61.1636 12.5302V30.9202L39.1536 30.8602C47.3936 17.8802 59.0836 13.2602 61.1636 12.5302ZM61.1636 38.9202V60.2302L30.9336 60.1602C31.1336 51.7202 32.7136 44.6902 35.0636 38.8502L61.1636 38.9202ZM22.8736 60.1302L11.2636 60.1002C11.9536 52.3802 14.3936 45.2102 18.2536 38.7902L26.3836 38.8102C24.2936 44.8202 22.9336 51.8802 22.8736 60.1302ZM31.1036 68.1502L61.1636 68.2202V89.6803H35.3536C33.1936 83.8103 31.6436 76.7102 31.1036 68.1502ZM61.1636 97.6803V116.86C57.1036 115.56 46.5136 111.02 39.0136 97.6803H61.1636ZM68.0236 117L68.1636 97.6803H90.3536C83.5036 110.96 73.2536 115.75 68.0236 117ZM68.1636 89.6803V68.2402L97.7936 68.3102C97.4436 76.8102 96.0136 83.8503 93.9536 89.6803H68.1636V89.6803ZM68.1636 60.2402V38.9402L93.5236 39.0102C95.8036 44.8402 97.4036 51.8602 97.7836 60.3102L68.1636 60.2402ZM105.644 31.0502L98.9536 31.0302C96.5236 26.1402 93.7336 22.1802 90.9736 19.0002C96.1536 21.7502 101.264 25.6202 105.644 31.0502ZM37.8536 19.4702C35.1036 22.4902 32.3036 26.2402 29.8636 30.8202L24.0836 30.8002C24.7736 30.0102 25.4836 29.2302 26.2136 28.4702C29.9136 24.6902 33.8736 21.7402 37.8536 19.4702ZM23.7836 98.6503C23.5036 98.3303 23.2336 98.0003 22.9536 97.6803H30.2836C32.4236 102.15 35.1636 106.42 38.6636 110.28C33.2936 107.4 28.1136 103.55 23.7836 98.6503ZM90.8436 110.83C93.8436 107.18 97.5636 102.74 99.6236 97.6803H106.144C102.104 102.77 95.8136 108.02 90.8436 110.83ZM111.314 89.6803H102.644C104.884 82.3303 105.804 74.9002 106.054 68.3302L117.564 68.3602C116.884 77.4902 113.934 84.7503 111.314 89.6803Z" fill="url(#paint0_radial_211_132)"/>
<path d="M94.0033 40.2503L68.1533 40.1703L68.1633 37.6703L93.0933 37.7903L94.0033 40.2503Z" fill="#188AFF"/>
<path d="M61.1635 40.1502L34.5835 40.0902L35.5335 37.6202L61.1635 37.6502V40.1502Z" fill="#188AFF"/>
<path d="M61.1637 69.4603L31.1837 69.4103L30.9937 66.9003L61.1637 66.9603V69.4603Z" fill="#188AFF"/>
<path d="M97.7436 69.5302L68.1636 69.4702V66.9702L97.8636 67.0802L97.7436 69.5302Z" fill="#188AFF"/>
<path d="M117.443 69.5802L105.983 69.5902L106.093 67.0702L117.673 67.1002L117.443 69.5802Z" fill="#188AFF"/>
<path d="M111.653 40.2202L102.663 40.2702L101.863 37.8502L110.423 37.9102L111.653 40.2202Z" fill="#188AFF"/>
<path d="M61.1637 98.9103L39.7237 98.9003L38.3237 96.5603L61.2037 96.4203L61.1637 98.9103Z" fill="#188AFF"/>
<path d="M89.7236 98.8403L68.1436 98.9103L68.1636 96.4103L91.0136 96.4803L89.7236 98.8403Z" fill="#188AFF"/>
<path d="M30.8737 98.8602L24.0837 98.9802L22.0737 96.7002L29.8837 96.6902L30.8737 98.8602Z" fill="#188AFF"/>
<path d="M23.2435 69.3602L11.2435 69.3502L11.0635 66.8402L23.1035 66.9002L23.2435 69.3602Z" fill="#188AFF"/>
<path d="M25.9737 40.0503L17.5337 40.0103L18.9137 37.5803L26.8037 37.5603L25.9737 40.0503Z" fill="#188AFF"/>
<path d="M105.083 98.9603L99.0635 98.9103L100.123 96.5503L107.023 96.5903L105.083 98.9603Z" fill="#188AFF"/>
<path d="M39.1934 30.8103L39.2034 30.7203C39.4034 30.4303 42.6534 23.2503 48.8434 18.0103C55.1334 12.6803 60.9634 11.0803 61.2134 11.0103L61.1634 13.6603C61.1034 13.6803 55.9634 14.9703 50.0034 19.7703C42.9834 25.4203 39.2434 30.7503 39.1934 30.8103Z" fill="#188AFF"/>
<path d="M89.5836 31.0103C89.5536 30.9603 87.0736 26.5402 80.1336 20.8502C74.6236 16.3402 68.2736 13.5102 68.2036 13.4802L68.2336 10.8802C68.5336 11.0002 75.1136 13.8502 80.7536 18.9102C87.1136 24.6102 89.4136 30.6002 89.5336 30.8202L89.5836 31.0103Z" fill="#188AFF"/>
<path d="M105.624 31.0203C105.594 30.9803 102.244 27.8903 98.5838 24.9703C95.1238 22.2003 92.6738 21.0403 92.6338 21.0103L90.0938 17.9003C90.2938 18.0003 95.9238 20.8203 99.4938 23.9203C103.024 26.9903 105.434 30.7203 105.554 30.8703L105.624 31.0203Z" fill="#188AFF"/>
<path d="M24.0938 30.8003L24.1238 30.7003C24.2338 30.5703 26.2238 27.4703 29.6838 24.2403C33.8938 20.3203 38.5738 18.5103 38.7338 18.4203L36.4937 21.0203C36.4537 21.0403 34.6938 21.6603 30.3038 25.1903C26.8038 28.0103 24.1237 30.7703 24.0938 30.8003Z" fill="#188AFF"/>
<path d="M64.4633 125.05C23.4133 125.05 9.81334 90.6403 9.67334 90.3003L9.79334 90.5403C9.93334 90.8703 25.1133 122.55 64.4633 122.55C64.5133 122.55 64.5533 122.55 64.5933 122.55C85.7533 122.51 99.0133 113.7 106.423 106.31C114.473 98.2803 118.723 90.8203 118.753 90.7403L118.803 90.6403C118.673 90.9803 106.873 124.97 64.6033 125.05C64.5533 125.05 64.5033 125.05 64.4633 125.05Z" fill="#188AFF"/>
<defs>
<radialGradient id="paint0_radial_211_132" cx="0" cy="0" r="1" gradientUnits="userSpaceOnUse" gradientTransform="translate(65.3787 5.53735) scale(105.925)">
<stop offset="0.2102" stop-color="#01B3F7"/>
<stop offset="0.4574" stop-color="#01B3F7"/>
</radialGradient>
</defs>
</svg>
