<svg width="129" height="129" viewBox="0 0 129 129" fill="none" xmlns="http://www.w3.org/2000/svg">
<path d="M40.2033 84.8402C32.2133 90.1302 20.9733 85.2802 13.1933 97.2502C11.9333 99.1902 10.8033 102.59 9.35326 107.55C8.21326 111.43 2.09326 114.16 2.09326 114.16C2.09326 114.16 7.36326 119.74 12.3333 120.81C19.5233 122.37 29.8533 123.15 36.8533 115.52C44.8333 106.82 41.2633 98.7902 48.2933 93.9602C48.2833 93.9602 48.1933 79.5402 40.2033 84.8402Z" fill="#F09300"/>
<path d="M34.2733 87.3203C33.4733 88.0203 33.2633 89.1803 33.2933 90.2403C33.4233 94.2703 36.6433 97.9903 40.6133 98.6803C42.2233 98.9603 44.1033 98.6903 45.0933 97.3903C46.2033 95.9403 45.7833 93.8403 45.0033 92.1903C44.1433 90.3803 42.9133 88.7503 41.3933 87.4503" fill="#C67100"/>
<path d="M122.653 7.01025C122.653 7.01025 120.673 4.35025 115.603 7.32025C108.713 11.3503 86.4134 27.9503 59.6634 55.5103C53.6434 61.7102 51.2734 65.2803 51.2734 65.2803C51.2734 65.2803 49.7834 67.5602 55.4934 73.2702C61.1934 78.9702 66.4834 80.1302 66.4834 80.1302L71.0034 75.4803C103.263 42.2603 119.503 20.9603 122.573 14.0803C124.953 8.71025 122.653 7.01025 122.653 7.01025Z" fill="#1565C0"/>
<path d="M58.4337 73.1603C52.7237 67.6103 51.8537 64.6903 51.8537 64.6903C51.8537 64.6903 50.1437 65.8003 49.1137 67.1203C47.5537 69.1203 47.3837 70.5603 47.3837 70.5603L34.5837 86.5903C34.5837 86.5903 32.9537 89.6303 37.8337 94.3603C42.7037 99.0903 45.7037 97.3803 45.7037 97.3803L61.3537 84.1303C61.3537 84.1303 62.7837 83.9203 64.7437 82.3003C66.0337 81.2303 67.0937 79.4903 67.0937 79.4903C67.0937 79.4903 64.1437 78.7003 58.4337 73.1603Z" fill="#BDBDBD"/>
<path d="M55.4833 73.2602C55.4633 73.2802 55.4533 73.3002 55.4333 73.3202C55.0833 73.7202 54.4733 73.7302 53.9433 73.6302C52.0233 73.2602 50.6933 71.9802 50.0033 70.2202C49.6833 69.3902 49.6233 68.4302 50.0133 67.6302C50.7233 66.1902 51.7633 67.1602 52.5633 67.9602C53.5733 68.9802 54.4733 70.1202 55.2133 71.3402C55.3933 71.6402 55.5733 71.9602 55.6433 72.3102C55.7133 72.6402 55.6833 73.0002 55.4833 73.2602Z" fill="#EEEEEE"/>
<path d="M61.9436 60.0602C63.7436 64.0702 78.9436 48.2802 82.7936 44.1802C84.7136 42.1402 97.9836 30.2002 94.9836 29.7002C91.9836 29.2002 85.1536 35.0802 82.8936 36.8802C78.3736 40.4702 72.5836 46.1402 68.1136 50.8002C65.9236 53.0702 61.2636 58.5502 61.9436 60.0602Z" fill="#2196F3"/>
<path d="M44.0835 77.4403C44.4935 77.0103 44.9835 76.5403 45.6235 76.5403C46.2235 76.5403 46.7235 76.9603 47.1335 77.3603C48.4835 78.6803 49.7335 80.5103 49.0035 82.1603C48.7035 82.8303 48.1235 83.3503 47.5535 83.8503C45.3235 85.8203 43.1035 87.7803 40.8735 89.7503C39.5335 90.9303 38.2635 89.3903 37.7635 88.2103C37.3135 87.1303 37.6535 86.2703 38.2335 85.3203C39.9035 82.5303 41.8235 79.8503 44.0835 77.4403Z" fill="#EEEEEE"/>
<path d="M59.8337 83.1203C60.0637 83.2803 60.3137 83.5002 60.2837 83.7702C60.2737 83.8702 60.2137 83.9703 60.1537 84.0503C59.6237 84.7803 58.5537 84.9302 57.6937 84.6402C56.8437 84.3502 56.1537 83.7202 55.4937 83.1102C52.9837 80.7502 50.5037 78.3002 48.7037 75.3602C48.4237 74.9102 46.9737 72.3003 47.9737 72.0503C48.6137 71.8903 50.0537 74.2103 50.4637 74.6903C52.2437 76.7303 54.1837 78.6302 56.2537 80.3802C57.4137 81.3402 58.6037 82.2603 59.8337 83.1203Z" fill="#9E9E9E"/>
<path d="M36.8435 115.52C36.8435 115.52 27.2535 120.9 17.0535 119.38C17.0535 119.38 25.1235 117.91 28.5435 106.98C28.5435 106.98 20.7735 115.07 13.7535 115.62C13.7535 115.62 20.4535 112.13 20.8835 101.55C17.3035 107.93 14.9535 111.12 9.2535 113.05C15.3835 106.46 13.1535 97.3003 13.1535 97.3003C11.9035 99.2503 10.7835 102.62 9.3435 107.54C8.2035 111.42 2.0835 114.15 2.0835 114.15C2.0835 114.15 7.3535 119.73 12.3235 120.8C19.5135 122.37 29.8535 123.14 36.8435 115.52Z" fill="#C67100"/>
</svg>
