<svg width="129" height="129" viewBox="0 0 129 129" fill="none" xmlns="http://www.w3.org/2000/svg">
<path d="M77.7236 19.8202C47.1836 3.71025 19.3836 15.1902 9.3636 30.8802C6.0836 36.0102 3.7636 45.3402 3.8536 52.7402C4.0336 67.9702 12.4636 84.9402 30.6536 102.06C53.0336 123.12 75.8736 121.28 83.1336 119.51C92.2736 117.28 98.4036 115.38 97.4636 106.86C97.3436 105.74 96.3836 103.71 94.9336 102.82C90.2836 100 80.5736 98.5302 76.0036 91.7402C69.3636 81.8502 77.6236 81.3503 85.5336 85.5803C94.0036 90.1103 98.8436 92.9403 107.344 92.1603C113.574 91.5903 122.634 87.8303 123.864 77.3203C124.964 67.8103 111.084 37.4202 77.7236 19.8202ZM90.1936 71.5002C87.8536 75.0602 82.0736 73.8403 78.2836 70.4803C74.4936 67.1203 74.0036 61.5202 76.4636 59.3202C78.9636 57.0902 83.6636 57.6002 87.4536 60.9602C91.2336 64.3302 92.0236 68.7002 90.1936 71.5002Z" fill="#AC5810"/>
<path d="M79.0635 16.1903C48.5235 0.0802817 20.6535 12.5403 10.6335 28.2303C0.603521 43.9303 4.96352 73.0003 31.9835 98.4303C54.3635 119.49 77.2035 117.65 84.4635 115.88C93.6035 113.65 100.054 109.3 96.0335 103.75C93.2635 99.9203 83.3335 97.0303 77.3435 88.1103C70.7035 78.2203 78.9635 77.7203 86.8735 81.9503C95.3435 86.4803 100.184 89.3103 108.684 88.5303C114.914 87.9603 124.334 83.1403 124.054 73.4003C123.764 63.8303 112.424 33.8003 79.0635 16.1903ZM93.1235 71.2203C90.2735 74.3003 84.2035 73.4603 79.5635 69.3603C74.9335 65.2503 73.4835 59.4303 76.3335 56.3603C79.1835 53.2803 85.2535 54.1203 89.8935 58.2203C94.5335 62.3203 95.9735 68.1503 93.1235 71.2203Z" fill="#F2A259"/>
<path d="M47.9737 85.1602C49.1237 82.2202 57.3037 79.0002 64.8237 84.3502C66.9337 85.8502 69.5737 89.6702 69.3037 94.4702C68.4237 110.15 42.6937 98.6902 47.9737 85.1602Z" fill="#EEEEEE"/>
<path d="M24.0833 58.5703C26.7133 54.3703 33.1033 53.8903 38.6933 57.5203C43.6733 60.7503 47.8333 68.7003 41.6933 73.9003C38.4033 76.6903 32.7133 74.9603 29.2033 72.2703C24.9433 69.0203 21.2533 63.0903 24.0833 58.5703Z" fill="#2686C6"/>
<path d="M58.0235 21.9202C58.8335 18.5902 64.4835 18.0202 68.4835 19.5102C75.3935 22.0902 78.5235 28.9302 75.9735 32.7402C72.2435 38.3102 64.1135 36.4002 61.0335 33.2102C55.8035 27.8102 57.3435 24.7102 58.0235 21.9202Z" fill="#FFEE58"/>
<path d="M98.0635 38.2203C103.604 40.7403 104.324 44.7303 103.264 47.6403C102.604 49.4403 101.254 51.9103 98.4935 52.1303C93.8235 52.5103 93.1735 48.6503 89.8435 47.5903C87.0435 46.7003 85.9035 42.8703 87.0035 40.3003C88.0235 37.9303 91.0035 35.0003 98.0635 38.2203Z" fill="#7CB342"/>
<path d="M67.3234 97.4603C65.9434 98.7103 61.1534 100.25 55.0734 96.4503C53.0134 95.1603 51.0434 93.2903 49.9334 90.4903C49.0634 88.2903 49.2534 86.1703 49.6434 85.2303C50.7634 82.5203 52.4734 82.0203 52.4734 82.0203C50.7534 81.9003 47.5034 84.1803 46.9634 87.1703C46.7934 88.1103 45.5834 93.9903 53.3734 99.3203C60.0834 103.92 70.0034 103.49 69.3534 94.2303C69.0534 95.3703 68.2034 96.6703 67.3234 97.4603Z" fill="#B0B0B0"/>
<path d="M44.6136 66.2202C44.4236 69.7902 40.2436 71.6702 37.9136 71.6802C31.3236 71.6902 25.4036 67.5502 24.9936 60.1802C24.9236 58.8602 25.5736 56.9502 25.5736 56.9502C24.7036 57.3202 23.4736 59.2002 23.2136 60.2602C21.6736 66.6202 28.0836 74.0302 34.8336 75.5302C38.2536 76.2902 42.5636 75.1202 44.1336 72.0602C45.2536 69.8802 45.0336 68.0102 44.6136 66.2202Z" fill="#01579B"/>
<path d="M67.6736 33.2203C63.1936 32.7103 60.7136 29.7803 60.0636 29.1103C58.2836 27.2503 57.1836 25.4403 57.8236 22.7603C58.0236 21.9003 58.5136 20.8003 59.1136 20.1803C58.3836 20.4203 57.2036 21.9903 56.8336 22.8403C56.4536 23.6903 55.0736 26.8803 58.0336 30.8103C59.8636 33.2503 63.0536 36.0003 67.7736 36.6603C71.1236 37.1303 73.5236 35.9303 75.5236 33.9803C76.8836 32.6503 77.4836 29.6503 76.6736 28.1003C76.8036 29.2303 74.7336 34.0303 67.6736 33.2203Z" fill="#DF7F14"/>
<path d="M104.524 45.3502C104.114 43.8402 102.944 42.2702 102.824 42.1902C103.334 43.1702 104.344 46.1102 102.224 48.9702C101.154 50.4102 97.9337 52.1802 94.1337 49.1002C93.0137 48.1902 92.1137 47.2902 90.0937 46.5502C84.9637 44.6602 87.2037 39.4402 88.9837 37.8202C87.5837 38.5502 86.3137 39.8602 85.7837 41.8602C85.0437 44.6502 86.8737 47.5702 89.6537 48.9702C92.8137 50.5602 93.8337 53.6302 98.1637 53.6302C98.3837 53.6302 98.6137 53.6202 98.8637 53.6002C101.784 53.3502 103.014 52.2202 103.904 50.8402C104.994 49.1202 105.024 47.1702 104.524 45.3502Z" fill="#558B2F"/>
<path d="M26.1734 26.2902C28.4534 24.0402 32.4234 21.6602 38.2334 24.6902C41.7334 26.5102 45.8034 28.6502 43.9634 36.0502C42.8234 40.6402 36.1434 43.0702 30.5634 37.9602C28.3534 35.9402 19.9534 32.4302 26.1734 26.2902Z" fill="#F44336"/>
<path d="M45.2937 35.0602C45.3637 33.3102 44.4637 31.1802 44.1537 30.4602C44.2037 31.5102 45.1137 34.1602 40.9437 37.6702C39.4937 38.8902 36.8637 39.8202 33.9937 38.6902C32.5237 38.1102 30.4137 35.6802 28.9037 35.0702C23.2937 32.8102 25.7137 26.8002 26.5037 25.9802C25.2337 26.8702 24.1537 28.2902 23.7537 30.3602C23.2337 33.0702 23.7137 35.6302 27.4337 38.5602C37.9937 46.8902 41.2337 41.8702 42.3837 40.5902C43.8337 39.0302 45.2137 36.9902 45.2937 35.0602Z" fill="#C62828"/>
<path d="M66.0933 19.8602C64.6233 19.1702 60.4233 19.3702 59.6133 22.8702C59.1233 24.9702 60.6633 27.1002 62.1133 26.8502C63.7633 26.5702 62.8833 24.0002 63.8733 23.2702C65.3833 22.1702 68.1533 20.8302 66.0933 19.8602Z" fill="white"/>
<path d="M35.1133 24.9603C33.6633 24.0003 29.0333 23.9903 27.6433 27.5403C26.8033 29.6703 28.1133 32.1403 29.6833 32.1003C31.4733 32.0603 30.6133 29.9503 32.1033 28.6103C33.9833 26.9203 37.1433 26.3003 35.1133 24.9603Z" fill="white"/>
<path d="M34.4236 57.0002C33.0536 56.1302 28.9936 55.7902 27.3136 58.9702C26.0836 61.3102 27.7736 63.8902 29.2436 63.8202C30.9136 63.7402 30.3536 61.0802 31.4236 60.4802C33.0536 59.5702 36.3436 58.2202 34.4236 57.0002Z" fill="white"/>
<path d="M57.7535 83.6302C56.2835 82.9402 52.0835 83.1402 51.2735 86.6402C50.7835 88.7402 52.3235 90.8702 53.7735 90.6202C55.4235 90.3402 54.5435 87.7702 55.5335 87.0402C57.0335 85.9402 59.8035 84.6002 57.7535 83.6302Z" fill="white"/>
<path d="M95.4335 38.5503C94.1135 37.6103 89.9435 37.0603 88.5235 40.3603C87.6735 42.3403 88.8035 44.7103 90.2735 44.7203C91.9435 44.7303 91.5335 42.0503 92.6435 41.5103C94.3135 40.7003 97.2835 39.8703 95.4335 38.5503Z" fill="white"/>
</svg>
