<svg width="147" height="95" viewBox="0 0 147 95" fill="none" xmlns="http://www.w3.org/2000/svg">
<path d="M135.401 88.2905C128.97 88.2905 119.734 88.8334 115.392 88.8334C111.049 88.8334 105.833 94.5747 85.4834 94.5747C65.1337 94.5747 60.957 87.444 61.1318 82.2271C61.3066 77.0102 57.2404 76.3661 56.1456 70.726C55.3085 66.3924 57.4152 65.5551 57.4152 62.7672C57.4152 59.9885 53.303 58.544 53.303 53.8607C53.303 49.1775 56.9552 45.3499 56.9552 45.3499C56.9552 45.3499 30.5153 45.3499 21.1317 45.3499C11.7388 45.3499 0 46.132 0 35.9558C0 25.7796 12.5208 26.9941 19.1722 26.9941C25.8235 26.9941 66.1365 26.8193 66.1365 26.8193C66.1365 26.8193 49.6967 22.3844 49.6967 9.59518C49.6967 -3.19407 58.5927 -0.737432 65.7409 5.6848C78.3352 16.9927 108.041 10.6441 118.179 36.9955C118.179 36.9955 119.044 39.8386 137.784 36.517C137.784 36.517 146.615 37.9432 146.615 60.2646C146.624 84.2513 135.401 88.2905 135.401 88.2905Z" fill="url(#paint0_linear_212_192)"/>
<path d="M50.8279 3.4491C50.1287 4.89364 49.7056 6.89024 49.7056 9.6045C49.7056 20.986 62.7047 25.7429 65.5658 26.6538L78.4821 27.1322H90.2117C68.0957 23.4243 52.2539 11.3435 50.8279 3.4491Z" fill="url(#paint1_linear_212_192)"/>
<path d="M49.7056 9.60405C49.7056 22.3933 66.1452 26.8282 66.1452 26.8282L90.6622 27.4354C90.6622 27.4354 79.1259 24.0219 70.1839 23.6078C58.8868 23.0834 49.9263 15.097 49.9171 6.56775C49.7791 7.46024 49.7056 8.47234 49.7056 9.60405Z" fill="url(#paint2_linear_212_192)"/>
<path d="M21.1409 45.3498C30.5337 45.3498 56.9644 45.3498 56.9644 45.3498C56.9644 45.3498 54.4069 48.0457 53.5697 51.68C54.1769 49.8767 58.3535 46.4263 60.6167 44.9726C63.0546 43.4084 58.1787 42.3963 51.739 42.3963C45.2992 42.3963 20.4693 41.8719 10.4325 41.8719C4.43428 41.8719 0 39.5348 0 35.9557C0.00919967 46.1319 11.748 45.3498 21.1409 45.3498Z" fill="url(#paint3_linear_212_192)"/>
<path d="M56.0442 70.0358C56.0534 67.4412 59.3191 66.5671 59.3191 62.8315C59.3191 59.0959 53.3213 56.8141 53.3213 53.8606C53.3213 58.5439 57.4333 59.9884 57.4333 62.7763C57.4241 65.3986 55.5475 66.3002 56.0442 70.0358Z" fill="url(#paint4_linear_212_192)"/>
<path d="M128.226 85.9263C112.706 85.0154 123.773 73.2751 107.094 85.7975C97.563 92.9558 79.6973 91.1432 72.6595 90.3611C65.6126 89.5791 64.1774 83.5801 63.1378 79.4029C62.2271 75.7777 57.5536 74.416 56.3301 71.4901C57.6272 76.431 61.2979 77.2591 61.1323 82.2276C60.9575 87.4445 65.1342 94.5751 85.4838 94.5751C105.834 94.5751 111.05 88.8338 115.392 88.8338C119.734 88.8338 128.971 88.2909 135.401 88.2909C135.401 88.2909 139.265 86.9016 142.457 80.9026C138.768 82.0067 133.847 86.2575 128.226 85.9263Z" fill="url(#paint5_linear_212_192)"/>
<path d="M118.188 36.9956C112.889 23.231 102.255 18.3914 91.5186 15.2906C108.391 21.5105 113.892 37.9065 117.406 40.2527C120.654 42.4149 130.571 44.0343 140.792 38.3297C139.145 36.7288 137.802 36.5171 137.802 36.5171C119.053 39.8479 118.188 36.9956 118.188 36.9956Z" fill="url(#paint6_linear_212_192)"/>
<path d="M146.605 61.7554C135.041 59.8969 124.296 68.3801 106.596 68.3801C87.1663 68.3801 76.9731 81.0406 57.3594 74.0571C58.9601 76.9278 61.2692 78.2619 61.1312 82.2183C60.9564 87.4352 65.1331 94.5659 85.4828 94.5659C105.832 94.5659 111.049 88.8246 115.391 88.8246C119.733 88.8246 128.97 88.2725 135.4 88.2817C135.4 88.2909 146.145 84.4173 146.605 61.7554Z" fill="url(#paint7_linear_212_192)"/>
<path opacity="0.5" d="M63.4049 41.6881C63.4049 47.1718 61.5742 50.3001 61.5742 54.7349C61.5742 59.1698 64.2605 73.5232 73.8373 73.5232C83.4141 73.5232 102.844 65.6932 105.3 57.0812C107.756 48.4691 95.99 33.1588 88.1519 31.8615C80.3138 30.555 63.4049 33.076 63.4049 41.6881Z" fill="url(#paint8_radial_212_192)"/>
<path d="M91.3068 27.5183C91.3068 27.5183 66.321 26.8191 66.1462 26.8191L64.5547 26.2946C64.5547 25.9358 65.6402 25.8162 66.0082 25.8162C66.7257 25.8162 84.1588 25.2457 91.3068 27.5183Z" fill="#975500"/>
<path opacity="0.5" d="M7.78223 34.9803C7.78223 38.035 14.9856 40.6573 29.1622 38.6883C43.3481 36.7285 60.7999 43.4636 60.7999 35.9464C60.7999 28.4293 32.6581 32.1372 28.2883 32.1372C23.9276 32.1464 7.78223 28.8709 7.78223 34.9803Z" fill="url(#paint9_radial_212_192)"/>
<defs>
<linearGradient id="paint0_linear_212_192" x1="85.382" y1="132" x2="68.6869" y2="13.1851" gradientUnits="userSpaceOnUse">
<stop offset="0.00132565" stop-color="#D2A374"/>
<stop offset="1" stop-color="#DEBA94"/>
</linearGradient>
<linearGradient id="paint1_linear_212_192" x1="74.7119" y1="-2.57839" x2="59.49" y2="60.5924" gradientUnits="userSpaceOnUse">
<stop stop-color="#D2A374" stop-opacity="0"/>
<stop offset="1" stop-color="#B88653"/>
</linearGradient>
<linearGradient id="paint2_linear_212_192" x1="78.5322" y1="-0.247429" x2="64.1291" y2="29.8639" gradientUnits="userSpaceOnUse">
<stop offset="0.3118" stop-color="#D2A374" stop-opacity="0"/>
<stop offset="1" stop-color="#B88653"/>
</linearGradient>
<linearGradient id="paint3_linear_212_192" x1="24.1479" y1="20.2185" x2="45.4257" y2="87.9709" gradientUnits="userSpaceOnUse">
<stop stop-color="#D2A374" stop-opacity="0"/>
<stop offset="1" stop-color="#B88653"/>
</linearGradient>
<linearGradient id="paint4_linear_212_192" x1="50.5299" y1="61.9483" x2="69.3132" y2="61.9484" gradientUnits="userSpaceOnUse">
<stop stop-color="#D2A374" stop-opacity="0"/>
<stop offset="1" stop-color="#B88653"/>
</linearGradient>
<linearGradient id="paint5_linear_212_192" x1="96.9407" y1="60.4477" x2="110.362" y2="146.531" gradientUnits="userSpaceOnUse">
<stop stop-color="#D2A374" stop-opacity="0"/>
<stop offset="1" stop-color="#B88653"/>
</linearGradient>
<linearGradient id="paint6_linear_212_192" x1="99.1233" y1="40.9013" x2="152.147" y2="-2.9519" gradientUnits="userSpaceOnUse">
<stop stop-color="#D2A374" stop-opacity="0"/>
<stop offset="1" stop-color="#B88653"/>
</linearGradient>
<linearGradient id="paint7_linear_212_192" x1="99.2253" y1="49.3657" x2="120.504" y2="192.402" gradientUnits="userSpaceOnUse">
<stop stop-color="#D2A374" stop-opacity="0"/>
<stop offset="1" stop-color="#B88653"/>
</linearGradient>
<radialGradient id="paint8_radial_212_192" cx="0" cy="0" r="1" gradientUnits="userSpaceOnUse" gradientTransform="translate(72.0195 52.6166) rotate(-90) scale(22.3331 11.3345)">
<stop stop-color="#E9CDB1"/>
<stop offset="1" stop-color="#E9CDB1" stop-opacity="0"/>
</radialGradient>
<radialGradient id="paint9_radial_212_192" cx="0" cy="0" r="1" gradientUnits="userSpaceOnUse" gradientTransform="translate(34.2948 35.3969) rotate(-1.58848) scale(27.3849 3.1946)">
<stop stop-color="#E9CDB1"/>
<stop offset="1" stop-color="#E9CDB1" stop-opacity="0"/>
</radialGradient>
</defs>
</svg>
