<svg width="112" height="125" viewBox="0 0 112 125" fill="none" xmlns="http://www.w3.org/2000/svg">
<path d="M105.071 124.896H17.5615C15.7259 124.896 12.3417 124.896 7.97077 120.921C4.44882 117.72 0.41062 114.724 0.490925 111.011L94.8838 0.104614C100.023 0.104614 102.352 1.59673 105.61 3.53307C111.771 7.20071 111.977 9.05732 111.977 11.1303V118.05C111.966 121.832 108.88 124.896 105.071 124.896Z" fill="#B9E4EA"/>
<path d="M62.0967 83.4583V116.49H95.1938C98.8305 116.49 101.779 113.563 101.779 109.952V83.4583H62.0967Z" fill="#82AEC0"/>
<path d="M68.9112 116.49C62.9342 116.49 73.7869 92.2286 73.7869 92.2286C73.7869 92.2286 101.779 66.7145 101.779 84.4263C101.779 102.138 74.8767 116.49 68.9112 116.49Z" fill="#B9E4EA"/>
<path d="M80.3947 93.5043C80.3947 93.5043 101.779 92.1489 101.779 83.7657V6.95013C101.779 3.16858 99.0828 0.104614 94.884 0.104614H7.24828C2.71678 0.104614 0.353516 3.16858 0.353516 6.95013V109.644C0.353516 113.426 3.43952 116.49 7.24828 116.49H67.8442C81.0716 113.392 80.3947 93.5043 80.3947 93.5043Z" fill="#F5F5F5"/>
<path d="M56.6073 9.85461H12.1299C10.473 9.85461 9.12988 11.1978 9.12988 12.8546V48.9984C9.12988 50.6552 10.473 51.9984 12.1299 51.9984H56.6073C58.2642 51.9984 59.6073 50.6552 59.6073 48.9984V12.8546C59.6073 11.1978 58.2642 9.85461 56.6073 9.85461Z" fill="#FFC107"/>
<path d="M87.5818 30.3571H74.0791C72.4222 30.3571 71.0791 31.7002 71.0791 33.3571V69.5008C71.0791 71.1577 72.4223 72.5008 74.0791 72.5008H87.5818C89.2386 72.5008 90.5818 71.1577 90.5818 69.5008V33.3571C90.5818 31.7002 89.2386 30.3571 87.5818 30.3571Z" fill="#EF5350"/>
<ellipse cx="39.5308" cy="84.4605" rx="22.3707" ry="22.2109" fill="#3640FF"/>
</svg>
