<svg width="245" height="87" viewBox="0 0 245 87" fill="none" xmlns="http://www.w3.org/2000/svg">
<path d="M61.5154 9.73174C45.3895 8.57989 26.4179 7.0215 22.6913 19.6241C18.9647 32.2267 21.4039 51.2661 30.0767 65.4271C38.7494 79.5881 72.9661 78.775 85.2977 71.3219C101.762 61.294 103.185 44.4228 103.66 34.2594C104.202 20.7082 86.3818 11.5612 61.5154 9.73174Z" fill="url(#paint0_linear_206_1438)"/>
<path d="M183.678 9.73162C199.804 8.57977 218.776 7.02138 222.502 19.624C226.229 32.2266 223.79 51.266 215.117 65.427C206.444 79.588 172.227 78.7749 159.896 71.3218C143.431 61.2939 142.008 44.4227 141.534 34.2593C140.992 20.7081 158.812 11.561 183.678 9.73162Z" fill="url(#paint1_linear_206_1438)"/>
<path d="M244.32 5.2602C244.32 5.2602 240.255 3.70181 226.432 2.07567C207.528 -0.0925181 176.496 -0.160274 162.132 4.1761C142.076 10.2064 134.894 18.6081 122.63 18.6081C110.367 18.6081 103.184 10.2064 83.1287 4.1761C68.7645 -0.160274 37.6645 -0.0925181 18.8284 2.07567C4.93844 3.70181 0.873083 5.2602 0.873083 5.2602C0.805327 6.54756 0.805327 8.10594 0.873083 9.79984C0.873083 9.79984 9.47808 11.2227 9.54583 11.968C9.61359 12.3746 1.14411 13.1876 1.14411 13.1876C1.27962 14.6105 1.55064 16.1011 1.88942 17.7273L5.20946 19.2857C7.78418 20.5053 9.54583 23.0122 9.81686 25.858C13.3402 60.549 24.3844 74.5744 24.3844 74.5744C34.2767 87.9223 80.9605 92.3942 96.6121 74.9132C116.261 53.0281 108.334 33.1079 122.63 33.1079C136.927 33.1079 128.999 52.9603 148.649 74.9132C164.3 92.3942 210.916 87.9223 220.876 74.5744C220.876 74.5744 231.921 60.549 235.444 25.858C235.715 23.0122 237.477 20.5053 240.051 19.2857L243.371 17.7273C243.71 16.1011 243.981 14.6105 244.117 13.1876C244.117 13.1876 236.257 12.3746 236.325 11.968C236.393 11.2227 244.388 9.79984 244.388 9.79984C244.388 8.10594 244.388 6.54756 244.32 5.2602ZM85.2969 71.3222C72.9653 78.8431 38.7486 79.5884 30.0759 65.4274C21.4031 51.2664 18.9639 32.227 22.6905 19.6244C26.417 7.02185 45.3887 8.58023 61.5146 9.73208C86.381 11.4937 104.201 20.7085 103.659 34.1919C103.184 44.4231 101.762 61.2943 85.2969 71.3222ZM215.117 65.4274C206.444 79.5884 172.228 78.7753 159.896 71.3222C143.431 61.2943 142.009 44.4231 141.534 34.2597C140.992 20.7763 158.812 11.5615 183.678 9.79984C199.804 8.64799 218.776 7.0896 222.503 19.6922C226.161 32.2948 223.79 51.3342 215.117 65.4274Z" fill="url(#paint2_linear_206_1438)"/>
<path d="M85.2965 71.3222C72.9649 78.8431 38.7482 79.5885 30.0755 65.4275C22.7579 53.5024 19.9121 38.1896 21.4027 26.0613C21.335 26.129 21.335 26.1968 21.335 26.2645C19.9799 39.2737 22.3513 54.5865 29.5334 67.1891C38.3417 82.7052 73.1004 81.8244 85.703 73.6259C98.6444 65.1564 101.964 53.0959 102.981 42.4582C101.693 52.0796 97.8313 63.6658 85.2965 71.3222Z" fill="url(#paint3_linear_206_1438)"/>
<path opacity="0.75" d="M130.422 33.2429C130.625 29.1098 131.642 25.0444 133.268 21.2501L135.91 15.3553C131.506 17.3203 127.441 18.6754 122.562 18.6754C117.684 18.6754 113.618 17.3203 109.214 15.3553L111.857 21.2501C113.551 25.0444 114.499 29.1098 114.703 33.2429L114.906 37.0372C116.532 34.5303 118.7 33.1074 122.495 33.1074C126.289 33.1074 128.525 34.5303 130.083 37.0372L130.422 33.2429Z" fill="url(#paint4_radial_206_1438)"/>
<path opacity="0.75" d="M22.6904 21.3851C26.417 8.71479 45.3886 10.2732 61.5145 11.4928C85.5001 13.1867 102.981 21.8594 103.659 34.5298C103.659 34.462 103.659 34.3265 103.659 34.2588C104.201 20.7753 86.3809 11.5605 61.5145 9.79888C45.3886 8.64703 26.417 7.08864 22.6904 19.6912C21.4708 23.7566 20.9288 28.5673 21.0643 33.5812C21.0643 29.1771 21.6063 24.9762 22.6904 21.3851Z" fill="black"/>
<path d="M0.874023 9.80054C0.941779 10.8846 1.00954 11.9687 1.14505 13.1883H13.7476C15.6448 13.1883 17.1354 11.6977 17.1354 9.80054H0.874023Z" fill="url(#paint5_linear_206_1438)"/>
<path d="M159.896 71.3222C172.228 78.8431 206.444 79.5885 215.117 65.4275C222.435 53.5024 225.281 38.1896 223.79 26.0613C223.858 26.129 223.858 26.1968 223.858 26.2645C225.213 39.2737 222.841 54.5865 215.659 67.1891C206.851 82.7052 172.092 81.8244 159.49 73.6259C146.548 65.1564 143.228 53.0959 142.212 42.4582C143.499 52.0796 147.361 63.6658 159.896 71.3222Z" fill="url(#paint6_linear_206_1438)"/>
<path opacity="0.75" d="M222.502 21.3851C218.776 8.78254 199.804 10.3409 183.678 11.4928C159.693 13.1867 142.212 21.8594 141.534 34.5298C141.534 34.462 141.534 34.3265 141.534 34.2588C140.992 20.7753 158.812 11.5605 183.678 9.79888C199.804 8.64703 218.776 7.08864 222.502 19.6912C223.722 23.7566 224.264 28.5673 224.128 33.5812C224.128 29.1771 223.586 24.9762 222.502 21.3851Z" fill="black"/>
<path d="M244.32 9.80054C244.252 10.8846 244.184 11.9687 244.049 13.1883H231.446C229.549 13.1883 228.059 11.6977 228.059 9.80054H244.32Z" fill="url(#paint7_linear_206_1438)"/>
<path d="M112.196 21.2507L109.554 15.356C102.846 12.3747 95.4604 7.83505 83.3321 4.17623C69.0357 -0.160153 38.0035 -0.0923971 19.0996 2.07579C5.27738 3.70194 1.21203 5.26032 1.21203 5.26032C1.14428 6.61544 1.07652 8.10608 1.14428 9.86773C30.6858 7.293 66.3254 1.39823 108.334 20.7764C109.486 21.3185 110.841 21.454 112.264 21.454C112.264 21.3862 112.264 21.3185 112.196 21.2507Z" fill="url(#paint8_radial_206_1438)"/>
<path d="M133.674 21.2507L136.317 15.356C143.025 12.3747 150.41 7.83505 162.538 4.17623C176.903 -0.160153 208.003 -0.0923971 226.839 2.07579C240.661 3.63418 244.726 5.26032 244.726 5.26032C244.794 6.61544 244.862 8.10608 244.794 9.86773C215.252 7.293 179.613 1.39823 137.604 20.7764C136.452 21.3185 135.097 21.454 133.674 21.454C133.607 21.3862 133.607 21.3185 133.674 21.2507Z" fill="url(#paint9_radial_206_1438)"/>
<defs>
<linearGradient id="paint0_linear_206_1438" x1="62.3421" y1="-111.162" x2="62.3421" y2="68.4514" gradientUnits="userSpaceOnUse">
<stop stop-color="#B0E9FF"/>
<stop offset="1" stop-color="#80DAFE" stop-opacity="0"/>
</linearGradient>
<linearGradient id="paint1_linear_206_1438" x1="182.849" y1="-111.162" x2="182.849" y2="68.4513" gradientUnits="userSpaceOnUse">
<stop stop-color="#B0E9FF"/>
<stop offset="1" stop-color="#80DAFE" stop-opacity="0"/>
</linearGradient>
<linearGradient id="paint2_linear_206_1438" x1="122.595" y1="46.3902" x2="122.595" y2="-41.5529" gradientUnits="userSpaceOnUse">
<stop stop-color="#242424"/>
<stop offset="1" stop-color="#8EA5A8"/>
</linearGradient>
<linearGradient id="paint3_linear_206_1438" x1="61.9722" y1="44.2647" x2="61.9722" y2="111.48" gradientUnits="userSpaceOnUse">
<stop/>
<stop offset="1" stop-color="#8EA5A8"/>
</linearGradient>
<radialGradient id="paint4_radial_206_1438" cx="0" cy="0" r="1" gradientUnits="userSpaceOnUse" gradientTransform="translate(122.448 23.6604) scale(14.9758 9.15183)">
<stop offset="0.0158651" stop-color="#8EA5A8" stop-opacity="0.25"/>
<stop offset="1" stop-color="#8EA5A8" stop-opacity="0"/>
</radialGradient>
<linearGradient id="paint5_linear_206_1438" x1="17.9039" y1="11.5324" x2="2.35131" y2="11.5324" gradientUnits="userSpaceOnUse">
<stop stop-color="white"/>
<stop offset="1" stop-color="#FFBF00"/>
</linearGradient>
<linearGradient id="paint6_linear_206_1438" x1="183.218" y1="44.2647" x2="183.218" y2="111.48" gradientUnits="userSpaceOnUse">
<stop/>
<stop offset="1" stop-color="#8EA5A8"/>
</linearGradient>
<linearGradient id="paint7_linear_206_1438" x1="227.287" y1="11.5324" x2="242.84" y2="11.5324" gradientUnits="userSpaceOnUse">
<stop stop-color="white"/>
<stop offset="1" stop-color="#FFBF00"/>
</linearGradient>
<radialGradient id="paint8_radial_206_1438" cx="0" cy="0" r="1" gradientUnits="userSpaceOnUse" gradientTransform="translate(47.6941 147.243) scale(250.184 148.76)">
<stop offset="0.9647" stop-color="#8EA5A8" stop-opacity="0"/>
<stop offset="1" stop-color="#8EA5A8"/>
</radialGradient>
<radialGradient id="paint9_radial_206_1438" cx="0" cy="0" r="1" gradientUnits="userSpaceOnUse" gradientTransform="translate(198.172 147.244) rotate(180) scale(250.184 148.76)">
<stop offset="0.9647" stop-color="#8EA5A8" stop-opacity="0"/>
<stop offset="1" stop-color="#8EA5A8"/>
</radialGradient>
</defs>
</svg>
