<svg width="135" height="137" viewBox="0 0 135 137" fill="none" xmlns="http://www.w3.org/2000/svg">
<path d="M78.525 62.8021C80.3037 64.7616 81.8927 67.3261 81.2155 68.0033C80.5384 68.6806 78.4618 67.4525 76.8727 65.8632C75.2836 64.2739 71.4916 81.16 71.1214 82.0178C70.8506 82.6589 66.4265 87.7157 64.1151 92.5377C63.3477 94.145 63.456 98.9851 63.1671 99.2741C62.0024 100.439 60.5397 100.313 57.3526 97.4952C54.1744 94.6778 52.5222 111.428 56.3143 114.074C62.7969 118.598 75.7712 136.595 92.8987 136.595C112.717 136.595 131.072 115.916 131.072 100.737C131.072 85.5666 126.621 79.8055 126.91 67.0823C127.154 56.3095 134.982 51.1715 134.982 45.7896C134.982 41.2656 128.255 40.1639 126.052 40.1639C122.134 40.1639 112.103 45.1846 112.103 58.3955C112.103 63.5335 110.631 68.1839 105.377 68.1839C100.122 68.1839 94.244 60.9599 90.6957 55.3343" fill="url(#paint0_linear_206_1435)"/>
<path d="M135 45.7892C135 43.324 133.014 41.8792 130.838 41.0665C133.438 49.6992 120.229 50.0784 120.229 79.5071C120.229 108.936 103.101 117.496 96.0049 118.968C88.9083 120.44 76.4034 120.864 66.8871 109.18C63.9618 105.595 59.9982 101.694 55.6012 98.0095C53.7412 101.125 53.344 111.988 56.3325 114.074C62.8151 118.598 75.7895 136.595 92.9171 136.595C112.735 136.595 131.091 115.916 131.091 100.737C131.091 85.5662 126.639 79.8051 126.928 67.0819C127.163 56.3181 135 51.1801 135 45.7892Z" fill="url(#paint1_linear_206_1435)"/>
<path d="M57.3614 97.495C54.1833 94.6777 46.6534 86.668 41.7598 82.749C36.8663 78.8299 32.5866 78.8841 29.6433 83.2005C26.709 87.5168 35.2682 95.1111 37.2274 97.0706C40.2249 100.069 52.522 111.428 56.3141 114.083" fill="url(#paint2_linear_206_1435)"/>
<path d="M71.121 82.0183C70.7509 82.8762 68.2589 83.4631 63.2931 78.0632C59.5011 73.9366 49.3438 62.0712 43.3487 56.6803C37.3536 51.2985 32.7038 49.0952 28.7853 51.9035C24.8669 54.7208 27.097 60.5813 31.4759 65.4845C36.8931 71.5436 43.123 77.7201 49.091 83.6528C53.7588 88.2942 64.3224 98.0917 63.1577 99.2565" fill="url(#paint3_linear_206_1435)"/>
<path d="M90.7046 55.3339C87.1563 49.7082 72.5929 31.5942 69.0446 26.4562C65.4962 21.3181 60.72 21.3181 57.4245 23.6388C54.12 25.9595 53.1448 30.6099 60.5755 40.4977C65.2615 46.7284 69.1709 52.4714 78.5338 62.8017L89.4225 62.0432L90.7046 55.3339Z" fill="url(#paint4_linear_206_1435)"/>
<path d="M76.8732 65.8633C75.2841 64.274 61.2173 47.5956 58.0302 44.0197C52.0622 37.3195 44.5051 22.9708 35.4853 29.3641C30.7452 32.7232 33.3094 37.5904 34.6637 39.5499C36.009 41.5094 53.5068 61.7005 55.2222 63.4162C56.9377 65.1319 71.492 81.1601 71.1309 82.018" fill="url(#paint5_linear_206_1435)"/>
<path d="M49.1 83.6705C53.506 88.0501 63.1577 97.0168 63.2571 98.9943C64.6475 96.8181 62.1014 90.3708 59.4108 88.1043C43.8724 75.0108 28.8486 53.9078 26.9435 54.5399C26.1219 57.6101 28.1985 61.827 31.485 65.5022C36.8932 71.5523 43.132 77.7379 49.1 83.6705Z" fill="url(#paint6_linear_206_1435)"/>
<path d="M78.5248 62.8019C80.2312 64.6802 81.7571 67.1273 81.2785 67.9129C86.9576 63.3437 74.9494 49.9342 68.1508 41.8795C62.8871 35.6488 61.4605 27.7205 57.6865 23.4674C57.5963 23.5216 57.506 23.5848 57.4157 23.648C54.1112 25.9687 53.1361 30.6192 60.5667 40.507C65.2616 46.7376 69.162 52.4717 78.5248 62.8019Z" fill="url(#paint7_linear_206_1435)"/>
<path d="M55.2215 63.416C56.9369 65.1317 71.4913 81.1598 71.1301 82.0177C75.6264 75.9586 58.1919 58.1515 49.75 49.1577C42.4277 41.3558 41.1727 34.5291 34.0309 30.6914C31.3765 33.897 33.4892 37.8341 34.663 39.5498C36.0082 41.5093 53.506 61.7003 55.2215 63.416Z" fill="url(#paint8_linear_206_1435)"/>
<path d="M70.7968 82.3701C70.2821 82.6861 69.2345 82.7132 67.6182 81.7742C68.8192 82.7583 69.9389 83.1285 70.7968 82.3701Z" fill="url(#paint9_linear_206_1435)"/>
<path d="M39.3759 114.508C39.2676 114.508 39.1592 114.49 39.0509 114.463C27.8823 111.058 15.7837 98.8497 13.1564 88.3387C13.0119 87.7518 13.364 87.1468 13.9599 87.0023C14.5468 86.8578 15.1517 87.21 15.2962 87.806C17.7159 97.4952 29.345 109.198 39.6919 112.359C40.2698 112.539 40.6039 113.153 40.4233 113.731C40.2788 114.201 39.8454 114.508 39.3759 114.508Z" fill="#955500"/>
<path d="M44.6942 128.369C44.613 128.369 44.5317 128.359 44.4415 128.341C35.196 126.192 24.4608 119.284 14.9806 109.397C6.11441 100.15 0.372131 90.3162 0.00195193 83.7333C-0.0341631 83.1283 0.435332 82.6046 1.04026 82.5685C1.64518 82.5324 2.16884 83.0019 2.20496 83.6069C2.53902 89.5938 8.182 99.1204 16.5697 107.87C25.761 117.46 36.1079 124.133 44.947 126.192C45.5429 126.328 45.9041 126.924 45.7687 127.511C45.6513 128.025 45.1999 128.369 44.6942 128.369Z" fill="#955500"/>
<path d="M92.0498 31.9649C91.5622 31.9649 91.1198 31.6398 90.9844 31.1431C89.4314 25.2646 82.398 16.8215 75.9876 15.16C75.4007 15.0065 75.0486 14.4105 75.193 13.8146C75.3465 13.2276 75.9424 12.8754 76.5383 13.0199C83.7614 14.8891 91.3726 23.9914 93.1151 30.5743C93.2686 31.1612 92.9165 31.7662 92.3297 31.9197C92.2394 31.9558 92.1401 31.9649 92.0498 31.9649Z" fill="#955500"/>
<path d="M105.936 33.9243C105.449 33.9243 104.997 33.5902 104.871 33.0935C100.736 16.8396 85.3057 4.16149 76.5027 2.58125C75.9068 2.47289 75.5096 1.90398 75.6179 1.29897C75.7263 0.702995 76.2951 0.305693 76.9 0.414053C86.5066 2.13878 102.605 15.2051 107.02 32.5517C107.173 33.1387 106.812 33.7437 106.225 33.8881C106.117 33.9152 106.027 33.9243 105.936 33.9243Z" fill="#955500"/>
<path d="M127.109 41.9969C130.847 41.3287 131.506 41.7531 130.838 41.0668C129.014 40.3895 127.073 40.1548 126.07 40.1548C122.152 40.1548 112.121 45.1754 112.121 58.3863C112.121 63.5244 110.649 68.1748 105.395 68.1748C103.318 68.1748 101.151 67.0461 99.0654 65.3484C108.302 75.5794 115.552 65.9444 116.653 59.3345C117.755 52.7245 116.148 43.9745 127.109 41.9969Z" fill="url(#paint10_radial_206_1435)"/>
<path d="M56.2873 24.6411C54.003 27.2237 54.0752 31.8651 60.5669 40.4977C65.2528 46.7284 69.1623 52.4715 78.5251 62.8017C80.3038 64.7612 81.8928 67.3257 81.2157 68.003C82.7776 57.2935 67.5461 46.7736 62.5894 38.6917C58.6709 32.2985 57.8854 28.524 56.2873 24.6411Z" fill="url(#paint11_linear_206_1435)"/>
<path d="M55.2218 63.4161C56.9372 65.1318 71.4916 81.1601 71.1304 82.0179C74.3447 79.7243 72.1507 76.1575 67.1849 71.191C57.0095 61.0142 42.8433 47.3337 37.1462 36.0733C36.6044 35.0078 35.6113 34.2222 34.4285 34.0687C31.3587 33.6713 33.634 38.0599 34.6633 39.5589C36.0085 41.5094 53.5063 61.7004 55.2218 63.4161Z" fill="url(#paint12_linear_206_1435)"/>
<path d="M31.4857 65.4923C36.9029 71.5514 43.1327 77.7279 49.1007 83.6606C53.7686 88.302 64.3322 98.0995 63.1675 99.2644C69.7133 93.7561 39.3045 73.827 26.9352 54.5299C26.1226 57.6001 28.1992 61.8171 31.4857 65.4923Z" fill="url(#paint13_linear_206_1435)"/>
<path d="M61.8309 100.376C62.4539 100.132 62.7789 99.8432 62.8782 99.5271C61.7586 100.394 60.2779 100.078 57.3616 97.4954C54.1834 94.678 46.6534 86.6684 41.7598 82.7494C39.6109 81.0246 37.5794 80.0765 35.7285 79.9139C38.383 81.5664 37.155 82.1714 43.0509 86.6955C46.2019 89.1155 57.7859 101.965 61.8309 100.376Z" fill="url(#paint14_linear_206_1435)"/>
<path d="M54.1203 71.0014C58.418 76.2298 66.7967 84.8715 70.5617 82.4785C69.5234 82.8307 67.1578 82.2618 63.2935 78.0538C59.5014 73.9271 49.3441 62.0618 43.349 56.6709C38.4915 52.3094 34.5188 50.0338 31.106 50.8285C41.0557 54.1154 50.0483 66.053 54.1203 71.0014Z" fill="url(#paint15_linear_206_1435)"/>
<path d="M58.77 48.4801C65.6318 55.9388 75.7982 70.7299 80.9627 68.1473C80.114 68.4092 78.2992 67.2804 76.8817 65.8627C75.2926 64.2734 61.2258 47.5952 58.0386 44.0193C53.9035 39.3779 49.0099 31.0704 43.394 28.5239C49.0551 32.9847 53.2083 42.4391 58.77 48.4801Z" fill="url(#paint16_linear_206_1435)"/>
<path d="M99.0559 65.3574C95.8507 62.7387 92.8532 58.7475 90.7043 55.3341C87.156 49.7085 72.5927 31.5944 69.0444 26.4563C67.961 24.8941 66.7692 23.8015 65.5322 23.1152C67.1845 25.4901 68.1144 28.8764 71.8523 33.0663C77.8474 39.7936 85.6753 51.9118 88.3749 56.0746C91.0655 60.2284 95.4083 69.0055 99.0559 65.3574Z" fill="url(#paint17_linear_206_1435)"/>
<path d="M118.685 125.082C116.455 119.664 113.205 116.368 108.501 119.465C95.6707 127.908 80.9087 125.064 62.4088 110.101C45.9043 96.7548 37.3721 87.2102 29.3455 83.7607C27.4224 88.1493 35.3587 95.1927 37.2367 97.0709C40.2342 100.069 52.5314 111.429 56.3234 114.083C62.8061 118.607 75.7804 136.604 92.9079 136.604C102.469 136.595 111.697 131.773 118.685 125.082Z" fill="url(#paint18_linear_206_1435)"/>
<path d="M126.919 67.0821C127.163 56.3094 134.991 51.1714 134.991 45.7895C134.991 44.2002 134.169 43.0444 132.995 42.1956C134.431 46.3855 131.018 50.1058 125.935 56.4358C120.427 63.2896 119.209 73.9359 123.001 84.5822C126.793 95.2286 122.026 109.911 114.315 114.562C106.604 119.212 96.3658 139.647 67.0404 116.557C67.0314 116.548 67.0314 116.548 67.0223 116.539C65.2346 114.878 63.465 113.406 61.6683 112.295C49.2808 104.62 42.2294 97.7208 36.8934 91.9236C35.8461 90.7858 33.0291 86.4063 29.6704 87.8511C31.3498 91.6527 35.8731 95.7071 37.2274 97.0707C40.225 100.069 52.5222 111.428 56.3143 114.083C56.8108 114.426 57.3435 114.851 57.9123 115.338C58.0568 115.465 58.2103 115.591 58.3638 115.727C58.3999 115.763 58.445 115.799 58.4812 115.835C58.5805 115.925 58.6707 116.007 58.7701 116.097C58.7881 116.115 58.8152 116.133 58.8333 116.16C62.6795 119.655 67.9794 125.443 74.471 129.967C74.471 129.967 74.4801 129.967 74.4801 129.976C75.0489 130.373 75.6268 130.761 76.2136 131.141C76.2226 131.15 76.2317 131.15 76.2407 131.159C76.8276 131.529 77.4144 131.89 78.0194 132.233C78.0284 132.233 78.0284 132.242 78.0374 132.242C82.5337 134.825 87.5086 136.604 92.8897 136.604C112.708 136.604 131.063 115.925 131.063 100.746C131.081 85.5665 126.63 79.8054 126.919 67.0821Z" fill="url(#paint19_linear_206_1435)"/>
<defs>
<linearGradient id="paint0_linear_206_1435" x1="121.447" y1="140.516" x2="105.109" y2="102.243" gradientUnits="userSpaceOnUse">
<stop offset="0.00132565" stop-color="#D2A374"/>
<stop offset="1" stop-color="#DEBA94"/>
</linearGradient>
<linearGradient id="paint1_linear_206_1435" x1="135.328" y1="146.496" x2="105.712" y2="96.5701" gradientUnits="userSpaceOnUse">
<stop offset="0.00132565" stop-color="#D2A374"/>
<stop offset="1" stop-color="#DEBA94"/>
</linearGradient>
<linearGradient id="paint2_linear_206_1435" x1="33.123" y1="86.6839" x2="53.3141" y2="101.55" gradientUnits="userSpaceOnUse">
<stop offset="0.00132565" stop-color="#D2A374"/>
<stop offset="1" stop-color="#DEBA94"/>
</linearGradient>
<linearGradient id="paint3_linear_206_1435" x1="25.7716" y1="47.3308" x2="61.1993" y2="84.4055" gradientUnits="userSpaceOnUse">
<stop offset="0.00132565" stop-color="#D2A374"/>
<stop offset="1" stop-color="#DEBA94"/>
</linearGradient>
<linearGradient id="paint4_linear_206_1435" x1="64.0319" y1="29.836" x2="84.5919" y2="62.1404" gradientUnits="userSpaceOnUse">
<stop offset="0.00132565" stop-color="#D2A374"/>
<stop offset="1" stop-color="#DEBA94"/>
</linearGradient>
<linearGradient id="paint5_linear_206_1435" x1="42.8133" y1="35.2031" x2="70.7159" y2="72.8911" gradientUnits="userSpaceOnUse">
<stop offset="0.00132565" stop-color="#D2A374"/>
<stop offset="1" stop-color="#DEBA94"/>
</linearGradient>
<linearGradient id="paint6_linear_206_1435" x1="52.9646" y1="69.3494" x2="41.2536" y2="80.3799" gradientUnits="userSpaceOnUse">
<stop stop-color="#F0C492" stop-opacity="0"/>
<stop offset="1" stop-color="#D2A374"/>
</linearGradient>
<linearGradient id="paint7_linear_206_1435" x1="75.9916" y1="39.7512" x2="58.3698" y2="55.6575" gradientUnits="userSpaceOnUse">
<stop stop-color="#F0C492" stop-opacity="0"/>
<stop offset="1" stop-color="#D2A374"/>
</linearGradient>
<linearGradient id="paint8_linear_206_1435" x1="59.7841" y1="51.0852" x2="35.5549" y2="68.7959" gradientUnits="userSpaceOnUse">
<stop stop-color="#F0C492" stop-opacity="0"/>
<stop offset="1" stop-color="#D2A374"/>
</linearGradient>
<linearGradient id="paint9_linear_206_1435" x1="77.8334" y1="75.7762" x2="53.6051" y2="93.491" gradientUnits="userSpaceOnUse">
<stop stop-color="#F0C492" stop-opacity="0"/>
<stop offset="1" stop-color="#D2A374"/>
</linearGradient>
<radialGradient id="paint10_radial_206_1435" cx="0" cy="0" r="1" gradientUnits="userSpaceOnUse" gradientTransform="translate(109.639 47.0117) scale(29.0839 29.0879)">
<stop stop-color="#DEBA94" stop-opacity="0"/>
<stop offset="1" stop-color="#D2A374"/>
</radialGradient>
<linearGradient id="paint11_linear_206_1435" x1="79.2162" y1="36.6267" x2="64.1643" y2="50.5754" gradientUnits="userSpaceOnUse">
<stop offset="0.3072" stop-color="#D2A374" stop-opacity="0"/>
<stop offset="1" stop-color="#D2A374"/>
</linearGradient>
<linearGradient id="paint12_linear_206_1435" x1="67.6915" y1="44.1884" x2="47.8669" y2="62.0524" gradientUnits="userSpaceOnUse">
<stop offset="0.3072" stop-color="#D2A374" stop-opacity="0"/>
<stop offset="1" stop-color="#D2A374"/>
</linearGradient>
<linearGradient id="paint13_linear_206_1435" x1="60.9929" y1="63.5126" x2="36.5185" y2="84.0682" gradientUnits="userSpaceOnUse">
<stop offset="0.3072" stop-color="#D2A374" stop-opacity="0"/>
<stop offset="1" stop-color="#D2A374"/>
</linearGradient>
<linearGradient id="paint14_linear_206_1435" x1="34.29" y1="78.4482" x2="62.7415" y2="101.573" gradientUnits="userSpaceOnUse">
<stop offset="0.3118" stop-color="#DEBA94" stop-opacity="0"/>
<stop offset="1" stop-color="#D2A374"/>
</linearGradient>
<linearGradient id="paint15_linear_206_1435" x1="39.7352" y1="49.7796" x2="61.9474" y2="83.5523" gradientUnits="userSpaceOnUse">
<stop offset="0.3118" stop-color="#D2A374" stop-opacity="0"/>
<stop offset="1" stop-color="#D2A374"/>
</linearGradient>
<linearGradient id="paint16_linear_206_1435" x1="57.1307" y1="52.1917" x2="63.3716" y2="47.4199" gradientUnits="userSpaceOnUse">
<stop offset="0.3118" stop-color="#F0C492" stop-opacity="0"/>
<stop offset="1" stop-color="#D2A374"/>
</linearGradient>
<linearGradient id="paint17_linear_206_1435" x1="82.8954" y1="41.0435" x2="71.3908" y2="102.475" gradientUnits="userSpaceOnUse">
<stop offset="0.3118" stop-color="#DEBA94" stop-opacity="0"/>
<stop offset="1" stop-color="#D2A374"/>
</linearGradient>
<linearGradient id="paint18_linear_206_1435" x1="77.1478" y1="98.9477" x2="59.7694" y2="129.295" gradientUnits="userSpaceOnUse">
<stop offset="0.00132565" stop-color="#D2A374"/>
<stop offset="1" stop-color="#DEBA94"/>
</linearGradient>
<linearGradient id="paint19_linear_206_1435" x1="133.401" y1="167.971" x2="60.7045" y2="23.3323" gradientUnits="userSpaceOnUse">
<stop offset="0.00132565" stop-color="#D2A374"/>
<stop offset="1" stop-color="#DEBA94"/>
</linearGradient>
</defs>
</svg>
