<svg width="143" height="137" viewBox="0 0 143 137" fill="none" xmlns="http://www.w3.org/2000/svg">
<path d="M62.413 73.9903C57.9842 80.5433 51.7018 84.0372 48.3802 81.79C45.0585 79.5427 45.9607 72.4156 50.3896 65.8625C54.8184 59.3095 61.1008 55.8156 64.4224 58.0628C67.7441 60.31 66.8419 67.4372 62.413 73.9903Z" fill="url(#paint0_linear_206_1439)"/>
<path d="M62.413 73.9903C57.9842 80.5433 51.7018 84.0372 48.3802 81.79C45.0585 79.5427 45.9607 72.4156 50.3896 65.8625C54.8184 59.3095 61.1008 55.8156 64.4224 58.0628C67.7441 60.31 66.8419 67.4372 62.413 73.9903Z" fill="url(#paint1_linear_206_1439)"/>
<path d="M116.158 112.079C107.3 112.079 106.923 118.861 96.3673 118.861C85.8118 118.861 80.161 114.523 70.3601 108.683C62.1831 103.812 52.5791 104.82 47.5352 103.803L54.3096 106.485C54.3096 106.485 58.3448 115.458 68.9823 120.805C84.4012 128.564 102.666 119.632 110.605 120.174C120.488 120.854 132.717 123.011 134.989 122.839C133.865 121.945 132.93 112.079 116.158 112.079Z" fill="url(#paint2_linear_206_1439)"/>
<path d="M116.158 112.079C107.3 112.079 106.923 118.861 96.3673 118.861C85.8118 118.861 80.161 114.523 70.3601 108.683C62.1831 103.812 52.5791 104.82 47.5352 103.803L54.3096 109.495C54.3096 109.495 58.3448 115.45 68.9823 120.805C84.4012 128.564 102.666 119.632 110.605 120.174C120.488 120.854 132.717 123.011 134.989 122.839C133.865 121.945 132.93 112.079 116.158 112.079Z" fill="url(#paint3_linear_206_1439)"/>
<path d="M116.158 112.077C107.3 112.077 106.923 118.86 96.3673 118.86C85.8118 118.86 80.161 114.522 70.3601 108.682C62.1831 103.81 52.5791 104.819 47.5352 106.82L54.3096 109.502C54.3096 109.502 56.7209 113.021 62.6506 117.072C63.3642 116.539 63.7087 118.516 63.5282 116.793C61.9699 101.842 77.5365 120.705 91.4792 120.328C107.136 119.926 116.158 112.077 116.158 112.077Z" fill="url(#paint4_linear_206_1439)"/>
<path d="M25.7766 91.1643L9.34067 114.891C7.9136 116.95 3.64056 127.62 0.95865 134.469C0.318927 136.109 2.06589 137.315 3.36994 136.134C8.75017 131.303 17.1158 123.749 19.117 121.658L36.5781 96.4625C31.5915 96.3641 27.3595 95.0765 25.7766 91.1643Z" fill="url(#paint5_linear_206_1439)"/>
<path d="M1.10645 136.026C1.57394 136.674 2.55817 136.863 3.37013 136.133C8.75036 131.302 17.116 123.748 19.1171 121.657L36.5783 96.4618C35.0446 96.429 33.6093 96.265 32.2724 95.9697L17.1324 117.786C16.1154 118.795 9.93954 127.464 1.10645 136.026Z" fill="url(#paint6_linear_206_1439)"/>
<path d="M27.245 93.5919C26.1049 92.8045 26.3346 92.5503 25.7769 91.1642L9.34095 114.891C7.91388 116.95 3.64084 127.62 0.95893 134.468C0.319207 136.109 10.2021 118.18 11.4569 116.359L27.245 93.5919Z" fill="url(#paint7_linear_206_1439)"/>
<path d="M47.4945 116.794C54.0312 124.085 59.8051 125.963 65.2099 125.963C70.6147 125.963 71.7465 123.322 70.6147 121.378C69.4829 119.435 66.2187 115.539 61.0681 114.784C55.9175 114.03 51.5214 102.343 51.5214 102.343L45.116 102.219L39.0879 109.757L47.4945 116.794Z" fill="url(#paint8_linear_206_1439)"/>
<path d="M47.4945 116.794C54.0312 124.085 59.8051 125.963 65.2099 125.963C70.6147 125.963 71.7465 123.322 70.6147 121.378C69.4829 119.435 66.2187 115.539 61.0681 114.784C55.9175 114.03 51.5214 102.343 51.5214 102.343L45.116 102.219L39.0879 109.757L47.4945 116.794Z" fill="url(#paint9_linear_206_1439)"/>
<path d="M50.3238 118.623C48.0848 114.416 51.4064 111.209 55.9091 110.692C53.2928 107.059 51.513 102.343 51.513 102.343L45.1076 102.22L41.8188 106.329L41.4087 107.502C41.4087 107.502 52.8991 123.462 50.3238 118.623Z" fill="url(#paint10_linear_206_1439)"/>
<path d="M51.5132 102.343C52.7352 104.869 53.9572 107.387 55.5565 109.675C57.1394 111.865 58.9684 114.301 61.7487 114.53C64.5865 115.105 67.1536 116.712 69.0481 118.836C69.9175 119.943 70.9837 121.001 71.1805 122.552C71.2708 124.175 69.7945 125.209 68.4904 125.529C69.7863 125.094 71.0329 123.954 70.8115 122.584C70.5982 121.305 69.5074 120.231 68.6216 119.238C66.7107 117.278 64.283 115.761 61.6011 115.269C60.1986 115.129 58.7305 114.334 57.7381 113.333C56.6965 112.332 55.819 111.201 55.0726 109.987C54.3263 108.781 53.6619 107.534 53.0632 106.263C52.4973 104.976 52.0299 103.639 51.5132 102.343Z" fill="#804B24"/>
<path d="M36.3073 117.926C38.1937 124.463 45.9852 129.105 51.3818 128.605C54.7608 128.293 55.6549 123.077 51.6361 119.058C47.6173 115.039 45.0912 108.101 45.0912 108.101L41.4579 96.8237L35.8071 111.275L32.1655 119.066L36.3073 117.926Z" fill="url(#paint11_linear_206_1439)"/>
<path d="M36.3073 117.926C38.1937 124.463 45.9852 129.105 51.3818 128.605C54.7608 128.293 55.6549 123.077 51.6361 119.058C47.6173 115.039 45.0912 108.101 45.0912 108.101L41.4579 96.8237L35.8071 111.275L32.1655 119.066L36.3073 117.926Z" fill="url(#paint12_linear_206_1439)"/>
<path d="M48.1011 114.309C46.2066 111.102 45.0911 108.092 45.0911 108.092L43.2458 102.359L39.1533 102.712L35.807 111.266L33.896 115.35L35.1672 118.237L36.3073 117.926C37.1685 120.903 39.2763 123.453 41.7942 125.332C39.1451 120.509 43.295 114.981 48.1011 114.309Z" fill="url(#paint13_linear_206_1439)"/>
<path d="M54.2853 125.216C54.2443 123.027 53.1289 121.075 51.6772 119.574C50.1025 118.04 48.8887 116.154 47.8307 114.259C45.7147 110.445 43.9841 106.443 42.5898 102.334C44.4598 106.246 46.3216 110.158 48.454 113.898C49.5694 115.735 50.6274 117.605 52.1529 119.123C53.6538 120.771 54.6134 123.035 54.2853 125.216Z" fill="#804B24"/>
<path d="M22.7749 116.146C22.7749 121.985 30.1481 128.604 34.5523 128.604C38.9566 128.604 39.0796 122.699 38.325 120.435C37.5705 118.172 36.4634 113.193 36.4634 113.193L32.6742 110.757L22.7749 116.146Z" fill="url(#paint14_linear_206_1439)"/>
<path d="M22.7749 116.146C22.7749 121.985 30.1481 128.604 34.5523 128.604C38.9566 128.604 39.0796 122.699 38.325 120.435C37.5705 118.172 36.4634 113.193 36.4634 113.193L32.6742 110.757L22.7749 116.146Z" fill="url(#paint15_linear_206_1439)"/>
<path d="M37.2097 116.392C36.7914 114.678 36.4551 113.193 36.4551 113.193L32.666 110.757L22.7749 116.146C22.7749 119.722 25.5388 123.576 28.6965 126.037C27.8107 121.083 33.8716 117.794 37.2097 116.392Z" fill="url(#paint16_linear_206_1439)"/>
<path d="M38.0869 126.168C38.4888 124.708 38.456 123.216 38.2673 121.78C38.0295 120.411 37.4061 118.926 37.1355 117.466C36.4137 114.547 35.8315 111.594 35.3804 108.617C36.2825 111.487 37.0617 114.391 37.8163 117.294C38.1525 118.779 38.7102 120.091 38.9235 121.698C39.0629 123.24 38.8332 124.84 38.0869 126.168Z" fill="#804B24"/>
<path d="M15.0735 107.248C15.2293 113.874 21.356 116.606 26.2523 116.606C31.1487 116.606 41.5072 110.733 45.0831 108.092C48.6672 105.451 60.5512 102.843 70.3521 108.683C80.153 114.522 85.8039 118.861 96.3593 118.861C106.915 118.861 107.292 112.078 116.15 112.078C134.808 112.078 133.865 124.331 135.374 122.822C136.883 121.313 142.346 108.691 142.346 96.6265C142.346 88.6464 140.443 84.4143 139.163 80.4366C138.597 78.6814 136.875 77.648 135.046 77.8695C121.924 79.4524 102.486 63.3281 89.1994 56.8571C74.8794 49.8857 63.1921 42.5371 54.5231 42.5371C45.854 42.5371 17.7718 58.1775 14.1878 61.7616C10.6037 65.3457 9.10278 69.4875 9.10278 74.5807C9.10278 79.6738 5.896 91.7301 5.896 102.097C5.896 110.389 7.94637 113.489 10.8825 111.709C11.6207 111.258 12.4162 110.504 13.2446 109.446C13.507 109.142 15.0817 107.74 15.0735 107.248C15.0735 103.286 18.1492 98.1766 23.4638 93.5919C24.2265 92.9358 24.8498 91.0904 25.3747 89.6551C25.3747 89.6551 26.8838 82.4952 28.3929 79.2227C29.902 75.9585 32.1656 73.9491 35.6841 73.1946C45.7064 71.0458 53.2765 57.9889 58.304 61.0071C63.3316 64.0252 58.0498 75.5976 47.9947 79.1161C37.9395 82.6346 32.6659 86.637 25.8832 91.6645C19.1005 96.6921 15.0735 102.72 15.0735 107.248Z" fill="url(#paint17_linear_206_1439)"/>
<path d="M135.046 77.8692C121.924 79.4521 102.486 63.3278 89.1995 56.8567C78.4554 51.6241 69.1958 46.1865 61.5848 43.7916L58.2959 61.0067C59.3129 61.6136 59.8624 62.442 60.0346 63.3934C60.1823 63.9347 60.2151 64.5334 60.1905 65.1649C60.1905 65.2305 60.1823 65.2961 60.1823 65.3618C60.1413 66.0015 60.0182 66.674 59.8132 67.3711C70.9427 55.241 77.9469 54.183 84.3769 56.8075C95.3342 61.2774 107.563 79.6161 122.449 79.6161C137.269 79.6161 141.189 88.3754 141.222 88.4328C140.591 85.1768 139.803 82.4128 139.172 80.4445C138.885 79.5669 138.319 78.8697 137.589 78.4187C136.875 77.984 136.006 77.7871 135.112 77.8774C135.087 77.8774 135.071 77.8692 135.046 77.8692Z" fill="url(#paint18_radial_206_1439)"/>
<path d="M89.2076 56.8565C81.0963 52.9116 73.8378 48.8436 67.4816 46.0551L60.6333 61.2772C63.0938 59.1612 68.1296 57.7669 78.4635 60.4406C99.5744 65.9029 111.442 95.1168 122.186 94.6822C131.872 94.2885 131.487 87.6452 141.673 91.0325C141.001 86.6446 139.967 82.9129 139.172 80.436C138.893 79.5585 138.319 78.8613 137.589 78.4102C136.859 77.9592 135.973 77.7623 135.054 77.8689C121.924 79.4518 102.486 63.3276 89.2076 56.8565Z" fill="url(#paint19_linear_206_1439)"/>
<path d="M58.2958 61.0062C63.3233 64.0244 58.0416 75.5968 47.9865 79.1153C40.4 81.7726 35.5283 84.7087 30.6812 88.1452C37.1932 84.2577 44.6156 83.7492 50.2582 80.9934C63.758 74.4076 63.8893 59.5709 63.8893 59.5709L58.2958 61.0062Z" fill="url(#paint20_linear_206_1439)"/>
<path d="M54.5231 42.5371C45.854 42.5371 17.7718 58.1775 14.1878 61.7616C10.6037 65.3457 9.10278 69.4875 9.10278 74.5806C9.10278 79.6738 5.896 91.7301 5.896 102.097C5.896 103.344 5.94522 104.459 6.03544 105.476C8.16785 94.5843 10.1198 68.4541 16.0331 63.4101C23.3161 57.1933 48.5769 42.4879 59.6901 44.1856C60.7891 44.3497 61.6339 44.2676 62.3638 44.0626C59.5343 43.103 56.9097 42.5371 54.5231 42.5371Z" fill="url(#paint21_linear_206_1439)"/>
<path d="M139.171 80.4363C138.606 78.6812 136.883 77.6478 135.054 77.8692C123.867 79.2143 108.104 66.8873 95.4653 60.0964C95.4243 68.052 96.1296 76.1879 94.9322 83.3807C89.6832 100.44 77.0117 104.934 61.6338 105.566C64.5535 106.05 67.539 107.009 70.3603 108.691C80.1612 114.53 85.812 118.869 96.3675 118.869C106.923 118.869 107.3 112.086 116.158 112.086C134.816 112.086 133.873 124.339 135.382 122.83C136.891 121.321 142.354 108.699 142.354 96.6344C142.354 88.6461 140.451 84.4141 139.171 80.4363Z" fill="url(#paint22_radial_206_1439)"/>
<path d="M59.6406 62.3196C59.7554 62.5082 59.8292 62.7132 59.8948 62.9183L60.633 61.278C60.2475 61.6142 59.9113 61.9587 59.6406 62.3196Z" fill="url(#paint23_linear_206_1439)"/>
<path d="M25.3749 89.6548C25.3749 89.6548 26.8839 82.4948 28.393 79.2224C29.9021 75.9581 32.1658 73.9488 35.6842 73.1942C37.3984 72.8251 39.0304 72.128 40.5969 71.2586C47.6093 64.2627 56.4588 47.9416 53.7113 50.8695C36.2583 69.4379 36.3239 65.2879 28.9753 72.6365C21.6267 79.9851 23.7919 88.1867 19.929 92.0496C16.5663 95.4123 10.1281 103.425 10.8908 111.692C11.629 111.25 12.4246 110.503 13.2611 109.445C13.5154 109.142 15.0983 107.747 15.0819 107.247C15.0819 107.247 14.7948 104.721 17.1159 100.932C17.1323 100.907 17.1569 100.883 17.1733 100.858C18.6086 98.4469 20.7409 95.9536 23.4721 93.5997C23.7263 93.2471 23.9724 92.8698 24.2266 92.5007C24.6531 91.656 25.0386 90.5815 25.3749 89.6548Z" fill="url(#paint24_linear_206_1439)"/>
<path d="M135.383 122.823C135.965 122.24 137.138 119.985 138.36 116.762C126.303 101.597 111.77 105.517 107.423 109.257C102.896 113.153 95.2359 117.672 85.8123 113.785C76.3887 109.889 73.1245 96.8237 60.1824 96.8237C47.2403 96.8237 37.9398 104.927 31.9116 107.945C26.638 110.586 21.4464 110.414 15.246 105.107L15.0737 107.256C15.2378 114.26 21.7417 116.614 26.2525 116.614C31.1489 116.614 41.5074 110.742 45.0833 108.101C48.6674 105.46 60.5514 102.852 70.3523 108.691C80.1532 114.531 85.8041 118.87 96.3596 118.87C106.915 118.87 107.292 112.087 116.15 112.087C134.817 112.079 133.874 124.332 135.383 122.823Z" fill="url(#paint25_radial_206_1439)"/>
<path d="M135.382 122.822C135.883 122.322 136.818 120.55 137.843 118.033C136.547 115.646 134.136 113.661 130.174 112.398C108.875 105.615 108.875 116.925 92.8572 117.385C76.8395 117.852 71.7463 100.9 62.7 100.9C42.7455 100.9 32.6412 115.564 18.6411 114.219C20.9129 115.892 23.8492 116.589 26.2522 116.589C31.1486 116.589 41.5071 110.717 45.083 108.076C48.6671 105.435 60.5511 102.827 70.352 108.666C80.1529 114.506 85.8038 118.845 96.3592 118.845C106.915 118.845 107.292 112.062 116.15 112.062C134.816 112.078 133.873 124.331 135.382 122.822Z" fill="url(#paint26_linear_206_1439)"/>
<path d="M23.4651 93.5914C23.4566 93.5999 23.448 93.6085 23.4395 93.6085C23.4565 93.5999 23.4566 93.5999 23.4651 93.5914Z" fill="url(#paint27_linear_206_1439)"/>
<path d="M64.7014 73.1126C69.4173 72.235 71.8367 70.16 75.6587 69.4547C79.4806 68.7494 96.6957 67.1255 98.1556 75.3927C99.6154 83.6598 87.5756 88.3839 80.5304 91.8778C73.4853 95.3717 55.3926 93.5673 53.0798 87.0061C50.7669 80.4448 57.2872 74.4905 64.7014 73.1126Z" fill="url(#paint28_radial_206_1439)"/>
<path d="M33.6993 68.8067C31.3947 71.3574 27.6466 70.9555 25.7848 73.0141C23.923 75.0727 17.5668 95.2978 13.138 91.1642C8.70912 87.0306 12.8919 72.6286 15.377 67.5682C17.8621 62.5079 39.0631 48.9425 43.2377 51.7146C47.4041 54.4867 37.3162 64.8043 33.6993 68.8067Z" fill="url(#paint29_radial_206_1439)"/>
<path d="M97.8522 5.68708C97.2371 4.63728 96.1873 3.1938 94.6536 2.1276C93.1281 1.0696 91.4468 0.618511 90.2657 0.421673C89.3882 0.274045 88.4532 0.708728 87.8873 1.52889L25.7686 91.1639C25.826 91.3115 25.9162 91.4263 25.9818 91.5657C26.3754 91.2705 26.7364 90.9506 27.1136 90.6472L26.9086 90.8932C33.2074 86.2265 38.4564 82.4456 47.9866 79.1076C48.2901 79.0009 48.5689 78.8451 48.8641 78.7303L52.6533 73.2598L97.6553 8.31979C98.2376 7.49963 98.3115 6.45803 97.8522 5.68708Z" fill="url(#paint30_linear_206_1439)"/>
<path d="M32.8712 85.4643L88.7896 4.67058C90.3479 2.09528 91.0286 0.545185 90.274 0.422161C89.3965 0.274533 88.4615 0.709216 87.8956 1.52937L25.7769 91.1644C25.8507 91.3448 25.8835 91.4678 25.9409 91.6154C28.426 89.7701 30.6076 87.6213 32.8712 85.4643Z" fill="url(#paint31_radial_206_1439)"/>
<path d="M97.6634 8.32021C97.729 8.22179 97.77 8.10697 97.8274 8.00035C97.9997 7.67229 98.1227 7.32782 98.1473 6.98336C98.1801 6.52407 98.0818 6.07298 97.8521 5.68751C97.8439 5.67111 97.8356 5.6547 97.8274 5.6465C97.483 5.05599 96.9909 4.35885 96.3676 3.66992L42.4751 81.3224C44.1646 80.5679 45.969 79.8297 47.9947 79.1244C48.2982 79.0178 48.5771 78.8619 48.8723 78.7471L52.6615 73.2767L97.6634 8.32021Z" fill="url(#paint32_linear_206_1439)"/>
<path d="M116.158 112.078C113.378 112.078 110.663 112.98 108.408 114.58C106.152 116.13 103.84 117.811 101.092 118.484C95.6215 119.697 89.864 118.918 84.6806 116.917C79.4972 114.834 74.8879 111.676 70.1228 108.912C65.4069 106.132 59.756 105.164 54.3348 105.673C51.6283 105.919 48.8972 106.493 46.4695 107.674C44.2059 109.052 41.8438 110.725 39.4079 111.988C36.9721 113.317 34.4706 114.539 31.8707 115.531C29.3118 116.532 26.4085 117.253 23.6281 116.589C20.8888 116.056 18.174 114.711 16.5091 112.373C14.8524 110.061 14.4342 106.928 15.3856 104.278C17.2801 98.9392 21.4957 94.9287 25.8836 91.6562C21.5696 95.0189 17.4605 99.1443 15.7382 104.385C14.8524 106.969 15.2789 109.921 16.8618 112.111C18.453 114.317 21.0692 115.597 23.7183 116.089C26.4166 116.704 29.115 116.007 31.6657 114.998C34.2246 114.006 36.6932 112.767 39.1044 111.43C41.5649 110.126 43.7219 108.551 46.1578 107.051C48.7085 105.796 51.4807 105.181 54.2692 104.918C59.8299 104.434 65.612 105.468 70.4427 108.363C75.2078 111.176 79.776 114.35 84.8692 116.441C89.9378 118.459 95.6543 119.246 101.002 118.115C103.7 117.516 106.005 115.925 108.318 114.407C110.614 112.866 113.378 112.013 116.158 112.078Z" fill="#804B24"/>
<path d="M59.6661 63.1551C59.8875 63.8112 60.0024 64.5002 59.9696 65.1973C59.5267 69.4375 56.6561 73.12 53.3673 75.7117C50.1113 78.533 45.6824 79.3532 41.7867 81.3216C37.8253 83.1341 34.1346 85.488 30.6899 88.1371C34.2986 85.734 38.0549 83.5524 41.9917 81.7809C43.9683 80.9033 45.9859 80.1241 48.0281 79.427C50.1113 78.7135 52.0878 77.6637 53.8266 76.3022C57.1892 73.5383 60.068 69.7328 60.4617 65.2219C60.4945 64.3525 60.3714 63.4586 60.0106 62.6466L59.6661 63.1551Z" fill="#804B24"/>
<defs>
<linearGradient id="paint0_linear_206_1439" x1="64.8118" y1="78.7513" x2="20.8183" y2="32.6944" gradientUnits="userSpaceOnUse">
<stop offset="0.00132565" stop-color="#FFCB4B"/>
<stop offset="1" stop-color="#FFD748"/>
</linearGradient>
<linearGradient id="paint1_linear_206_1439" x1="52.8182" y1="122.921" x2="58.1896" y2="43.4811" gradientUnits="userSpaceOnUse">
<stop stop-color="#FFBC47" stop-opacity="0"/>
<stop offset="1" stop-color="#C86F34"/>
</linearGradient>
<linearGradient id="paint2_linear_206_1439" x1="91.6505" y1="122.881" x2="92.146" y2="134.774" gradientUnits="userSpaceOnUse">
<stop offset="0.00132565" stop-color="#FFCB4B"/>
<stop offset="1" stop-color="#FFD748"/>
</linearGradient>
<linearGradient id="paint3_linear_206_1439" x1="97.5894" y1="152.118" x2="89.2812" y2="101.266" gradientUnits="userSpaceOnUse">
<stop stop-color="#FFBC47" stop-opacity="0"/>
<stop offset="1" stop-color="#C86F34"/>
</linearGradient>
<linearGradient id="paint4_linear_206_1439" x1="84.6948" y1="152.39" x2="81.6706" y2="106.859" gradientUnits="userSpaceOnUse">
<stop stop-color="#FFBC47" stop-opacity="0"/>
<stop offset="1" stop-color="#C86F34"/>
</linearGradient>
<linearGradient id="paint5_linear_206_1439" x1="-5.5124" y1="94.3154" x2="19.5769" y2="116.922" gradientUnits="userSpaceOnUse">
<stop offset="0.00132565" stop-color="#0097D4"/>
<stop offset="0.2368" stop-color="#0294D6"/>
<stop offset="0.4442" stop-color="#0989DB"/>
<stop offset="0.6411" stop-color="#1477E4"/>
<stop offset="0.8304" stop-color="#245EF0"/>
<stop offset="1" stop-color="#3640FF"/>
</linearGradient>
<linearGradient id="paint6_linear_206_1439" x1="-0.0608167" y1="97.5363" x2="18.1609" y2="115.575" gradientUnits="userSpaceOnUse">
<stop offset="0.00132565" stop-color="#0097D4"/>
<stop offset="0.2368" stop-color="#0294D6"/>
<stop offset="0.4442" stop-color="#0989DB"/>
<stop offset="0.6411" stop-color="#1477E4"/>
<stop offset="0.8304" stop-color="#245EF0"/>
<stop offset="1" stop-color="#3640FF"/>
</linearGradient>
<linearGradient id="paint7_linear_206_1439" x1="7.30946" y1="108.816" x2="18.9678" y2="116.615" gradientUnits="userSpaceOnUse">
<stop stop-color="#0097D4" stop-opacity="0"/>
<stop offset="0.3342" stop-color="#029AD7" stop-opacity="0.3342"/>
<stop offset="0.6287" stop-color="#08A3E2" stop-opacity="0.6287"/>
<stop offset="0.9072" stop-color="#13B2F4" stop-opacity="0.9072"/>
<stop offset="1" stop-color="#17B9FC"/>
</linearGradient>
<linearGradient id="paint8_linear_206_1439" x1="55.4633" y1="126.414" x2="55.9658" y2="138.476" gradientUnits="userSpaceOnUse">
<stop offset="0.00132565" stop-color="#FFCB4B"/>
<stop offset="1" stop-color="#FFD748"/>
</linearGradient>
<linearGradient id="paint9_linear_206_1439" x1="56.4843" y1="165.375" x2="54.4739" y2="97.0232" gradientUnits="userSpaceOnUse">
<stop stop-color="#FFBC47" stop-opacity="0"/>
<stop offset="1" stop-color="#C86F34"/>
</linearGradient>
<linearGradient id="paint10_linear_206_1439" x1="52.1948" y1="130.744" x2="48.9908" y2="111.143" gradientUnits="userSpaceOnUse">
<stop stop-color="#FFBC47" stop-opacity="0"/>
<stop offset="1" stop-color="#C86F34"/>
</linearGradient>
<linearGradient id="paint11_linear_206_1439" x1="43.4423" y1="126.916" x2="43.9449" y2="138.978" gradientUnits="userSpaceOnUse">
<stop offset="0.00132565" stop-color="#FFCB4B"/>
<stop offset="1" stop-color="#FFD748"/>
</linearGradient>
<linearGradient id="paint12_linear_206_1439" x1="49.0163" y1="151.899" x2="38.2107" y2="95.3582" gradientUnits="userSpaceOnUse">
<stop stop-color="#FFBC47" stop-opacity="0"/>
<stop offset="1" stop-color="#C86F34"/>
</linearGradient>
<linearGradient id="paint13_linear_206_1439" x1="41.9295" y1="130.134" x2="40.9871" y2="114.68" gradientUnits="userSpaceOnUse">
<stop stop-color="#FFBC47" stop-opacity="0"/>
<stop offset="1" stop-color="#C86F34"/>
</linearGradient>
<linearGradient id="paint14_linear_206_1439" x1="31.0522" y1="127.431" x2="31.5548" y2="139.493" gradientUnits="userSpaceOnUse">
<stop offset="0.00132565" stop-color="#FFCB4B"/>
<stop offset="1" stop-color="#FFD748"/>
</linearGradient>
<linearGradient id="paint15_linear_206_1439" x1="35.4816" y1="139.472" x2="24.1734" y2="91.8522" gradientUnits="userSpaceOnUse">
<stop stop-color="#FFBC47" stop-opacity="0"/>
<stop offset="1" stop-color="#C86F34"/>
</linearGradient>
<linearGradient id="paint16_linear_206_1439" x1="31.6122" y1="143.655" x2="29.9788" y2="116.138" gradientUnits="userSpaceOnUse">
<stop stop-color="#FFBC47" stop-opacity="0"/>
<stop offset="1" stop-color="#C86F34"/>
</linearGradient>
<linearGradient id="paint17_linear_206_1439" x1="147.886" y1="148.383" x2="10.6792" y2="50.8815" gradientUnits="userSpaceOnUse">
<stop offset="0.00132565" stop-color="#FFCB4B"/>
<stop offset="1" stop-color="#FFD748"/>
</linearGradient>
<radialGradient id="paint18_radial_206_1439" cx="0" cy="0" r="1" gradientUnits="userSpaceOnUse" gradientTransform="translate(134.121 5.92707) scale(211.153)">
<stop stop-color="#FFBC47" stop-opacity="0"/>
<stop offset="1" stop-color="#FF8900"/>
</radialGradient>
<linearGradient id="paint19_linear_206_1439" x1="69.207" y1="58.1195" x2="119.968" y2="82.2437" gradientUnits="userSpaceOnUse">
<stop stop-color="#FFBB47" stop-opacity="0.9686"/>
<stop offset="0.0026513" stop-color="#FFBA47"/>
<stop offset="1" stop-color="#FFD748" stop-opacity="0"/>
</linearGradient>
<linearGradient id="paint20_linear_206_1439" x1="46.8882" y1="68.9061" x2="49.5268" y2="101.323" gradientUnits="userSpaceOnUse">
<stop stop-color="#FFBB47" stop-opacity="0.9686"/>
<stop offset="0.0026513" stop-color="#FFBA47"/>
<stop offset="1" stop-color="#FFD748" stop-opacity="0"/>
</linearGradient>
<linearGradient id="paint21_linear_206_1439" x1="39.9949" y1="81.7752" x2="7.76661" y2="42.7619" gradientUnits="userSpaceOnUse">
<stop stop-color="#FFBB47" stop-opacity="0.9686"/>
<stop offset="0.0026513" stop-color="#FFBA47"/>
<stop offset="1" stop-color="#FFD748" stop-opacity="0"/>
</linearGradient>
<radialGradient id="paint22_radial_206_1439" cx="0" cy="0" r="1" gradientUnits="userSpaceOnUse" gradientTransform="translate(111.812 92.2632) rotate(-72.5489) scale(65.2134 46.3603)">
<stop stop-color="#FFBB47" stop-opacity="0.9686"/>
<stop offset="0.0026513" stop-color="#FFBA47"/>
<stop offset="1" stop-color="#FFD748" stop-opacity="0"/>
</radialGradient>
<linearGradient id="paint23_linear_206_1439" x1="93.4592" y1="98.2914" x2="66.3194" y2="68.7023" gradientUnits="userSpaceOnUse">
<stop stop-color="#FFBB47" stop-opacity="0.9686"/>
<stop offset="0.0026513" stop-color="#FFBA47"/>
<stop offset="1" stop-color="#FFD748" stop-opacity="0"/>
</linearGradient>
<linearGradient id="paint24_linear_206_1439" x1="16.3969" y1="-7.48106" x2="43.2853" y2="140.028" gradientUnits="userSpaceOnUse">
<stop offset="0.3118" stop-color="#FFBC47" stop-opacity="0"/>
<stop offset="1" stop-color="#FF8900"/>
</linearGradient>
<radialGradient id="paint25_radial_206_1439" cx="0" cy="0" r="1" gradientUnits="userSpaceOnUse" gradientTransform="translate(89.2274 42.9221) scale(232.018)">
<stop stop-color="#FFBC47" stop-opacity="0"/>
<stop offset="1" stop-color="#FF8900"/>
</radialGradient>
<linearGradient id="paint26_linear_206_1439" x1="103.187" y1="48.4526" x2="67.0006" y2="146.646" gradientUnits="userSpaceOnUse">
<stop offset="0.3118" stop-color="#FFBC47" stop-opacity="0"/>
<stop offset="1" stop-color="#FF8900"/>
</linearGradient>
<linearGradient id="paint27_linear_206_1439" x1="23.4611" y1="93.6019" x2="23.4549" y2="93.5975" gradientUnits="userSpaceOnUse">
<stop offset="0.00132565" stop-color="#FFCB4B"/>
<stop offset="1" stop-color="#FFD748"/>
</linearGradient>
<radialGradient id="paint28_radial_206_1439" cx="0" cy="0" r="1" gradientUnits="userSpaceOnUse" gradientTransform="translate(72.7073 79.0203) rotate(169.5) scale(16.5672 8.4161)">
<stop stop-color="#FBE07A"/>
<stop offset="0.2654" stop-color="#FCDF73" stop-opacity="0.7346"/>
<stop offset="0.6548" stop-color="#FDDB5F" stop-opacity="0.3452"/>
<stop offset="1" stop-color="#FFD748" stop-opacity="0"/>
</radialGradient>
<radialGradient id="paint29_radial_206_1439" cx="0" cy="0" r="1" gradientUnits="userSpaceOnUse" gradientTransform="translate(25.4961 65.3041) rotate(-47.8592) scale(16.6141 8.50467)">
<stop stop-color="#FBE07A"/>
<stop offset="0.2654" stop-color="#FCDF73" stop-opacity="0.7346"/>
<stop offset="0.6548" stop-color="#FDDB5F" stop-opacity="0.3452"/>
<stop offset="1" stop-color="#FFD748" stop-opacity="0"/>
</radialGradient>
<linearGradient id="paint30_linear_206_1439" x1="37.0751" y1="31.3023" x2="79.1668" y2="59.4472" gradientUnits="userSpaceOnUse">
<stop offset="0.00132565" stop-color="#0097D4"/>
<stop offset="0.2368" stop-color="#0294D6"/>
<stop offset="0.4442" stop-color="#0989DB"/>
<stop offset="0.6411" stop-color="#1477E4"/>
<stop offset="0.8304" stop-color="#245EF0"/>
<stop offset="1" stop-color="#3640FF"/>
</linearGradient>
<radialGradient id="paint31_radial_206_1439" cx="0" cy="0" r="1" gradientUnits="userSpaceOnUse" gradientTransform="translate(69.7207 29.6769) rotate(-55.4788) scale(58.0272 1.24287)">
<stop stop-color="white" stop-opacity="0.5"/>
<stop offset="1" stop-color="white" stop-opacity="0"/>
</radialGradient>
<linearGradient id="paint32_linear_206_1439" x1="33.0725" y1="17.718" x2="80.8183" y2="50.2605" gradientUnits="userSpaceOnUse">
<stop offset="0.00132565" stop-color="#0097D4"/>
<stop offset="0.2368" stop-color="#0294D6"/>
<stop offset="0.4442" stop-color="#0989DB"/>
<stop offset="0.6411" stop-color="#1477E4"/>
<stop offset="0.8304" stop-color="#245EF0"/>
<stop offset="1" stop-color="#3640FF"/>
</linearGradient>
</defs>
</svg>
