<svg width="457" height="367" viewBox="0 0 457 367" fill="none" xmlns="http://www.w3.org/2000/svg">
<g clip-path="url(#clip0_117_3)">
<path d="M456.512 246.395C456.317 251.582 456.025 256.768 455.732 261.954C455.732 262.049 455.732 262.143 455.829 262.237C456.025 263.369 455.927 264.595 455.927 265.726C455.927 268.083 455.927 270.441 455.927 272.704C455.927 277.042 455.927 281.474 455.927 285.811C455.927 294.581 455.927 303.35 455.927 312.025C455.927 320.795 455.927 329.565 455.927 338.24C455.927 342.577 455.927 347.009 455.829 351.347C455.829 353.138 455.732 356.25 455.732 358.419C455.732 360.399 455.049 362.474 453.781 364.077C453.098 364.926 452.318 365.68 451.44 365.774C443.344 366.906 437.393 366.623 429.2 366.623C421.006 366.623 412.91 366.623 404.716 366.623C388.426 366.623 372.038 366.623 355.748 366.623C297.708 366.623 239.766 366.906 181.727 366.623C152.756 366.529 123.688 366.34 94.7165 366.246C80.1823 366.151 65.7456 366.057 51.2113 365.963C43.993 365.868 36.6771 365.868 29.4587 365.868C22.2403 365.868 14.9244 366.057 7.70609 365.208C4.87728 364.925 3.90182 361.719 3.90182 361.719C3.90182 361.719 3.80428 360.022 3.60919 358.608C2.92637 350.404 2.63373 342.294 2.3411 334.091C0.975461 300.71 1.65828 267.046 0.682825 233.477C-0.292629 201.793 -1.07299 170.11 5.95027 138.992C12.0956 111.929 23.606 85.8093 41.9445 64.4042C59.3076 44.2248 82.5234 29.7975 107.495 20.085C132.954 10.184 160.267 5.18627 187.482 2.54598C219.282 -0.660086 251.765 -1.13157 283.467 3.01746C313.218 6.88359 342.287 15.2759 368.234 30.1747C393.4 44.6963 413.983 64.9699 428.224 89.6755C442.856 115.23 450.562 143.518 454.074 172.373C456.122 188.686 457.098 205.094 457 221.501C457 229.799 456.805 238.097 456.512 246.395Z" fill="#231F20"/>
<path d="M421.298 284.774C421.298 288.263 421.201 291.752 421.201 295.241C421.201 301.182 421.103 307.122 421.006 313.063C420.908 316.08 421.006 319.098 420.811 322.21C420.713 323.718 420.811 325.51 420.421 327.019C420.421 327.207 420.323 327.396 420.225 327.584C420.518 329.376 419.64 331.451 417.592 331.828C414.665 332.299 411.642 332.016 408.715 332.016C405.984 332.016 403.253 331.922 400.521 331.922C399.351 331.922 398.18 331.828 397.107 331.828C396.62 331.828 396.034 331.828 395.547 331.733C395.351 331.733 395.059 331.733 394.864 331.733C394.181 331.733 393.498 331.828 392.815 331.828C372.428 332.488 351.944 332.394 331.459 332.488C281.809 332.865 232.158 333.242 182.605 333.525C157.633 333.619 132.662 333.714 107.69 333.714C96.0822 333.714 84.3768 333.714 72.7689 333.242C71.7934 333.336 70.7204 333.242 69.745 333.242C67.9891 333.242 66.2333 333.242 64.4775 333.242H59.4051C58.6248 333.242 57.7469 333.242 56.9665 333.242C56.3812 333.242 55.796 333.242 55.3082 333.242H52.9672C45.3586 333.242 37.6525 333.148 30.044 333.148C29.2636 333.148 27.4103 330.319 27.898 329.47C27.8004 328.905 27.8004 328.245 27.8004 327.679V327.49C27.8004 326.264 27.898 324.944 27.898 323.813V315.609C27.898 310.14 27.898 304.671 27.898 299.107V282.228C27.898 281.191 27.898 280.059 27.898 279.022C27.898 277.325 27.898 275.627 27.9955 274.024C27.9955 272.138 28.3857 254.128 28.3857 247.15C28.4833 238.286 28.8734 220.464 28.8734 220.464V220.37C28.7759 218.673 30.6293 185.292 30.8244 184.066V183.972C31.3121 178.408 31.7998 172.939 32.4826 167.47C33.7507 156.72 35.3114 145.97 37.9452 135.409C40.5789 124.565 44.9684 114.664 50.9187 105.046C67.599 78.1715 93.8387 57.8036 123.688 45.828C141.831 38.5672 161.047 34.3239 180.459 31.7779C190.214 30.552 200.066 29.7034 209.918 29.1376C214.795 28.8547 219.575 28.5718 224.452 28.4775C229.329 28.3832 234.206 28.7604 238.986 29.0433C246.009 29.4205 253.13 29.9863 260.154 30.6463C265.031 30.8349 269.908 31.495 274.688 32.438C299.757 36.1155 324.338 42.9048 346.384 55.4462C349.895 57.4264 353.407 59.5952 356.821 61.8583C363.064 64.4043 369.209 70.0621 373.794 75.0598C388.523 88.2612 400.716 104.292 407.74 122.302C411.154 131.072 413.105 140.407 414.665 149.648C416.714 161.529 417.982 173.505 418.86 185.575C418.86 185.669 418.86 185.669 418.86 185.763C418.86 185.763 418.86 186.706 418.957 187.178V187.272C419.25 189.441 419.738 193.873 419.738 193.873V194.061C419.738 194.061 420.03 196.89 420.128 198.21C420.323 200.379 420.421 202.548 420.421 204.811C420.421 205.565 420.421 206.32 420.421 207.074C420.421 207.64 420.421 208.206 420.421 208.771C420.421 210.28 420.421 211.695 420.421 213.203C420.421 214.335 420.518 215.749 420.518 217.258C420.518 217.352 420.518 217.447 420.518 217.541V217.824C421.006 234.043 421.103 250.262 420.908 266.386C420.908 268.367 420.811 270.252 420.811 272.233C420.811 272.327 420.811 272.327 420.811 272.421V272.516C420.908 274.119 421.006 275.816 421.103 277.419C421.201 279.493 421.201 281.662 421.201 283.737C421.298 284.114 421.298 284.397 421.298 284.774Z" fill="#E81D29"/>
<path d="M420.811 272.327C420.811 272.421 420.811 272.421 420.811 272.515C420.908 272.421 420.908 272.327 420.811 272.327C420.908 272.327 420.811 272.327 420.811 272.327Z" fill="#231F20"/>
<path d="M343.067 157.757C340.043 157.851 337.019 157.757 333.995 157.569C316.34 159.266 301.61 168.978 286.003 176.051C257.91 188.875 226.598 193.024 195.969 187.649C188.263 186.329 180.654 184.349 173.241 181.708C166.217 179.162 159.682 175.768 153.341 171.807C141.538 164.546 129.443 155.494 115.006 154.362C114.323 154.268 113.835 153.985 113.543 153.514C110.909 153.231 110.909 149.553 113.64 149.459C132.857 148.705 148.074 135.786 161.633 124.093C168.266 118.436 174.996 112.872 182.898 108.912C190.311 105.14 198.407 102.405 206.699 101.085C223.281 98.4449 240.254 100.991 255.276 108.346C262.982 112.118 269.615 117.304 275.956 122.962C282.394 128.808 288.734 134.749 296.245 139.369C310.292 147.95 326.679 152.477 343.262 152.477C346.676 152.288 346.676 157.663 343.067 157.757Z" fill="#231F20"/>
<path d="M266.494 157.946C265.128 162.566 262.885 166.998 259.373 170.393C251.862 177.559 241.912 181.52 231.573 183.123C221.038 184.726 210.6 184.537 200.456 180.86C190.799 177.371 181.532 171.713 174.996 163.886C167.973 155.4 164.754 143.99 170.802 134.183C178.801 121.076 193.53 111.269 209.235 108.535C213.722 107.026 218.404 106.271 222.794 106.271C233.524 106.271 243.961 110.515 252.252 117.021C259.666 122.868 266.591 131.826 268.25 141.161C269.03 146.819 268.055 152.571 266.494 157.946Z" fill="white"/>
<path d="M232.646 134.089C230.305 129.657 225.915 127.677 220.94 127.677C219.184 127.677 217.429 127.865 215.673 127.96C214.6 127.96 213.722 128.148 212.746 128.337C210.893 128.525 209.04 129.751 207.674 130.789C205.723 132.297 203.772 134.089 202.407 136.163C200.846 138.521 200.261 141.633 200.358 144.461C199.773 147.856 200.261 151.345 202.114 154.268C204.065 157.38 207.479 159.832 210.893 161.529C215.185 163.698 219.575 164.075 224.159 162.378C227.866 160.963 231.182 158.889 233.524 155.683C238.206 149.271 235.962 140.501 232.646 134.089Z" fill="#231F20"/>
<path d="M218.014 152.194C225.818 152.194 225.818 140.501 218.014 140.501C210.21 140.501 210.21 152.194 218.014 152.194Z" fill="white"/>
<path d="M413.007 322.209C413.007 323.435 412.032 324.378 410.861 324.378C410.178 324.378 409.398 324.378 408.715 324.378C407.642 324.378 406.569 324.378 405.496 324.378C404.228 324.378 403.253 323.435 403.253 322.209C403.35 319.003 403.545 315.797 403.935 312.591C404.228 310.139 404.813 307.688 405.789 305.33C406.179 304.387 406.667 303.633 407.154 302.784C407.642 302.03 408.618 301.747 409.495 301.936C409.983 302.03 410.373 302.124 410.861 302.219C411.934 302.407 412.617 303.256 412.715 304.293C412.715 307.216 412.812 310.045 412.812 312.968C412.91 315.892 412.812 318.815 413.007 321.644C413.007 321.926 413.007 322.021 413.007 322.209Z" fill="#231F20"/>
<path d="M413.495 266.763C413.3 268.838 413.105 271.007 412.91 273.081C412.91 273.27 412.91 273.364 412.91 273.553C412.812 274.873 412.714 276.099 412.714 277.419C412.519 283.36 412.617 289.3 412.617 295.241V296.561C406.959 296.278 401.302 294.486 397.79 289.866C395.644 287.131 394.864 283.737 394.278 280.436C393.791 277.607 393.693 274.779 393.693 271.95C397.692 273.081 402.082 272.987 406.179 271.478C407.545 271.007 408.813 270.347 409.983 269.592C410.081 269.592 410.081 269.592 410.178 269.498C411.446 268.649 412.519 267.801 413.495 266.763Z" fill="#231F20"/>
<path d="M408.227 257.522C409.495 259.031 409.3 261.294 407.837 262.614C407.349 262.991 406.862 263.463 406.374 263.746C406.277 263.84 406.179 263.934 406.081 263.934C401.887 266.763 396.424 267.895 391.547 265.443C387.548 263.463 384.914 259.88 383.451 255.825C382.573 253.373 382.183 250.827 381.988 248.187C381.89 246.773 381.793 245.358 381.793 243.944V243.849C384.426 245.264 387.548 245.924 390.767 245.735C391.547 245.641 392.425 245.547 393.303 245.452C394.083 245.264 394.864 245.17 395.644 244.887C397.4 244.415 399.156 245.075 400.131 246.49C400.229 246.678 400.326 246.773 400.424 246.961C402.765 250.733 405.496 254.128 408.227 257.522Z" fill="#231F20"/>
<path d="M412.422 205.471C412.422 206.602 411.641 207.451 410.471 207.64C409.203 207.828 407.935 208.111 406.667 208.583C405.789 208.866 405.008 209.243 404.13 209.714C403.74 208.583 403.35 207.357 403.155 206.131C403.057 205.848 403.057 205.471 403.057 205.188C403.057 204.999 402.96 204.717 402.96 204.434C402.96 203.774 402.96 203.208 402.96 202.642V202.548C402.96 202.453 402.96 202.265 403.057 202.171C403.057 201.888 403.155 201.699 403.252 201.416C403.448 200.662 403.935 199.813 404.423 199.153C404.521 199.059 405.008 198.493 405.301 198.304C405.398 198.21 405.496 198.21 405.594 198.116C405.789 198.022 405.984 197.927 406.276 197.833C406.374 197.833 406.471 197.739 406.569 197.739C406.764 197.644 407.057 197.644 407.252 197.55C407.447 197.55 408.13 197.55 408.617 197.55C409.3 197.644 410.081 197.833 410.763 198.116C411.349 198.87 411.739 199.342 412.227 200.096C412.227 201.228 412.324 202.359 412.324 203.491C412.422 203.962 412.422 204.717 412.422 205.471Z" fill="#231F20"/>
<path d="M395.449 237.437C395.839 238.569 395.254 239.889 394.083 240.266C393.205 240.549 392.23 240.832 391.157 241.021C390.474 241.115 389.694 241.209 389.011 241.209C381.988 241.115 378.671 235.646 378.086 229.422C377.501 222.538 379.354 216.504 384.329 211.412C386.475 209.148 388.816 207.263 391.254 205.282C393.4 203.585 395.644 201.699 398.278 200.756C398.083 201.605 397.985 202.453 397.985 203.396C397.985 204.905 398.18 206.32 398.473 207.734C398.57 208.394 398.765 208.96 398.961 209.62C399.156 210.186 399.351 210.751 399.546 211.317C399.838 212.072 399.643 213.015 399.058 213.58C396.327 216.409 394.473 220.087 393.888 223.953C393.108 228.573 393.888 233.1 395.449 237.437Z" fill="#231F20"/>
<path d="M412.129 193.495C411.154 193.118 410.081 192.835 409.008 192.647C405.886 192.27 402.96 193.307 400.911 195.57C400.716 195.758 400.521 195.947 400.424 196.23C394.181 195.004 388.426 200.473 384.036 204.245C379.159 208.394 374.867 213.486 373.306 219.71C371.843 225.745 372.428 232.817 375.647 238.286C376.232 239.323 376.915 240.172 377.793 241.021C377.305 242.812 377.501 245.075 377.501 246.773C377.501 249.224 377.793 251.77 378.378 254.128C379.354 258.465 381.402 262.143 384.231 265.632C385.792 267.518 387.743 269.121 389.791 270.252C389.304 274.024 389.401 277.796 389.889 281.662C390.474 285.623 391.45 289.583 393.986 292.883C396.327 296.089 399.643 298.447 403.155 300.05C402.667 300.616 402.277 301.276 401.887 301.936C400.326 304.576 399.448 307.499 398.96 310.517C398.18 315.231 398.083 319.946 397.887 324.755C397.692 324.755 397.497 324.755 397.302 324.755C396.132 324.755 395.059 324.85 393.888 324.85C393.498 324.85 388.816 324.85 388.426 324.944C387.743 315.231 384.426 305.519 380.037 296.749C367.258 270.912 343.555 244.792 352.334 214.052C356.236 200.473 366.771 190.478 380.427 185.857C387.938 183.311 395.839 182.84 403.643 183.783C404.911 183.971 410.471 184.16 411.739 184.349C411.836 186.8 411.934 189.158 412.032 191.609C412.032 191.798 412.032 191.987 412.032 192.175C412.129 192.552 412.129 193.024 412.129 193.495Z" fill="#231F20"/>
<path d="M41.6519 328.244H40.0911H39.9936C38.7255 328.244 37.4574 328.244 36.1893 328.244H34.5311C33.9458 328.244 33.3605 328.244 32.8728 328.244C32.8728 327.867 32.8728 327.584 32.8728 327.207C32.8728 326.17 32.7752 325.133 32.7752 324.19V315.986C32.7752 312.591 32.7752 309.197 32.7752 305.802C32.7752 304.105 34.0433 302.69 35.7016 302.502C36.3844 302.407 37.1648 302.313 37.8476 302.219C39.2132 301.936 40.6764 302.596 41.4568 303.727C41.7494 304.293 42.1396 304.859 42.3347 305.519C43.2126 307.876 43.8954 310.328 44.188 312.78C44.6758 316.74 44.8709 320.795 44.9684 324.85C43.7003 326.17 43.0175 326.924 41.6519 328.244Z" fill="#231F20"/>
<path d="M53.9426 280.342C53.3573 283.642 52.577 287.037 50.431 289.771C47.212 293.92 42.4323 295.806 37.3599 296.278C34.9213 296.561 32.8728 294.769 32.8728 292.412C32.8728 289.96 32.8728 287.414 32.8728 284.962V277.136C32.8728 276.381 32.7753 274.967 32.7753 274.307C32.7753 273.741 32.7753 273.175 32.7753 272.61V272.515C34.5311 270.158 37.6525 269.498 40.3838 270.724C40.774 270.912 41.2617 271.101 41.6519 271.289C41.847 271.384 41.9445 271.384 42.1396 271.478C45.2611 272.61 48.6752 272.892 52.0893 272.421C53.3573 272.232 54.4303 273.27 54.4303 274.495C54.4303 276.476 54.2353 278.456 53.9426 280.342Z" fill="#231F20"/>
<path d="M66.4284 243.944C66.4284 245.452 66.3309 246.867 66.2333 248.281C66.0382 250.827 65.5505 253.468 64.7701 255.919C63.307 259.974 60.6732 263.557 56.6739 265.537C53.0647 267.329 49.2604 267.235 45.8463 265.915C45.6512 265.82 45.5537 265.82 45.3586 265.726C44.5782 265.349 43.7979 264.972 43.0175 264.5C41.6519 263.652 41.3592 261.766 42.3347 260.54C45.7488 256.296 49.358 251.676 52.2843 246.867C52.8696 245.83 54.0401 245.358 55.2107 245.547C55.6009 245.641 55.991 245.641 56.3812 245.641C57.1616 245.735 58.0395 245.735 58.8199 245.735C61.4536 245.735 64.0873 245.17 66.4284 243.944Z" fill="#231F20"/>
<path d="M90.327 261.011C80.67 281.662 64.1848 303.539 63.4045 326.736C63.4045 327.207 63.4045 327.679 63.4045 328.244C62.9168 328.244 58.2346 328.244 57.7468 328.244C56.7714 328.244 55.7959 328.244 54.8205 328.244H50.5285C50.5285 327.773 50.5285 327.396 50.4309 326.924C50.2359 321.455 50.1383 315.986 49.2604 310.517C48.7727 307.594 47.8948 304.765 46.4316 302.219C46.0414 301.464 45.5537 300.71 44.9684 300.05C48.5776 298.447 51.7966 295.995 54.2352 292.883C56.7714 289.583 57.7468 285.623 58.3321 281.662C58.8198 277.89 58.9174 274.118 58.4297 270.347C63.6971 267.329 67.5989 261.86 69.3547 256.202C70.1351 253.562 70.6228 250.733 70.8179 247.999C70.9155 246.584 70.8179 245.17 70.7204 243.755C70.6228 242.907 70.6228 241.964 70.5253 241.021C70.8179 240.738 71.1106 240.455 71.4032 240.078C75.305 235.269 76.378 228.291 75.5976 222.35C74.7197 215.844 71.013 210.374 66.2333 205.942C63.5996 203.491 60.7708 201.228 57.8444 199.153C54.8205 197.079 51.6015 195.57 47.9923 196.324C47.7972 196.136 47.6997 195.853 47.5046 195.664C45.6512 193.495 42.92 192.458 40.0911 192.647C39.896 192.647 39.6034 192.741 39.4083 192.741C37.75 192.93 36.1893 193.59 34.6286 194.155C34.5311 194.25 34.336 194.25 34.2384 194.344H34.1409C34.1409 194.25 34.1409 194.155 34.1409 193.967C34.2384 191.327 34.336 188.686 34.4335 185.952C39.2132 184.349 44.3831 183.594 48.9678 183.311C56.9665 182.84 69.1597 184.349 76.2805 187.932C89.0589 194.344 96.6674 206.32 98.5208 219.898C100.277 234.043 96.3748 248.187 90.327 261.011Z" fill="#231F20"/>
<path d="M70.1351 229.422C69.6474 235.08 66.721 240.172 60.8683 241.021C60.3806 241.115 59.7953 241.115 59.3076 241.115C58.8198 241.115 58.3321 241.115 57.8444 241.021C56.6738 240.926 55.8935 239.7 56.3812 238.663C58.5272 233.1 59.21 227.253 57.6493 221.313C56.5763 217.258 53.9426 213.298 50.3334 210.657C49.7481 210.186 49.4555 209.431 49.6506 208.771C49.8457 208.017 50.0408 207.168 50.2359 206.414C50.3334 206.037 50.3334 205.66 50.3334 205.282C50.4309 204.622 50.4309 204.057 50.4309 203.396C50.4309 202.548 50.3334 201.699 50.0408 200.85C52.6745 201.699 54.918 203.585 57.064 205.282C59.5027 207.263 61.8438 209.148 63.9898 211.412C68.867 216.598 70.8179 222.539 70.1351 229.422Z" fill="#231F20"/>
<path d="M45.3586 203.68V204.245C45.2611 205.471 45.066 206.791 44.6758 207.923C41.0666 206.886 37.3599 207.357 34.0434 208.771C34.0434 208.206 34.0434 207.546 34.0434 206.98C34.0434 206.226 34.0434 205.565 34.0434 204.811C34.0434 204.245 34.0434 203.68 34.0434 203.114C34.0434 202.359 34.0434 201.605 34.0434 200.851C34.0434 199.813 34.8237 198.87 35.7992 198.493C37.0673 198.022 38.3354 197.55 39.701 197.362C39.8961 197.362 40.1887 197.362 40.3838 197.362C40.2863 197.362 41.0666 197.362 41.0666 197.362C41.2617 197.362 41.4568 197.456 41.7494 197.55C41.7494 197.55 42.1396 197.739 42.2372 197.739C42.4323 197.833 42.5298 197.927 42.7249 198.022L43.1151 198.305C43.4077 198.588 43.8954 199.059 43.993 199.153C44.0905 199.248 44.4807 199.908 44.6758 200.285C44.6758 200.379 44.8709 200.662 44.8709 200.756C44.8709 200.851 45.066 201.228 45.066 201.322C45.1635 201.605 45.2611 201.794 45.2611 202.076C45.2611 202.171 45.3586 202.548 45.3586 202.642C45.2611 202.737 45.3586 203.208 45.3586 203.68Z" fill="#231F20"/>
<path d="M88.7663 297.881C88.7663 284.302 94.7166 280.248 103.008 280.248C110.909 280.248 116.274 284.491 116.372 293.072L107.202 294.864C107.007 288.546 105.642 287.32 103.008 287.32C100.569 287.32 98.2282 289.206 98.2282 297.975C98.2282 306.556 100.277 308.536 103.008 308.536C105.544 308.536 107.007 306.839 107.3 300.899L116.469 302.879C115.884 311.177 110.616 315.609 103.008 315.609C94.2288 315.514 88.7663 311.837 88.7663 297.881Z" fill="white"/>
<path d="M120.566 297.881C120.566 285.057 126.126 280.248 135.1 280.248C143.977 280.248 149.635 285.057 149.635 297.881C149.635 310.705 143.977 315.514 135.1 315.514C126.126 315.514 120.566 310.611 120.566 297.881ZM140.075 297.881C140.075 289.111 138.222 287.131 135.1 287.131C131.979 287.131 130.126 289.111 130.126 297.881C130.126 306.556 131.979 308.631 135.1 308.631C138.222 308.631 140.075 306.556 140.075 297.881Z" fill="white"/>
<path d="M154.707 281.002H163.974V307.216H174.801V314.572H154.707V281.002Z" fill="white"/>
<path d="M179.679 281.002H188.945V307.216H199.773V314.572H179.679V281.002Z" fill="white"/>
<path d="M226.013 308.159V314.666H204.553V281.002H225.72V287.509H213.819V294.109H224.94V300.521H213.819V307.971H226.013V308.159Z" fill="white"/>
<path d="M229.524 297.881C229.524 284.302 235.474 280.248 243.766 280.248C251.667 280.248 257.032 284.491 257.13 293.072L247.96 294.864C247.765 288.546 246.4 287.32 243.766 287.32C241.327 287.32 238.986 289.206 238.986 297.975C238.986 306.556 241.035 308.536 243.766 308.536C246.302 308.536 247.765 306.839 248.058 300.899L257.227 302.879C256.642 311.177 251.374 315.609 243.766 315.609C234.889 315.514 229.524 311.837 229.524 297.881Z" fill="white"/>
<path d="M285.125 288.263H277.029V314.666H267.762V288.263H259.666V281.002H285.125V288.263Z" fill="white"/>
<path d="M289.32 314.666V281.002H298.586V314.666H289.32Z" fill="white"/>
<path d="M302.586 281.002H312.34L316.437 301.182C316.925 303.539 317.12 305.048 317.218 306.745H317.413C317.608 305.048 317.803 303.539 318.193 301.182L322.29 281.002H332.044L322.973 314.666H311.657L302.586 281.002Z" fill="white"/>
<path d="M357.601 308.159V314.666H336.141V281.002H357.309V287.509H345.408V294.109H356.528V300.521H345.408V307.971H357.601V308.159Z" fill="white"/>
<path d="M62.1364 141.35L60.1855 148.988L86.7179 155.306L84.4743 163.981L57.942 157.663L55.9911 165.301L48.7727 163.604L54.8205 139.747L62.1364 141.35Z" fill="white"/>
<path d="M61.4536 125.697L82.7185 136.258C85.1571 137.484 87.2056 136.918 88.2786 134.843C89.4491 132.769 88.6688 130.789 86.3277 129.563L65.0628 119.002L69.2572 111.081L90.7172 121.831C97.0577 124.942 98.6184 131.072 94.8141 138.144C91.0098 145.31 84.962 147.573 78.6216 144.367L57.0641 133.618L61.4536 125.697Z" fill="white"/>
<path d="M76.3781 101.085L83.1087 94.1075L98.911 99.1995C100.764 99.8596 102.423 100.614 104.569 102.028L104.666 101.934C102.91 100.331 101.155 98.8223 99.3988 97.2193L89.1565 87.884L94.9117 81.9434L120.273 105.046L114.031 111.458L96.9601 106.177C94.8141 105.517 93.0583 104.574 91.3025 103.349L91.2049 103.443C92.473 104.574 94.619 106.555 96.3749 108.158L107.397 118.247L101.545 124.188L76.3781 101.085Z" fill="white"/>
<path d="M106.227 73.5509L114.811 68.8361L128.467 78.1714C130.126 79.303 131.394 80.4345 132.954 82.509L133.052 82.4148C131.784 80.4345 130.613 78.36 129.443 76.3798L122.517 64.5928L129.833 60.5381L147.098 89.7698L139.197 94.1075L124.468 84.2064C122.615 82.9805 121.151 81.5661 119.883 79.8688H119.786C120.664 81.2832 122.127 83.8292 123.395 85.8094L130.906 98.5394L123.492 102.594L106.227 73.5509Z" fill="white"/>
<path d="M170.412 77.2286L172.07 83.5464L151.293 88.6384L142.709 56.012L163.193 51.0143L164.852 57.3321L153.341 60.161L155 66.5731L165.827 63.9328L167.485 70.1564L156.658 72.7967L158.511 80.0575L170.412 77.2286Z" fill="white"/>
<path d="M174.314 49.7884L183.58 49.5055L184.361 75.7198L195.091 75.4369L195.286 82.792L175.192 83.3577L174.314 49.7884Z" fill="white"/>
<path d="M210.893 49.5057H223.184L226.695 65.4417C227.086 67.139 227.378 69.0249 227.378 70.1565H227.573C227.573 69.0249 227.964 67.0447 228.256 65.3474L231.573 49.4114H243.961V83.075H235.865V65.0645C235.865 62.8957 235.865 60.7269 236.06 58.5581H235.865C235.67 59.7839 235.474 61.1041 235.279 62.2356L230.792 83.1693H223.964L219.184 62.2356C218.892 61.1041 218.697 59.7839 218.599 58.6524H218.502C218.697 60.7269 218.697 62.8957 218.697 65.0645V83.1693H210.991V49.5057H210.893Z" fill="white"/>
<path d="M249.326 66.0073C249.716 53.183 255.374 48.5625 264.348 48.7511C273.225 48.9397 278.687 53.9374 278.394 66.7617C278.102 79.5859 272.249 84.2064 263.373 83.9235C254.496 83.7349 249.033 78.7373 249.326 66.0073ZM268.835 66.4788C269.03 57.7092 267.274 55.729 264.153 55.6347C261.031 55.5404 259.081 57.4264 258.885 66.1959C258.69 74.8711 260.446 76.9456 263.568 77.0399C266.689 77.1342 268.542 75.154 268.835 66.4788Z" fill="white"/>
<path d="M289.612 51.4857L299.074 54.3146L301.415 70.2506C301.708 72.1365 301.708 73.9282 301.22 76.3799H301.318C302 74.1168 302.683 71.948 303.366 69.7791L307.463 56.7663L315.559 59.1237L305.317 91.2786L296.635 88.7326L294.002 71.6651C293.709 69.4963 293.709 67.6103 294.099 65.5358H294.002C293.514 67.1389 292.636 69.8734 291.953 72.1365L287.466 86.1867L279.37 83.8293L289.612 51.4857Z" fill="white"/>
<path d="M311.657 85.7152L320.339 86.5639C319.559 90.3357 320.144 92.976 322.583 94.4847C324.631 95.8049 326.387 95.4277 327.362 94.0133C328.338 92.5988 328.435 91.373 326.582 89.2985L323.07 85.1494C319.656 81.0947 319.754 77.04 322.485 72.9853C326.192 67.6104 332.727 67.2332 338.873 71.0993C344.14 74.3997 346.871 78.8316 345.506 84.3951L337.214 84.0179C338.19 80.3403 336.824 77.7001 334.776 76.3799C333.02 75.2484 331.167 75.4369 330.289 76.6628C329.411 77.9829 329.703 79.6803 331.362 81.7548L334.873 86.0924C338.385 90.43 338.287 93.8247 335.459 97.8794C331.849 103.16 325.216 104.574 318.291 100.142C312.535 96.465 310.584 91.2787 311.657 85.7152Z" fill="white"/>
<path d="M365.795 105.046L360.235 99.3881L340.433 117.587L334.093 111.175L353.895 92.976L348.237 87.3182L353.602 82.3206L371.16 100.142L365.795 105.046Z" fill="white"/>
<path d="M362.966 138.427L357.114 141.821L346.091 123.999L376.037 106.743L386.865 124.282L381.012 127.677L374.964 117.776L369.112 121.17L374.769 130.411L369.014 133.712L363.356 124.471L356.723 128.337L362.966 138.427Z" fill="white"/>
<path d="M374.769 152.76L373.989 149.931L361.21 153.42L358.674 144.839L392.23 135.692L395.937 148.422C398.18 156.154 395.546 160.869 389.011 162.661C384.621 163.887 381.11 162.849 378.769 160.209L365.893 169.544L363.161 160.398L374.769 152.76ZM380.232 150.968C381.012 153.608 383.158 154.363 386.28 153.514C389.206 152.76 390.279 151.157 389.499 148.422L388.718 145.782L379.451 148.328L380.232 150.968Z" fill="white"/>
<path d="M125.931 202.265C118.03 201.51 115.494 193.118 123.785 190.195C129.443 188.215 135.393 191.892 139.49 195.476C146.903 201.982 152.366 210.091 160.365 215.938C168.363 221.784 177.337 226.216 187.19 228.008C198.993 230.176 215.575 230.176 221.818 218.201C225.525 211.223 223.574 203.114 216.551 198.87C208.747 194.061 200.943 196.796 192.555 197.456C186.409 197.927 180.264 197.739 174.411 195.758C160.657 191.138 151.293 179.162 136.076 177.182C124.468 175.768 109.543 181.425 108.178 194.155C107.105 204.056 117.835 214.146 127.589 208.3C130.613 206.602 129.15 202.548 125.931 202.265Z" fill="#231F20"/>
<path d="M314.194 208.394C323.558 214.052 334.19 204.811 333.703 195.192C333.117 181.897 317.608 175.767 305.707 177.276C290.88 179.162 281.711 190.572 268.445 195.475C262.69 197.55 256.349 198.021 250.301 197.644C241.522 197.078 233.231 193.967 225.135 198.964C218.209 203.208 216.161 211.317 219.867 218.295C226.11 230.271 242.693 230.271 254.496 228.102C264.445 226.216 273.322 221.972 281.321 216.032C289.417 210.091 294.782 201.982 302.195 195.57C305.902 192.364 310.877 189.063 316.144 189.723C319.168 190.1 322.778 192.552 323.168 195.664C323.851 200.096 319.461 202.076 315.754 202.359C312.633 202.548 311.17 206.602 314.194 208.394Z" fill="#231F20"/>
<path d="M345.701 256.956C343.945 252.902 341.799 249.13 339.458 245.735C332.044 234.703 320.632 225.179 306.878 222.916C291.466 220.37 275.761 225.556 260.739 220.653C249.423 216.975 240.937 209.054 235.474 199.059C250.399 196.89 264.933 191.515 277.712 184.16C283.955 180.577 289.807 176.428 295.367 171.902C298.001 169.733 300.537 167.47 302.976 165.018C304.244 163.792 305.512 162.472 306.683 161.152C308.341 159.266 309.414 157.663 309.121 155.117C308.926 153.42 307.756 151.722 305.707 151.816C303.659 151.911 302.098 152.288 300.635 153.702C299.464 154.834 298.489 156.06 297.318 157.191C295.27 159.266 293.124 161.34 290.88 163.226C286.393 167.092 282.004 170.393 277.029 173.505C269.615 178.125 262.007 181.897 253.911 184.726C254.788 183.971 255.569 183.123 255.861 181.991C256.057 181.237 255.764 180.2 254.984 179.822C252.935 178.879 250.887 179.445 248.838 180.2C246.79 180.954 244.839 181.708 242.693 182.368C238.596 183.689 234.304 184.726 230.012 185.48C225.915 186.235 221.721 186.517 217.526 186.706C213.137 186.895 208.65 186.989 204.26 186.706C203.48 186.706 202.992 187.083 202.797 187.743C201.139 187.272 199.383 186.8 197.822 187.649C188.458 184.914 179.776 180.577 171.29 175.673C165.242 172.184 159.584 168.224 153.927 164.169C148.367 160.115 143.099 155.588 137.051 152.288C136.076 151.722 134.613 152.948 135.393 153.891C139.197 158.983 143.977 163.226 148.659 167.47C153.244 171.713 158.121 175.673 163.096 179.445C173.436 187.272 185.044 193.778 197.822 197.173C201.724 198.21 205.723 198.964 209.723 199.436C203.285 211.034 192.555 219.332 178.898 222.161C169.826 224.047 160.462 222.161 151.39 221.973C142.416 221.784 133.442 223.104 125.443 227.065C112.86 233.288 104.081 245.452 100.764 258.56C100.179 260.823 102.032 262.991 104.471 262.991H118.127C119.591 262.991 120.859 262.237 121.542 260.917C121.542 260.823 121.639 260.823 121.639 260.728C127.394 249.979 137.734 244.698 150.122 244.792C159.389 244.887 168.363 246.301 177.63 245.075C185.336 244.132 192.555 241.869 199.383 238.569C208.357 234.231 216.551 227.819 222.794 220.087C236.45 236.777 258.398 246.773 280.54 245.735C294.392 245.075 307.365 243.095 318.388 252.902C321.119 255.353 323.363 258.088 325.216 261.011C326.094 262.331 327.557 263.086 329.118 263.086H341.409C344.823 263.18 347.066 259.88 345.701 256.956Z" fill="#231F20"/>
<path d="M213.527 206.602C208.747 209.148 204.26 211.789 199.188 213.675C194.31 215.466 189.238 216.786 184.068 217.541C178.898 218.295 173.631 218.484 168.461 218.295C165.827 218.201 163.193 217.918 160.657 217.446C158.023 216.975 155.487 216.598 152.756 216.786C151.293 216.881 150.805 218.578 151.976 219.427C156.463 222.538 163.096 222.727 168.461 222.916C174.021 223.104 179.483 222.633 184.946 221.501C190.311 220.37 195.481 218.672 200.456 216.409C205.431 214.146 210.6 211.411 214.502 207.734C215.185 207.168 214.307 206.225 213.527 206.602Z" fill="#E81D29"/>
<path d="M230.792 208.206C234.792 212.166 240.352 215.183 245.619 217.258C251.179 219.521 256.934 221.124 262.885 221.973C268.835 222.821 274.883 223.01 280.931 222.539C283.857 222.35 286.881 221.973 289.612 221.218C292.343 220.464 295.562 219.71 297.806 217.824C298.879 216.975 297.904 215.655 296.831 215.466C294.099 215.183 290.978 215.843 288.247 216.221C285.613 216.598 282.979 216.881 280.345 217.069C274.785 217.447 269.03 217.352 263.47 216.504C258.008 215.655 252.447 214.429 247.18 212.732C244.546 211.883 241.913 211.034 239.279 209.903C236.743 208.866 234.206 207.64 231.67 206.602C230.792 206.508 230.207 207.64 230.792 208.206Z" fill="#E81D29"/>
<path d="M147.781 266.575C152.073 266.009 155.682 264.218 160.17 264.312C165.827 264.5 171.095 266.858 176.46 268.367C186.507 271.195 196.456 271.101 206.113 266.952C225.33 258.654 233.914 236.683 226.793 217.824C222.501 206.508 203.577 211.695 208.162 222.822C214.893 239.323 202.309 256.391 183.58 254.317C172.85 253.185 144.465 244.698 143.197 263.18C143.002 265.726 145.635 266.858 147.781 266.575Z" fill="#231F20"/>
<path d="M302.586 263.18C301.318 244.698 273.029 253.185 262.202 254.317C243.376 256.391 230.89 239.323 237.62 222.822C242.108 211.695 223.281 206.508 218.989 217.824C211.869 236.683 220.452 258.654 239.669 266.952C249.326 271.101 259.276 271.195 269.323 268.367C274.688 266.858 279.955 264.5 285.613 264.312C290.002 264.218 293.709 266.009 298.001 266.575C300.147 266.858 302.781 265.726 302.586 263.18Z" fill="#231F20"/>
</g>
<defs>
<clipPath id="clip0_117_3">
<rect width="457" height="367" fill="white"/>
</clipPath>
</defs>
</svg>
