<svg width="140" height="218" viewBox="0 0 140 218" fill="none" xmlns="http://www.w3.org/2000/svg">
<path d="M93.4516 86.3011C92.8976 84.0426 92.024 82.0611 90.8309 80.3565C89.6377 78.6094 88.1462 77.1392 86.3564 75.946C84.6093 74.7102 82.5638 73.794 80.2201 73.1975C77.9189 72.5582 75.3834 72.2386 72.6135 72.2386C66.6476 72.2386 61.5553 73.6662 57.3365 76.5213C53.1604 79.3764 49.9644 83.4886 47.7485 88.858C45.5752 94.2273 44.4885 100.705 44.4885 108.29C44.4885 115.96 45.5326 122.523 47.6206 127.977C49.7087 133.432 52.8195 137.608 56.953 140.506C61.0865 143.403 66.2215 144.852 72.3578 144.852C77.7698 144.852 82.2655 144.064 85.8451 142.487C89.4672 140.911 92.1732 138.673 93.963 135.776C95.7527 132.878 96.6476 130.108 96.6476 126.188H102.784H72.8692V100.875H130.909V119.028C130.909 130.96 128.373 141.166 123.302 149.646C118.274 158.084 111.328 164.561 102.464 169.078C93.6434 173.553 83.5226 175.79 72.1022 175.79C59.3607 175.79 48.1746 173.084 38.5439 167.672C28.9132 162.26 21.3919 154.547 15.98 144.533C10.6107 134.518 7.92603 122.608 7.92603 108.801C7.92603 97.9773 9.56665 88.3892 12.8479 80.0369C16.1718 71.6847 20.774 64.6321 26.6547 58.8793C32.5354 53.0838 39.3323 48.7159 47.0453 45.7756C54.7584 42.7926 63.0255 41.3011 71.8465 41.3011C79.6022 41.3011 86.8039 42.4091 93.4516 44.625C100.142 46.7983 106.044 49.9091 111.158 53.9574C116.314 57.9631 120.469 62.7145 123.622 68.2117C126.775 73.7088 128.693 79.7386 129.375 86.3011H93.4516Z" fill="black"/>
</svg>
