<svg width="37" height="38" viewBox="0 0 37 38" fill="none" xmlns="http://www.w3.org/2000/svg">
<path d="M21.5779 19.3198L36.0154 4.6431C36.4469 4.20373 36.6893 3.60781 36.6893 2.98644C36.6893 2.36506 36.4469 1.76914 36.0154 1.32977C35.5838 0.890393 34.9986 0.643555 34.3883 0.643555C33.778 0.643555 33.1927 0.890393 32.7612 1.32977L18.3466 16.0298L3.93204 1.32977C3.50051 0.890393 2.91523 0.643555 2.30495 0.643555C1.69468 0.643555 1.1094 0.890393 0.677871 1.32977C0.246342 1.76914 0.00391151 2.36506 0.00391151 2.98644C0.0039115 3.60781 0.246342 4.20373 0.677871 4.6431L15.1154 19.3198L0.677871 33.9964C0.463077 34.2133 0.29259 34.4714 0.176246 34.7558C0.0599007 35.0401 0 35.3451 0 35.6531C0 35.9611 0.0599007 36.2661 0.176246 36.5504C0.29259 36.8348 0.463077 37.0928 0.677871 37.3098C0.890911 37.5285 1.14437 37.7021 1.42363 37.8205C1.70289 37.939 2.00243 38 2.30495 38C2.60748 38 2.90702 37.939 3.18628 37.8205C3.46554 37.7021 3.719 37.5285 3.93204 37.3098L18.3466 22.6098L32.7612 37.3098C32.9742 37.5285 33.2277 37.7021 33.507 37.8205C33.7862 37.939 34.0858 38 34.3883 38C34.6908 38 34.9903 37.939 35.2696 37.8205C35.5489 37.7021 35.8023 37.5285 36.0154 37.3098C36.2302 37.0928 36.4007 36.8348 36.517 36.5504C36.6333 36.2661 36.6932 35.9611 36.6932 35.6531C36.6932 35.3451 36.6333 35.0401 36.517 34.7558C36.4007 34.4714 36.2302 34.2133 36.0154 33.9964L21.5779 19.3198Z" fill="black"/>
</svg>
