<svg width="37" height="38" viewBox="0 0 37 38" fill="none" xmlns="http://www.w3.org/2000/svg">
<path d="M21.5779 18.6762L36.0154 3.99955C36.4469 3.56017 36.6893 2.96425 36.6893 2.34288C36.6893 1.72151 36.4469 1.12559 36.0154 0.686214C35.5838 0.246839 34.9986 0 34.3883 0C33.778 0 33.1927 0.246839 32.7612 0.686214L18.3466 15.3862L3.93204 0.686214C3.50051 0.246839 2.91523 5.5168e-07 2.30495 5.5631e-07C1.69468 5.6094e-07 1.1094 0.246839 0.677871 0.686214C0.246342 1.12559 0.00391151 1.72151 0.00391151 2.34288C0.0039115 2.96425 0.246342 3.56017 0.677871 3.99955L15.1154 18.6762L0.677871 33.3529C0.463077 33.5698 0.29259 33.8279 0.176246 34.1122C0.0599007 34.3965 0 34.7015 0 35.0095C0 35.3176 0.0599007 35.6226 0.176246 35.9069C0.29259 36.1912 0.463077 36.4493 0.677871 36.6662C0.890911 36.8849 1.14437 37.0585 1.42363 37.177C1.70289 37.2954 2.00243 37.3564 2.30495 37.3564C2.60748 37.3564 2.90702 37.2954 3.18628 37.177C3.46554 37.0585 3.719 36.8849 3.93204 36.6662L18.3466 21.9662L32.7612 36.6662C32.9742 36.8849 33.2277 37.0585 33.507 37.177C33.7862 37.2954 34.0858 37.3564 34.3883 37.3564C34.6908 37.3564 34.9903 37.2954 35.2696 37.177C35.5489 37.0585 35.8023 36.8849 36.0154 36.6662C36.2302 36.4493 36.4007 36.1912 36.517 35.9069C36.6333 35.6226 36.6932 35.3176 36.6932 35.0095C36.6932 34.7015 36.6333 34.3965 36.517 34.1122C36.4007 33.8279 36.2302 33.5698 36.0154 33.3529L21.5779 18.6762Z" fill="white"/>
</svg>
